<svg width="233" height="496" viewBox="0 0 233 496" fill="none" xmlns="http://www.w3.org/2000/svg">
<path d="M142.325 37.3873C141.706 41.2161 139.79 44.0877 137.988 43.8062C136.242 43.5247 135.284 40.2026 135.904 36.3738C136.523 32.5449 138.439 29.6733 140.241 29.9548C141.987 30.2364 142.945 33.5584 142.325 37.3873Z" fill="#F8E0D8"/>
<path d="M138.27 44.4257C138.157 44.4257 138.044 44.4257 137.932 44.3694C135.735 44.0315 134.608 40.4842 135.34 36.205C136.016 31.8694 138.213 28.8851 140.41 29.2793C142.607 29.6171 143.733 33.1644 143.001 37.4437C142.269 41.5541 140.297 44.4257 138.27 44.4257ZM140.016 30.5743C138.833 30.5743 137.143 32.8829 136.58 36.4302C135.96 40.1464 136.918 42.9054 138.101 43.1306C139.284 43.2996 141.086 40.991 141.649 37.2748C142.269 33.5586 141.311 30.7996 140.128 30.5743C140.072 30.5743 140.016 30.5743 140.016 30.5743Z" fill="white"/>
<path d="M90.2214 37.3873C90.8411 41.2161 92.7562 44.0877 94.5587 43.8062C96.3049 43.5247 97.2624 40.2026 96.6428 36.3738C96.0232 32.5449 94.1081 29.6733 92.3056 29.9548C90.5031 30.2364 89.6018 33.5584 90.2214 37.3873Z" fill="#F8E0D8"/>
<path d="M94.2771 44.4259C92.193 44.4259 90.2215 41.5542 89.5455 37.4439C88.8696 33.1083 89.9962 29.6173 92.1366 29.2795C94.3334 28.9416 96.4739 31.9259 97.2062 36.2051C97.8821 40.5407 96.7556 44.0317 94.6151 44.3695C94.5024 44.4259 94.3898 44.4259 94.2771 44.4259ZM90.8411 37.275C91.4607 40.9912 93.2069 43.356 94.3898 43.1308C95.5727 42.9619 96.5303 40.1466 95.9107 36.4304C95.2911 32.7141 93.5449 30.3493 92.362 30.5745C91.1791 30.7434 90.2778 33.5587 90.8411 37.275Z" fill="white"/>
<path d="M165.814 248.142C164.293 219.763 155.844 203.885 155.844 203.885V194.707L156.464 174.718C156.52 172.072 156.858 169.426 157.478 166.836L162.491 144.82C162.491 144.82 162.829 160.586 168.518 174.268C169.307 176.182 171.391 189.471 171.672 189.696C174.714 192.455 177.981 194.932 181.417 197.185C184.459 198.311 187.613 199.099 190.599 199.887C191.444 200.113 192.232 200.338 193.077 200.507C193.584 198.423 194.035 196.396 194.429 194.313C198.71 173.254 188.796 150.619 189.81 126.52C190.035 120.89 190.092 116.723 189.247 112.162C186.712 98.3671 178.77 91.4977 167.222 89.1328L142.551 83.277C137.03 81.813 131.848 78.4346 131.454 71.3964V52.8716H101.093V71.2837C100.642 78.3783 95.5163 81.7004 89.9962 83.1644L65.3243 89.0202C53.777 91.4414 45.7784 98.2545 43.2999 112.05C42.455 116.61 42.5113 120.777 42.7366 126.408C43.7505 150.507 33.8368 173.142 38.1177 194.2C38.85 197.917 39.7512 201.633 40.6525 205.349C47.9189 201.126 52.4814 198.086 59.7478 193.863C59.4098 183.953 63.0712 176.464 64.0288 174.155C69.7179 160.529 70.0559 144.707 70.0559 144.707L75.0691 166.723C75.6324 169.313 75.9703 171.959 76.083 174.606L76.7027 194.595V203.885C76.7027 203.885 67.5775 221.059 66.6199 251.633C66.8452 250.788 68.366 250.845 68.366 251.914C68.4224 269.426 71.0698 287.275 67.3521 304.561C70.8445 330.912 80.5893 340.259 80.8146 348.311C81.4342 375.169 76.6463 374.775 77.4912 392.68C77.8292 399.944 79.857 409.234 82.2228 418.581H82.1102C85.9405 432.658 89.7708 445.495 90.6721 452.365C90.8411 453.829 91.0101 455.18 91.179 456.475C91.348 457.939 91.7424 468.75 91.3481 474.493C90.3341 489.133 79.4628 484.009 76.9843 489.302C76.59 490.146 76.6463 495.27 78.7868 495.27C82.3355 495.27 94.4461 495.27 100.304 495.214C108.19 495.101 108.134 490.597 108.359 487.05C108.528 485.023 106.669 476.013 109.204 468.131C111.852 459.91 102.952 455.462 108.472 421.678C108.528 421.509 108.528 421.284 108.585 421.115H108.753C114.386 382.658 107.233 385.642 105.036 367.624C101.881 341.61 108.359 344.932 109.936 314.865C111.964 275.225 112.077 263.007 112.077 262.669C116.358 260.135 116.358 254.617 116.358 254.617C116.358 254.617 116.358 259.91 120.695 262.781C120.695 263.513 120.92 276.689 122.836 314.865C124.356 344.932 130.891 341.61 127.736 367.624C125.596 385.191 118.667 382.77 123.624 418.581C123.681 418.806 123.681 419.032 123.737 419.257C123.85 419.876 123.906 420.495 124.019 421.115H124.075C124.131 421.284 124.131 421.509 124.187 421.678C129.708 455.405 120.751 459.854 123.455 468.131C125.99 476.013 124.188 485.023 124.3 487.05C124.525 490.597 125.708 495.158 133.594 495.214C139.452 495.27 150.943 495.27 154.492 495.27C156.689 495.27 156.689 490.146 156.295 489.302C153.873 484.009 144.184 488.851 141.311 474.493C140.185 468.694 141.311 457.995 141.48 456.475C141.649 455.18 141.762 453.829 141.987 452.365C142.832 445.946 146.268 434.291 149.873 421.115H149.93C152.577 410.923 154.943 400.619 155.337 392.68C156.182 374.718 151.338 375.169 152.014 348.311C152.239 339.64 163.674 329.336 166.208 297.522C166.208 297.466 166.208 297.466 166.208 297.41C166.208 297.466 166.208 297.522 166.208 297.522C166.208 297.522 165.476 248.254 165.814 248.142Z" fill="#F8E0D8"/>
<path d="M137.932 21.2274C136.918 9.74094 127.623 0.731934 116.301 0.731934C104.979 0.731934 95.6853 9.74094 94.6714 21.2274C94.5587 21.2837 95.1784 38.1193 95.291 41.6666L95.5163 49.4932C95.6853 52.1959 96.9809 54.4481 99.065 56.3626C99.065 56.3626 99.9663 57.2072 101.093 58.3896C104.867 55.9684 110.274 54.4481 116.301 54.4481C122.272 54.4481 127.68 55.9684 131.51 58.3896C132.693 57.2072 133.538 56.3626 133.538 56.3626C135.509 54.5608 136.974 52.1959 137.087 49.4932L137.312 41.6666C137.425 38.1193 138.044 21.2837 137.932 21.2274Z" fill="#F8E0D8"/>
<path d="M131.454 59.009C131.341 59.009 131.229 58.9527 131.116 58.8964C127.286 56.4752 121.878 55.0676 116.302 55.0676C110.725 55.0676 105.261 56.4752 101.487 58.8964C101.206 59.0653 100.868 59.009 100.699 58.7838L98.6708 56.7568C96.305 54.6171 95.0657 52.1959 94.8967 49.4932L94.6714 41.5541C94.6151 39.6959 94.4461 34.6284 94.2771 30.0113C94.2208 27.7027 94.1081 25.5068 94.1081 23.8739C94.0518 22.2973 94.0518 21.509 94.1081 21.1149C94.6151 15.3716 97.1499 10.0788 101.262 6.13739C105.374 2.19595 110.781 0 116.414 0C122.047 0 127.398 2.19595 131.566 6.13739C135.678 10.0788 138.213 15.3716 138.72 21.1149C138.777 21.509 138.72 22.2973 138.72 23.8739C138.664 25.5068 138.608 27.7027 138.551 30.0676C138.382 34.741 138.213 39.8086 138.157 41.5541L137.932 49.4369C137.763 52.0833 136.467 54.6171 134.158 56.7568L132.13 58.7838C131.792 58.9527 131.623 59.009 131.454 59.009ZM95.2347 21.3401C95.2347 21.7342 95.2347 24.5495 95.8543 41.4977V41.6104L96.0796 49.4932C96.1923 51.8018 97.3188 53.9977 99.403 55.9122L101.093 57.6014C105.148 55.1802 110.443 53.8288 116.189 53.8288C121.934 53.8288 127.229 55.1802 131.285 57.6014L132.975 55.9122C134.439 54.5608 136.185 52.3649 136.354 49.4932L136.58 41.6667C137.199 24.6059 137.199 21.7905 137.199 21.3964V21.3401C136.692 15.9347 134.327 10.8671 130.44 7.20721C126.553 3.49099 121.484 1.46396 116.189 1.46396C110.894 1.46396 105.824 3.49099 101.938 7.20721C98.0511 10.9234 95.629 15.9347 95.1784 21.3401C95.2347 21.2838 95.2347 21.2838 95.2347 21.3401ZM137.312 21.509C137.368 21.6216 137.481 21.7342 137.594 21.7905C137.481 21.7342 137.368 21.6216 137.312 21.509ZM95.1784 21.509C95.122 21.6216 95.0094 21.7342 94.8967 21.7905C95.0657 21.7342 95.122 21.6216 95.1784 21.509Z" fill="white"/>
<path d="M192.288 169.369C192.063 171.002 191.838 172.523 191.613 173.649C191.444 174.831 191.612 176.014 192.063 176.633C193.077 178.097 194.88 180.968 195.781 183.784C197.133 187.838 197.978 191.104 198.485 194.989C198.992 198.874 199.498 205.8 199.555 210.191C199.555 214.583 200.512 221.059 201.639 226.239C202.54 230.349 204.624 239.133 205.357 241.667C206.089 244.2 208.117 250.113 208.455 250.619C208.793 251.182 211.722 251.689 214.144 252.703C216.622 253.716 219.157 256.137 220.171 257.883C222.762 262.218 225.466 264.977 227.381 267.061C229.296 269.144 231.831 269.876 232 271.002C232.169 272.128 231.38 272.466 230.817 272.635C229.972 272.917 228.057 272.466 226.93 272.016C224.959 271.227 223.438 269.932 222.875 269.426C221.072 267.68 219.889 265.541 219.27 265.935C218.65 266.329 218.425 270.721 218.425 271.903C218.312 274.606 218.425 276.014 218.537 280.518C218.65 283.333 218.594 284.234 218.763 287.106C218.819 288.288 218.988 291.329 219.101 293.468C219.27 295.664 219.439 300.113 219.439 301.182C219.439 302.196 219.157 303.097 218.312 303.209C217.524 303.322 217.355 303.041 217.073 302.196C216.848 301.52 216.453 299.775 216.115 297.635C215.552 293.694 215.27 290.991 215.158 290.259C215.045 289.527 214.425 284.009 213.524 284.234C212.623 284.459 212.679 284.628 212.679 285.529C212.679 286.43 213.074 289.02 213.412 291.441C213.581 292.568 214.031 295.327 214.144 296.509C214.313 297.635 215.496 302.59 215.608 303.435C215.721 304.279 215.834 305.18 214.594 305.518C213.355 305.856 212.961 304.223 212.623 302.646C212.285 301.07 210.595 294.764 210.257 293.187C209.919 291.61 209.074 285.642 208.06 285.698C207.441 285.698 207.666 286.768 207.61 287.669C207.61 288.57 208.398 293.581 208.905 295.383C209.412 297.241 211.271 303.153 211.271 304.279C211.271 305.462 210.145 305.462 209.694 305.18C208.736 304.561 208.398 303.322 207.497 301.408C206.54 299.493 205.638 296.059 205.131 294.2C204.455 291.779 203.216 286.261 202.709 285.98C201.808 285.529 201.583 286.205 201.47 286.655C201.414 287.106 201.864 290.597 202.653 294.707C203.047 296.734 203.836 300.394 203.892 300.957C203.948 301.52 204.23 302.759 202.709 302.703C201.695 302.703 201.132 300.619 200.907 299.55C200.343 296.903 199.78 294.82 199.555 293.975C199.33 293.131 197.752 287.387 197.752 287.387C197.752 287.387 195.95 281.306 195.274 277.928C194.429 273.649 193.584 268.75 193.19 264.02C193.077 262.838 193.021 260.529 192.908 259.685C192.176 254.167 189.697 250.225 188.12 247.128C184.346 239.583 182.037 234.234 180.122 230.124C177.756 225.169 174.263 215.766 173.137 210.417C171.616 203.209 172.123 198.761 172.405 194.426C172.573 191.667 171.672 189.358 170.827 186.824C169.419 182.601 169.363 184.009 168.743 177.309C168.574 175.845 168.631 174.099 168.8 172.241C176.686 171.34 184.459 170.327 192.288 169.369Z" fill="#F8E0D8"/>
<path d="M40.0328 169.369C40.2581 171.002 40.4835 172.523 40.7088 173.649C40.8778 174.831 40.7088 176.014 40.2581 176.633C39.2442 178.097 37.4417 180.968 36.5405 183.784C35.1886 187.838 34.3437 191.104 33.8367 194.989C33.3297 198.874 32.8228 205.8 32.7665 210.191C32.7665 214.583 31.8089 221.059 30.6823 226.239C29.7811 230.349 27.6969 239.133 26.9647 241.667C26.2324 244.2 24.2046 250.113 23.8666 250.619C23.5286 251.182 20.5996 251.689 18.1774 252.703C15.699 253.716 13.1642 256.137 12.1503 257.883C9.55916 262.218 6.85544 264.977 4.94027 267.061C3.02511 269.144 0.490287 269.876 0.321302 271.002C0.152316 272.128 0.940969 272.466 1.50425 272.635C2.34918 272.917 4.26429 272.466 5.39086 272.016C7.36235 271.227 8.88326 269.932 9.44654 269.426C11.2491 267.68 12.432 265.541 13.0516 265.935C13.6712 266.329 13.8965 270.721 13.8965 271.903C14.0092 274.606 13.8965 276.014 13.7838 280.518C13.6711 283.333 13.7275 284.234 13.5585 287.106C13.5021 288.288 13.3332 291.329 13.2205 293.468C13.0515 295.664 12.8826 300.113 12.8826 301.182C12.8826 302.196 13.1642 303.097 14.0091 303.209C14.7977 303.322 14.9667 303.041 15.2483 302.196C15.4736 301.52 15.868 299.775 16.2059 297.635C16.7692 293.694 17.0508 290.991 17.1635 290.259C17.2762 289.527 17.8958 284.009 18.797 284.234C19.6983 284.459 19.642 284.628 19.642 285.529C19.642 286.43 19.2476 289.02 18.9097 291.441C18.7407 292.568 18.2901 295.327 18.1774 296.509C18.0085 297.635 16.8256 302.59 16.7129 303.435C16.6003 304.279 16.4876 305.18 17.7268 305.518C18.966 305.856 19.3603 304.223 19.6983 302.646C20.0363 301.07 21.7261 294.764 22.0641 293.187C22.4021 291.61 23.247 285.642 24.2609 285.698C24.8805 285.698 24.6552 286.768 24.7115 287.669C24.7115 288.57 23.9229 293.581 23.4159 295.383C22.909 297.241 21.0502 303.153 21.0502 304.279C21.0502 305.462 22.1768 305.462 22.6274 305.18C23.585 304.561 23.9229 303.322 24.8242 301.408C25.7817 299.493 26.683 296.059 27.19 294.2C27.8659 291.779 29.1051 286.261 29.6121 285.98C30.5133 285.529 30.7387 286.205 30.8513 286.655C30.9077 287.106 30.457 290.597 29.6684 294.707C29.2742 296.734 28.4855 300.394 28.4292 300.957C28.3729 301.52 28.0912 302.759 29.6121 302.703C30.626 302.703 31.1893 300.619 31.4146 299.55C31.9779 296.903 32.5412 294.82 32.7665 293.975C32.9918 293.131 34.569 287.387 34.569 287.387C34.569 287.387 36.3715 281.306 37.0475 277.928C37.8924 273.649 38.7373 268.75 39.1316 264.02C39.2442 262.838 39.3006 260.529 39.4132 259.685C40.1455 254.167 42.6239 250.225 44.2011 247.128C47.9751 239.583 50.2846 234.234 52.1998 230.124C54.5656 225.169 58.0579 215.766 59.1845 210.417C60.7053 203.209 60.1984 198.761 59.9168 194.426C59.7478 191.667 60.6491 189.358 61.494 186.824C62.9022 182.601 62.9585 184.009 63.5781 177.309C63.7471 175.845 63.6908 174.099 63.5218 172.241C55.5795 171.34 47.8061 170.327 40.0328 169.369Z" fill="#F8E0D8"/>
<path d="M69.9996 144.764C70.7882 134.234 70.6192 133.446 71.3515 123.874Z" fill="#F4D7CB"/>
<path d="M69.9995 145.439C69.6052 145.383 69.3235 145.101 69.3235 144.764C69.7742 139.133 69.8869 136.374 70.0558 133.39C70.1685 130.912 70.3375 128.322 70.6191 123.818C70.6191 123.48 70.9571 123.198 71.295 123.198C71.633 123.198 71.9147 123.536 71.9147 123.874C71.5767 128.322 71.4641 130.912 71.3514 133.39C71.1824 136.374 71.0698 139.133 70.6191 144.764C70.6191 145.158 70.3375 145.439 69.9995 145.439Z" fill="white"/>
<path d="M162.491 144.764C161.702 134.234 161.871 133.446 161.139 123.874Z" fill="#F4D7CB"/>
<path d="M162.491 145.439C162.153 145.439 161.871 145.158 161.871 144.82C161.421 139.189 161.308 136.374 161.139 133.446C161.026 130.969 160.857 128.379 160.576 123.93C160.576 123.592 160.801 123.255 161.195 123.255C161.533 123.255 161.871 123.48 161.871 123.874C162.209 128.322 162.322 130.912 162.434 133.446C162.603 136.374 162.716 139.189 163.167 144.82C163.167 145.101 162.885 145.383 162.491 145.439C162.547 145.439 162.547 145.439 162.491 145.439Z" fill="white"/>
<path d="M135.791 467.455C135.115 475.394 136.749 478.941 137.875 481.588Z" fill="#F4D7CB"/>
<path d="M137.875 482.264C137.594 482.264 137.368 482.095 137.256 481.869L137.143 481.532C136.016 478.885 134.496 475.225 135.171 467.399C135.228 467.061 135.509 466.779 135.847 466.836C136.185 466.892 136.467 467.173 136.411 467.511C135.791 475 137.199 478.491 138.27 481.025L138.382 481.363C138.495 481.7 138.382 482.095 138.044 482.207C138.044 482.207 137.932 482.264 137.875 482.264Z" fill="white"/>
<path d="M128.806 455.236C130.834 466.779 128.694 477.759 128.694 481.588Z" fill="#F4D7CB"/>
<path d="M128.694 482.263C128.356 482.263 128.018 481.982 128.018 481.588C128.018 480.574 128.13 479.11 128.356 477.308C128.863 471.959 129.651 463.908 128.13 455.349C128.074 455.011 128.299 454.673 128.637 454.617C128.975 454.561 129.313 454.786 129.37 455.124C130.891 463.795 130.102 472.016 129.595 477.421C129.426 479.223 129.257 480.631 129.257 481.588C129.37 481.926 129.032 482.263 128.694 482.263Z" fill="white"/>
<path d="M141.987 486.712C141.987 495.495 133.594 494.876 131.06 494.876Z" fill="#F8E0D8"/>
<path d="M132.299 495.552C132.017 495.552 131.792 495.552 131.566 495.552C131.397 495.552 131.229 495.552 131.116 495.552C130.778 495.552 130.44 495.27 130.44 494.876C130.44 494.482 130.722 494.2 131.116 494.2C131.285 494.2 131.454 494.2 131.623 494.2C133.482 494.2 137.256 494.257 139.509 492.061C140.748 490.822 141.368 489.02 141.368 486.655C141.368 486.318 141.649 485.98 142.044 485.98C142.382 485.98 142.719 486.261 142.719 486.655C142.719 489.358 141.931 491.498 140.466 492.962C138.044 495.327 134.439 495.552 132.299 495.552Z" fill="white"/>
<path d="M96.8119 467.455C97.4878 475.394 95.8543 478.941 94.7278 481.588Z" fill="#F4D7CB"/>
<path d="M94.7278 482.264C94.6714 482.264 94.5588 482.264 94.5024 482.207C94.1645 482.095 93.9955 481.7 94.1645 481.363L94.2771 481.025C95.3473 478.491 96.8119 475 96.136 467.511C96.0796 467.173 96.3613 466.836 96.6992 466.836C97.0372 466.779 97.3752 467.061 97.3752 467.399C98.0511 475.225 96.5302 478.885 95.4037 481.532L95.291 481.869C95.2347 482.095 95.0094 482.264 94.7278 482.264Z" fill="white"/>
<path d="M103.797 455.236C101.769 466.779 103.909 477.759 103.909 481.588Z" fill="#F4D7CB"/>
<path d="M103.909 482.263C103.571 482.263 103.233 481.982 103.233 481.588C103.233 480.631 103.121 479.223 102.895 477.421C102.388 472.016 101.6 463.851 103.121 455.124C103.177 454.786 103.515 454.561 103.853 454.617C104.191 454.673 104.416 455.011 104.36 455.349C102.839 463.851 103.628 471.959 104.135 477.308C104.304 479.167 104.473 480.574 104.473 481.588C104.585 481.926 104.247 482.263 103.909 482.263Z" fill="white"/>
<path d="M90.6157 486.712C90.6157 495.495 99.0087 494.876 101.543 494.876Z" fill="#F8E0D8"/>
<path d="M100.304 495.552C98.1074 495.552 94.5587 495.326 92.193 493.018C90.6721 491.554 89.9398 489.414 89.9398 486.712C89.9398 486.374 90.2214 486.036 90.6157 486.036C90.9537 486.036 91.2916 486.317 91.2916 486.712C91.2916 489.076 91.9113 490.878 93.1505 492.117C95.4036 494.313 99.234 494.257 101.036 494.257C101.205 494.257 101.374 494.257 101.543 494.257C101.881 494.257 102.219 494.538 102.219 494.932C102.219 495.326 101.938 495.608 101.543 495.608C101.431 495.608 101.262 495.608 101.093 495.608C100.811 495.552 100.586 495.552 100.304 495.552Z" fill="white"/>
<path d="M48.2568 178.097C44.7081 176.408 40.4835 176.802 37.1038 178.772Z" fill="#F4D7CB"/>
<path d="M37.0474 179.392C36.8221 179.392 36.5968 179.279 36.4841 179.054C36.3151 178.716 36.4278 178.322 36.7094 178.153C40.4271 175.957 44.877 175.732 48.482 177.477C48.82 177.646 48.9327 178.04 48.7637 178.322C48.5947 178.66 48.2004 178.772 47.9187 178.604C44.6517 177.027 40.7087 177.308 37.329 179.279C37.2727 179.392 37.1601 179.392 37.0474 179.392Z" fill="white"/>
<path d="M184.177 178.097C187.726 176.408 191.951 176.802 195.33 178.772Z" fill="#F4D7CB"/>
<path d="M195.387 179.392C195.274 179.392 195.161 179.335 195.049 179.279C191.669 177.308 187.726 177.083 184.459 178.603C184.121 178.772 183.727 178.603 183.614 178.322C183.445 177.984 183.614 177.59 183.896 177.477C187.557 175.732 191.95 176.013 195.668 178.153C196.006 178.322 196.062 178.716 195.893 179.054C195.781 179.279 195.612 179.392 195.387 179.392Z" fill="white"/>
<path d="M151.788 357.207C150.268 352.872 143.114 352.308 138.27 352.928Z" fill="#F8E0D8"/>
<path d="M151.788 357.827C151.507 357.827 151.281 357.658 151.169 357.376C149.873 353.716 143.621 352.815 138.326 353.491C137.988 353.547 137.65 353.266 137.594 352.928C137.537 352.59 137.819 352.252 138.157 352.196C142.607 351.633 150.662 351.971 152.352 356.926C152.464 357.263 152.295 357.658 151.957 357.77C151.901 357.827 151.845 357.827 151.788 357.827Z" fill="white"/>
<path d="M80.702 357.207C82.2228 352.872 89.3765 352.308 94.2208 352.928Z" fill="#F8E0D8"/>
<path d="M80.7019 357.827C80.6456 357.827 80.5329 357.827 80.4766 357.77C80.1386 357.658 79.9697 357.263 80.0823 356.926C81.8285 351.971 89.8271 351.633 94.277 352.196C94.615 352.252 94.8967 352.59 94.8403 352.928C94.784 353.266 94.446 353.547 94.108 353.491C88.8132 352.815 82.5608 353.716 81.2652 357.376C81.2652 357.714 80.9836 357.827 80.7019 357.827Z" fill="white"/>
<path d="M116.189 254.279C116.527 269.764 86.5601 266.948 78.1672 264.302Z" fill="#F8E0D8"/>
<path d="M94.6151 267.004C87.7993 267.004 81.2089 265.935 77.9982 264.921C77.6602 264.808 77.4913 264.471 77.5476 264.133C77.6603 263.795 77.9982 263.626 78.3361 263.682C81.4905 264.64 87.8557 265.709 94.5587 265.709C94.5587 265.709 94.5587 265.709 94.6151 265.709C100.079 265.709 107.571 265.034 111.964 261.655C114.443 259.797 115.626 257.32 115.569 254.279C115.569 253.941 115.851 253.604 116.189 253.604C116.527 253.604 116.865 253.885 116.865 254.223C116.921 257.714 115.569 260.586 112.753 262.669C108.472 265.935 101.431 267.004 94.6151 267.004Z" fill="white"/>
<path d="M154.267 264.302C145.874 266.892 115.851 269.707 116.245 254.279V238.176" fill="#F8E0D8"/>
<path d="M137.819 267.005C131.003 267.005 123.962 265.935 119.681 262.725C116.865 260.586 115.513 257.77 115.569 254.279V238.176C115.569 237.838 115.851 237.5 116.245 237.5C116.583 237.5 116.921 237.782 116.921 238.176V254.279C116.865 257.376 118.048 259.854 120.526 261.712C124.92 265.034 132.411 265.766 137.875 265.766C137.875 265.766 137.875 265.766 137.932 265.766C144.635 265.766 151 264.696 154.154 263.739C154.492 263.626 154.886 263.851 154.943 264.189C155.055 264.527 154.83 264.921 154.492 264.977C151.225 265.935 144.635 267.005 137.819 267.005Z" fill="white"/>
<path d="M76.6462 203.885C76.6462 203.885 67.1267 221.903 66.5071 253.829C66.3381 261.261 65.7185 287.331 66.5071 297.466C69.0419 329.279 80.5329 339.527 80.7019 348.255" fill="#F8E0D8"/>
<path d="M155.9 203.885C155.9 203.885 165.42 221.903 166.039 253.829C166.208 261.261 168.574 278.153 166.039 297.466C161.815 329.11 152.014 339.527 151.845 348.255" fill="#F8E0D8"/>
<path d="M155.844 203.885C151.112 202.14 148.014 201.408 143.057 200.676Z" fill="#F4D7CB"/>
<path d="M155.844 204.505C155.788 204.505 155.675 204.505 155.619 204.448C151.056 202.759 148.014 201.971 142.945 201.239C142.607 201.182 142.325 200.845 142.382 200.507C142.438 200.169 142.776 199.887 143.114 199.944C148.24 200.676 151.394 201.464 156.069 203.209C156.407 203.322 156.576 203.716 156.464 204.054C156.351 204.336 156.126 204.505 155.844 204.505Z" fill="white"/>
<path d="M76.6463 203.885C81.3779 202.14 84.476 201.408 89.4329 200.676Z" fill="#F4D7CB"/>
<path d="M76.6463 204.504C76.3647 204.504 76.1394 204.336 76.0267 204.054C75.914 203.716 76.0831 203.322 76.421 203.209C81.04 201.464 84.1944 200.676 89.3766 199.944C89.7145 199.887 90.0525 200.113 90.1088 200.507C90.1651 200.845 89.9398 201.182 89.5455 201.239C84.476 201.971 81.4342 202.759 76.8716 204.448C76.8153 204.504 76.759 204.504 76.6463 204.504Z" fill="white"/>
<path d="M135.172 107.376C123.061 114.133 128.694 130.405 130.778 136.036Z" fill="#F8E0D8"/>
<path d="M130.778 136.656C130.496 136.656 130.271 136.487 130.158 136.205C124.751 121.453 126.328 111.543 134.834 106.757C135.172 106.588 135.566 106.701 135.735 106.982C135.904 107.32 135.791 107.714 135.509 107.883C127.623 112.275 126.272 121.678 131.398 135.755C131.51 136.092 131.341 136.487 131.003 136.599C130.947 136.656 130.834 136.656 130.778 136.656Z" fill="white"/>
<path d="M97.2625 107.376C109.373 114.133 103.74 130.405 101.656 136.036Z" fill="#F8E0D8"/>
<path d="M101.656 136.655C101.6 136.655 101.487 136.655 101.431 136.599C101.093 136.487 100.924 136.092 101.036 135.755C106.219 121.678 104.81 112.331 96.9245 107.883C96.5865 107.714 96.4739 107.32 96.6992 106.982C96.8682 106.644 97.2625 106.532 97.6004 106.757C106.106 111.543 107.683 121.453 102.276 136.205C102.163 136.487 101.938 136.655 101.656 136.655Z" fill="white"/>
<path d="M116.189 201.295C115.851 201.295 115.513 201.014 115.513 200.619V136.036C115.513 135.698 115.795 135.36 116.189 135.36C116.527 135.36 116.865 135.642 116.865 136.036V200.676C116.865 201.013 116.583 201.295 116.189 201.295Z" fill="white"/>
</svg>
