<svg width="242" height="495" viewBox="0 0 242 495" fill="none" xmlns="http://www.w3.org/2000/svg">
<path d="M160.481 194.326L161.1 174.338C161.157 171.691 161.495 169.045 162.114 166.455L167.128 144.439C167.128 144.439 167.466 160.149 173.098 173.775C181.322 170.284 189.941 167.862 198.784 166.455C196.925 153.504 193.884 140.047 194.447 126.14C194.672 120.509 194.728 116.342 193.884 111.781C191.349 97.9864 183.407 91.117 171.859 88.7521L147.187 82.8963C141.667 81.4323 136.485 78.0539 136.091 71.0156V58.0652H105.73V71.0156C105.279 78.1102 100.153 81.4323 94.633 82.8963L69.9611 88.7521C58.4138 91.1733 50.4152 97.9864 47.9367 111.781C47.0918 116.342 47.1481 120.509 47.3734 126.14C48.0494 141.849 44.05 156.939 42.4165 171.353C45.6272 171.522 48.8943 171.466 52.105 171.917C54.5835 172.254 57.0619 172.536 59.5404 172.874C61.9061 173.212 65.6802 173.493 68.3839 174.901C68.4966 174.507 68.5529 174.169 68.6656 173.887C74.3547 160.261 74.6927 144.439 74.6927 144.439L79.7059 166.455C80.2692 169.045 80.6072 171.691 80.7198 174.338L81.3395 194.326V203.504C81.3395 203.504 73.7914 217.694 71.7073 243.257C70.2427 253.617 70.2427 258.628 70.4117 268.2C70.5807 278.448 70.0738 283.741 71.482 300.351C74.5237 329.574 85.1698 339.428 85.3951 347.817C86.0147 374.732 81.2268 374.281 82.0717 392.187C82.8603 410.149 94.0133 439.878 95.5905 453.279C98.9139 482.052 90.2957 479.968 84.3248 485.261C81.9027 487.457 78.0161 494.664 83.2546 494.721C87.4792 494.777 95.8722 494.833 103.927 494.721C110.743 494.608 112.658 493.594 112.827 490.16C112.94 488.189 112.658 484.191 112.151 482.277C110.236 475.464 111.081 474.732 111.644 468.482C112.376 460.655 107.757 456.489 112.827 423.662C119.305 381.995 111.813 385.543 109.56 367.131C106.406 341.117 112.883 344.439 114.461 314.372C116.545 273.549 116.601 262.288 116.601 262.288H125.219C125.219 262.288 125.276 273.549 127.36 314.372C128.881 344.439 135.415 341.117 132.26 367.131C130.007 385.543 122.516 381.995 128.993 423.662C134.119 456.432 129.444 460.655 130.176 468.482C130.796 474.676 131.584 475.464 129.669 482.277C129.162 484.191 128.881 488.189 128.993 490.16C129.219 493.594 131.077 494.664 137.893 494.721C145.948 494.833 154.341 494.777 158.566 494.721C163.804 494.664 159.918 487.457 157.495 485.261C151.581 479.968 142.963 482.052 146.23 453.279C147.751 439.878 158.904 410.149 159.749 392.187C160.594 374.225 155.749 374.676 156.425 347.817C156.594 339.709 166.621 330.194 170 302.998C173.436 288.02 169.606 249.619 170.507 249.844C169.268 220.171 160.481 203.504 160.481 203.504V194.326V194.326Z" fill="#F8E0D8"/>
<path d="M45.8526 156.32C46.0779 158.065 46.3032 159.698 46.4159 160.937C46.5848 162.232 46.3595 163.471 45.8526 164.146C44.726 165.723 42.7545 168.707 41.6843 171.691C40.1634 176.027 39.1495 179.462 38.5299 183.628C37.9103 187.795 37.178 195.171 37.009 199.845C36.8964 204.518 35.7135 211.5 34.3616 216.962C33.2913 221.354 30.8129 230.7 29.968 233.403C29.123 236.106 26.8136 242.356 26.4756 242.919C26.0813 243.482 22.9833 243.989 20.3358 245.002C17.6884 246.016 14.9283 248.55 13.7454 250.408C10.8163 254.968 7.88722 257.84 5.80307 260.036C3.71892 262.232 0.958848 262.908 0.789863 264.146C0.620877 265.385 1.40946 265.723 1.97274 265.892C2.874 266.173 4.95815 265.779 6.19737 265.329C8.33785 264.541 10.0277 263.189 10.591 262.626C12.5625 260.824 13.858 258.572 14.534 258.966C15.2099 259.36 15.3226 264.09 15.3226 265.385C15.3789 268.257 15.2099 269.833 14.9846 274.563C14.8156 277.547 14.872 278.561 14.5903 281.658C14.4777 282.896 14.2523 286.162 14.0833 288.471C13.858 290.779 13.5201 295.622 13.5201 296.691C13.5201 297.761 13.8017 298.775 14.6466 298.887C15.4916 299 15.7169 298.718 15.9985 297.818C16.2238 297.086 16.7308 295.228 17.1251 292.919C17.8574 288.696 18.1953 285.824 18.308 285.092C18.4206 284.304 19.2092 278.392 20.2232 278.673C21.1807 278.955 21.0681 279.124 21.0681 280.081C21.0681 281.038 20.5611 283.797 20.1668 286.387C19.9978 287.626 19.4346 290.554 19.2656 291.793C19.0966 293.032 17.6884 298.268 17.5757 299.169C17.4631 300.07 17.2941 301.027 18.646 301.421C19.9979 301.815 20.3921 300.07 20.7864 298.381C21.1807 296.691 23.1522 289.991 23.5465 288.302C23.9408 286.613 25.0111 280.306 26.0813 280.306C26.7009 280.363 26.4756 281.489 26.4756 282.39C26.4756 283.347 25.518 288.696 24.8984 290.61C24.2788 292.581 22.1946 298.831 22.1383 300.07C22.082 301.309 23.3212 301.365 23.8282 301.083C24.8984 300.464 25.2364 299.113 26.3066 297.086C27.3769 295.059 28.4471 291.399 29.0667 289.484C29.8553 286.894 31.3198 281.038 31.8268 280.757C32.7844 280.306 33.066 280.982 33.1223 281.489C33.1787 281.996 32.6154 285.712 31.6578 290.104C31.2072 292.243 30.2496 296.128 30.1933 296.748C30.0806 297.367 29.799 298.662 31.4325 298.662C32.5027 298.662 33.1787 296.466 33.404 295.34C34.0799 292.525 34.6996 290.329 34.9812 289.428C35.2628 288.527 37.0653 282.446 37.0653 282.446C37.0653 282.446 39.1495 276.027 39.9381 272.367C40.952 267.806 41.9659 262.57 42.5292 257.502C42.6418 256.264 42.8108 253.786 42.9235 252.829C43.8247 246.973 46.5848 242.806 48.331 239.541C52.5556 231.545 55.1467 225.858 57.3435 221.523C59.991 216.23 63.9903 206.32 65.2859 200.633C67.0884 192.919 66.6378 188.189 66.4124 183.516C66.2998 180.588 67.3137 178.11 68.2713 175.408C69.8485 170.959 69.9048 172.423 70.7497 165.273C70.9187 163.696 70.9187 161.894 70.806 159.867C62.4694 158.797 54.1329 157.502 45.8526 156.32Z" fill="#F8E0D8"/>
<path d="M196.193 156.32C195.968 158.065 195.742 159.698 195.63 160.937C195.461 162.232 195.348 163.865 196.193 164.146C198.84 165.104 198.84 166.399 200.361 171.691C201.657 176.083 202.896 179.462 203.516 183.628C204.135 187.795 204.868 195.171 205.037 199.845C205.149 204.518 206.332 211.5 207.684 216.962C208.754 221.354 211.233 230.7 212.078 233.403C212.923 236.106 215.232 242.356 215.57 242.919C215.964 243.482 219.062 243.989 221.71 245.002C224.357 246.016 227.117 248.55 228.3 250.408C231.229 254.968 234.158 257.84 236.242 260.036C238.327 262.232 241.087 262.908 241.256 264.146C241.425 265.385 240.636 265.723 240.073 265.892C239.172 266.173 237.087 265.779 235.848 265.329C233.708 264.541 232.018 263.189 231.455 262.626C229.483 260.824 228.188 258.572 227.512 258.966C226.836 259.36 226.723 264.09 226.723 265.385C226.667 268.257 226.836 269.833 227.061 274.563C227.23 277.547 227.174 278.561 227.455 281.658C227.568 282.896 227.793 286.162 227.962 288.471C228.188 290.779 228.526 295.622 228.526 296.691C228.526 297.761 228.244 298.775 227.399 298.887C226.554 299 226.329 298.718 226.047 297.818C225.822 297.086 225.315 295.228 224.92 292.919C224.188 288.696 223.85 285.824 223.738 285.092C223.625 284.304 222.836 278.392 221.822 278.673C220.865 278.955 220.978 279.124 220.978 280.081C220.978 281.038 221.484 283.797 221.879 286.387C222.048 287.626 222.611 290.554 222.78 291.793C222.949 293.032 224.357 298.268 224.47 299.169C224.583 300.07 224.752 301.027 223.4 301.421C222.048 301.815 221.653 300.07 221.259 298.381C220.865 296.691 218.893 289.991 218.499 288.302C218.105 286.613 217.035 280.306 215.964 280.306C215.345 280.363 215.57 281.489 215.57 282.39C215.57 283.347 216.528 288.696 217.147 290.61C217.767 292.581 219.851 298.831 219.907 300.07C219.964 301.309 218.724 301.365 218.217 301.083C217.147 300.464 216.809 299.113 215.739 297.086C214.669 295.059 213.599 291.399 212.979 289.484C212.19 286.894 210.726 281.038 210.219 280.757C209.261 280.306 208.98 280.982 208.923 281.489C208.867 281.996 209.43 285.712 210.388 290.104C210.838 292.243 211.796 296.128 211.852 296.748C211.965 297.367 212.247 298.662 210.613 298.662C209.543 298.662 208.867 296.466 208.642 295.34C207.966 292.525 207.346 290.329 207.064 289.428C206.783 288.527 204.98 282.446 204.98 282.446C204.98 282.446 202.896 276.027 202.107 272.367C201.094 267.806 200.08 262.57 199.516 257.502C199.404 256.264 199.235 253.786 199.122 252.829C198.221 246.973 195.461 242.806 193.715 239.541C189.49 231.545 186.899 225.858 184.702 221.523C182.055 216.23 178.055 206.32 176.76 200.633C174.957 192.919 175.408 188.189 175.633 183.516C175.746 180.588 174.732 178.11 173.774 175.408C172.197 170.959 172.141 172.423 171.296 165.273C171.127 163.696 171.127 161.894 171.24 159.867C179.576 158.797 187.913 157.502 196.193 156.32Z" fill="#F8E0D8"/>
<path d="M146.923 37.0313C147.539 33.225 146.62 29.9097 144.87 29.6265C143.119 29.3432 141.201 32.1992 140.584 36.0055C139.968 39.8118 140.887 43.1271 142.637 43.4103C144.388 43.6936 146.306 40.8376 146.923 37.0313Z" fill="#F8E0D8"/>
<path d="M142.85 43.7072C142.737 43.7072 142.681 43.7072 142.568 43.7072C140.597 43.3694 139.583 39.991 140.259 35.9369C140.541 34.0225 141.217 32.3333 142.005 31.0946C142.906 29.7996 143.92 29.1802 144.878 29.2928C146.849 29.6306 147.863 33.009 147.187 37.0631C146.906 38.9775 146.23 40.6667 145.441 41.9054C144.653 43.0878 143.751 43.7072 142.85 43.7072ZM144.653 29.8559C143.977 29.8559 143.188 30.4189 142.512 31.4324C141.724 32.6149 141.104 34.2478 140.822 36.0496C140.259 39.6532 141.104 42.9189 142.681 43.1442C143.413 43.2568 144.258 42.6937 144.991 41.6239C145.779 40.4415 146.399 38.8086 146.68 37.0068C147.244 33.4032 146.399 30.1374 144.822 29.9122C144.765 29.8559 144.709 29.8559 144.653 29.8559Z" fill="white"/>
<path d="M99.1019 43.3947C100.852 43.1115 101.771 39.7962 101.155 35.9899C100.539 32.1836 98.6199 29.3276 96.8696 29.6109C95.1192 29.8942 94.2 33.2094 94.8164 37.0157C95.4328 40.822 97.3515 43.678 99.1019 43.3947Z" fill="#F8E0D8"/>
<path d="M98.9139 43.7073C98.0127 43.7073 97.1114 43.0879 96.3228 41.9055C95.4779 40.6667 94.8583 38.9212 94.5766 37.0631C93.9007 33.0091 94.9146 29.6307 96.8861 29.2928C97.8437 29.1239 98.8576 29.7433 99.7589 31.0946C100.604 32.3334 101.223 34.0789 101.505 35.937C102.181 39.991 101.167 43.3694 99.1956 43.7073C99.0829 43.7073 99.0266 43.7073 98.9139 43.7073ZM97.1678 29.8559C97.1114 29.8559 97.0551 29.8559 96.9988 29.8559C95.4216 30.1374 94.5766 33.3469 95.1399 36.9505C95.4215 38.7523 96.0411 40.3852 96.8297 41.5676C97.562 42.6374 98.407 43.2005 99.1393 43.0879C100.716 42.8064 101.561 39.5969 100.998 35.9933C100.716 34.1915 100.097 32.5586 99.3082 31.3762C98.5759 30.3627 97.8437 29.8559 97.1678 29.8559Z" fill="white"/>
<path d="M142.568 20.8468C141.555 9.36033 132.26 0.351318 120.938 0.351318C109.616 0.351318 100.322 9.36033 99.3082 20.8468C99.1955 20.9031 99.8151 37.7387 99.9278 41.286L100.153 49.1126C100.322 51.8153 101.618 54.0675 103.702 55.9819C103.702 55.9819 111.588 63.8648 111.926 64.1464C114.686 66.5675 117.671 68.2004 120.938 68.2004C124.205 68.2004 127.191 66.5112 129.951 64.1464C130.289 63.8648 138.175 55.9819 138.175 55.9819C140.372 53.9549 141.611 51.8153 141.724 49.1126L141.949 41.286C142.061 37.795 142.625 20.9031 142.568 20.8468Z" fill="#F8E0D8"/>
<path d="M120.882 68.4819C117.897 68.4819 114.855 67.1306 111.7 64.3152C111.362 64.0337 103.758 56.4324 103.477 56.1508C101.223 54.0675 99.9841 51.7026 99.8152 49.1125L99.5898 41.117C99.0265 24.8445 98.9139 21.5224 99.0265 20.7905H98.9702C100.04 8.96613 109.447 0.0134277 120.882 0.0134277C132.317 0.0134277 141.724 8.96613 142.794 20.7905H142.737C142.85 21.5224 142.737 24.8445 142.174 41.117V41.2296L141.949 49.0562C141.78 51.7026 140.653 53.9549 138.287 56.0945C137.95 56.4324 130.401 63.9774 130.063 64.2589C126.909 67.1306 123.867 68.4819 120.882 68.4819ZM99.5335 20.9031C99.5335 21.2409 99.5335 24.3941 100.153 41.117V41.2296L100.378 49.0562C100.491 51.4774 101.674 53.7296 103.871 55.7004C106.631 58.4031 111.813 63.6396 112.095 63.8648C115.193 66.5675 118.066 67.8625 120.938 67.8625C123.811 67.8625 126.684 66.5675 129.782 63.8648C130.063 63.6396 135.302 58.4031 138.006 55.7004C140.259 53.617 141.329 51.59 141.498 48.9999L141.723 41.0044C142.287 24.2814 142.343 21.1283 142.343 20.7905V20.7341C141.329 9.19136 132.148 0.463878 120.995 0.463878C109.729 0.632797 100.547 9.36027 99.5335 20.9031Z" fill="white"/>
<path d="M140.428 494.327C140.146 494.327 139.865 494.101 139.865 493.82C139.47 489.315 136.879 487.908 134.739 488.02C132.767 488.133 130.739 489.597 130.796 492.074C130.796 492.412 130.57 492.637 130.232 492.637C129.894 492.637 129.669 492.412 129.669 492.074C129.557 488.921 132.148 487.007 134.626 486.894C137.499 486.725 140.541 488.752 140.935 493.764C141.048 494.045 140.822 494.327 140.428 494.327C140.484 494.327 140.484 494.327 140.428 494.327Z" fill="white"/>
<path d="M140.428 494.327C140.146 494.327 139.921 494.158 139.865 493.876C139.583 492.637 140.034 491.399 140.991 490.554C141.949 489.709 143.357 489.428 144.484 489.878C145.272 490.16 146.624 491.061 147.018 493.651C147.075 493.932 146.849 494.27 146.568 494.27C146.286 494.327 145.948 494.101 145.948 493.82C145.723 492.3 145.103 491.286 144.146 490.948C143.357 490.667 142.456 490.836 141.78 491.455C141.104 492.018 140.879 492.806 141.048 493.651C141.104 493.932 140.935 494.27 140.597 494.327C140.541 494.327 140.484 494.327 140.428 494.327Z" fill="white"/>
<path d="M146.511 494.326C146.23 494.326 146.004 494.101 145.948 493.82C145.779 492.75 146.23 491.736 147.075 491.061C147.976 490.385 149.159 490.216 150.116 490.61C150.736 490.892 151.863 491.624 152.088 493.651C152.144 493.932 151.919 494.214 151.581 494.27C151.299 494.327 151.018 494.101 150.961 493.763C150.849 492.637 150.398 491.905 149.666 491.624C149.046 491.342 148.314 491.511 147.751 491.905C147.187 492.299 146.962 492.919 147.018 493.595C147.075 493.876 146.849 494.214 146.511 494.214C146.568 494.327 146.568 494.326 146.511 494.326Z" fill="white"/>
<path d="M151.637 494.327C151.356 494.327 151.13 494.101 151.074 493.82C150.961 492.806 151.356 491.793 152.144 491.174C152.989 490.498 154.116 490.329 155.073 490.723C155.693 490.948 156.707 491.68 156.988 493.651C157.045 493.933 156.819 494.214 156.482 494.27C156.2 494.327 155.918 494.101 155.862 493.764C155.749 492.694 155.299 492.018 154.623 491.737C154.059 491.511 153.327 491.624 152.82 492.018C152.313 492.412 152.088 492.975 152.144 493.595C152.201 493.876 151.975 494.214 151.637 494.214C151.637 494.327 151.637 494.327 151.637 494.327Z" fill="white"/>
<path d="M156.425 494.327C156.144 494.327 155.918 494.101 155.862 493.82C155.58 491.962 156.594 490.723 157.664 490.385C158.847 489.991 160.143 490.498 160.875 491.793C161.044 492.074 160.931 492.412 160.65 492.581C160.368 492.75 160.03 492.637 159.861 492.356C159.411 491.568 158.678 491.173 158.002 491.455C157.326 491.68 156.763 492.469 156.932 493.707C156.988 493.989 156.763 494.327 156.425 494.327C156.482 494.327 156.482 494.327 156.425 494.327Z" fill="white"/>
<path d="M140.372 492.356C140.09 492.356 139.865 492.131 139.808 491.849L139.358 487.007C139.301 486.669 139.583 486.444 139.865 486.387C140.203 486.331 140.428 486.613 140.484 486.894L140.935 491.736C140.991 492.074 140.766 492.3 140.372 492.356C140.428 492.356 140.372 492.356 140.372 492.356Z" fill="white"/>
<path d="M146.511 492.581C146.23 492.581 146.004 492.412 145.948 492.131L145.16 487.401C145.103 487.119 145.329 486.782 145.61 486.725C145.892 486.669 146.23 486.894 146.286 487.176L147.075 491.905C147.131 492.187 146.906 492.525 146.624 492.581C146.568 492.581 146.511 492.581 146.511 492.581Z" fill="white"/>
<path d="M151.525 492.581C151.243 492.581 151.018 492.412 150.961 492.131L150.173 488.189C150.116 487.908 150.342 487.57 150.623 487.514C150.905 487.457 151.243 487.682 151.299 487.964L152.088 491.905C152.144 492.187 151.919 492.525 151.637 492.581C151.637 492.581 151.581 492.581 151.525 492.581Z" fill="white"/>
<path d="M156.482 492.581C156.2 492.581 155.975 492.412 155.918 492.131L155.13 488.696C155.073 488.414 155.242 488.076 155.58 488.02C155.862 487.964 156.2 488.133 156.256 488.471L157.045 491.905C157.101 492.187 156.932 492.525 156.594 492.581C156.594 492.581 156.538 492.581 156.482 492.581Z" fill="white"/>
<path d="M120.713 97.1982C120.375 97.1982 120.15 96.9166 120.15 96.6351C120.15 96.2973 120.375 96.072 120.713 96.072C121.558 96.072 122.178 95.3964 123.642 93.6509C123.867 93.4256 124.205 93.3693 124.431 93.5945C124.656 93.8198 124.712 94.1576 124.487 94.3828C122.966 96.1846 122.121 97.1982 120.713 97.1982Z" fill="white"/>
<path d="M143.977 141.511C141.611 141.511 139.301 141.399 137.217 141.342C135.865 141.286 134.57 141.23 133.387 141.23C133.049 141.23 132.824 140.948 132.824 140.667C132.824 140.329 133.105 140.104 133.387 140.104C134.57 140.104 135.922 140.16 137.274 140.216C149.215 140.667 165.607 141.286 168.536 126.759C168.592 126.477 168.874 126.252 169.212 126.308C169.493 126.365 169.719 126.646 169.662 126.984C167.071 139.653 154.735 141.511 143.977 141.511Z" fill="white"/>
<path d="M144.99 222.029C144.934 222.029 144.822 222.029 144.765 221.973C144.484 221.86 144.371 221.523 144.484 221.241C147.638 214.766 150.06 210.374 160.143 203.054C160.368 202.885 160.762 202.941 160.931 203.167C161.1 203.392 161.044 203.786 160.819 203.955C150.961 211.162 148.539 215.385 145.497 221.748C145.385 221.917 145.216 222.029 144.99 222.029Z" fill="white"/>
<path d="M125.219 262.907C124.938 262.907 124.656 262.682 124.656 262.401C124.656 262.063 124.881 261.838 125.163 261.781C128.148 261.556 128.712 257.164 130.063 246.522C130.176 245.621 130.289 244.608 130.458 243.594C130.514 243.313 130.796 243.088 131.077 243.088C131.359 243.144 131.584 243.425 131.584 243.707C131.472 244.721 131.359 245.678 131.19 246.635C129.782 257.953 129.162 262.626 125.219 262.907Z" fill="white"/>
<path d="M137.443 92.8625C135.922 92.8625 135.246 92.6935 135.189 92.6935C134.908 92.6372 134.682 92.2994 134.795 92.0179C134.851 91.7363 135.189 91.5674 135.471 91.6237C135.527 91.6237 139.752 92.6372 150.173 89.3715C153.834 88.2453 161.438 86.5562 164.874 86.5562C165.212 86.5562 165.438 86.7814 165.438 87.1192C165.438 87.4571 165.212 87.6823 164.874 87.6823C161.495 87.6823 154.116 89.3152 150.511 90.4413C143.92 92.412 139.752 92.8625 137.443 92.8625Z" fill="white"/>
<path d="M124.093 94.5516C123.98 94.5516 123.867 94.4953 123.755 94.439C123.529 94.2701 123.473 93.8759 123.642 93.6507C126.628 89.653 134.626 76.2521 135.527 68.144C135.584 67.8624 135.865 67.6372 136.147 67.6372C136.429 67.6935 136.654 67.975 136.654 68.2566C135.753 76.5899 127.641 90.2723 124.543 94.3264C124.431 94.4953 124.262 94.5516 124.093 94.5516Z" fill="white"/>
<path d="M145.835 359.586C142.512 359.586 139.02 358.009 137.78 355.757C137.611 355.475 137.724 355.137 138.006 354.968C138.287 354.8 138.625 354.912 138.794 355.194C139.865 357.164 143.751 358.91 147.3 358.291C149.271 357.953 151.806 356.77 152.426 352.998C152.482 352.716 152.764 352.491 153.045 352.547C153.327 352.604 153.552 352.885 153.496 353.167C152.933 356.601 150.792 358.854 147.469 359.417C146.962 359.586 146.399 359.586 145.835 359.586Z" fill="white"/>
<path d="M167.128 145.002C167.071 145.002 167.071 145.002 167.015 145.002C166.733 144.946 166.508 144.664 166.564 144.327C168.592 133.797 169.043 123.662 167.916 114.315C167.86 114.034 168.085 113.752 168.423 113.696C168.705 113.64 168.986 113.865 169.043 114.203C170.169 123.662 169.719 133.854 167.635 144.552C167.635 144.777 167.409 145.002 167.128 145.002Z" fill="white"/>
<path d="M101.336 494.327C101.336 494.327 101.28 494.327 101.336 494.327C100.998 494.327 100.773 494.045 100.773 493.707C101.167 488.752 104.265 486.725 107.082 486.838C109.56 487.007 112.151 488.865 112.038 492.018C112.038 492.356 111.813 492.581 111.475 492.581C111.137 492.581 110.912 492.3 110.912 492.018C111.024 489.541 108.94 488.077 106.969 487.964C104.828 487.851 102.181 489.259 101.843 493.764C101.843 494.101 101.618 494.327 101.336 494.327Z" fill="white"/>
<path d="M101.336 494.327C101.28 494.327 101.28 494.327 101.223 494.327C100.942 494.27 100.716 493.932 100.773 493.651C100.942 492.806 100.66 492.018 100.041 491.455C99.3646 490.892 98.4633 490.667 97.6747 490.948C96.7171 491.286 96.0975 492.356 95.8722 493.82C95.8159 494.101 95.5342 494.327 95.2526 494.27C94.971 494.214 94.7456 493.932 94.8019 493.651C95.1962 491.061 96.5481 490.16 97.3367 489.878C98.4633 489.428 99.8715 489.709 100.829 490.554C101.787 491.399 102.181 492.637 101.956 493.876C101.843 494.158 101.618 494.327 101.336 494.327Z" fill="white"/>
<path d="M95.2526 494.327H95.1963C94.9146 494.27 94.6893 493.989 94.6893 493.707C94.8019 493.032 94.5203 492.412 93.957 492.018C93.3937 491.568 92.6051 491.455 92.0418 491.737C91.3095 492.018 90.859 492.75 90.7463 493.876C90.69 494.158 90.4083 494.383 90.1267 494.383C89.845 494.327 89.6197 494.045 89.6197 493.764C89.9014 491.737 90.9716 490.948 91.5912 490.723C92.6051 490.329 93.7317 490.498 94.633 491.174C95.4779 491.849 95.9285 492.863 95.7595 493.933C95.7595 494.158 95.5342 494.327 95.2526 494.327Z" fill="white"/>
<path d="M90.183 494.327H90.1267C89.845 494.27 89.6197 493.989 89.6197 493.707C89.7324 493.088 89.4507 492.525 88.9438 492.131C88.3805 491.737 87.7046 491.624 87.1413 491.849C86.4653 492.131 86.071 492.806 85.902 493.876C85.8457 494.158 85.5641 494.383 85.2824 494.383C85.0008 494.327 84.7755 494.045 84.7755 493.764C85.0008 491.793 86.071 491.117 86.6906 490.836C87.6482 490.441 88.7748 490.61 89.6197 491.286C90.4647 491.905 90.8589 492.919 90.69 493.932C90.69 494.158 90.4647 494.327 90.183 494.327Z" fill="white"/>
<path d="M85.3388 494.327H85.2824C85.0008 494.27 84.7755 493.989 84.7755 493.707C84.9445 492.468 84.3812 491.68 83.7053 491.455C83.0293 491.23 82.297 491.568 81.8464 492.356C81.6774 492.637 81.3395 492.694 81.0578 492.581C80.7762 492.412 80.7198 492.074 80.8325 491.793C81.5648 490.498 82.8603 489.935 84.0432 490.385C85.1135 490.779 86.1274 491.962 85.8457 493.82C85.8457 494.158 85.6204 494.327 85.3388 494.327Z" fill="white"/>
<path d="M101.392 492.356C101.054 492.3 100.829 492.074 100.829 491.736L101.28 486.894C101.336 486.613 101.561 486.331 101.899 486.387C102.181 486.444 102.463 486.669 102.406 487.007L101.956 491.849C101.956 492.131 101.674 492.356 101.392 492.356Z" fill="white"/>
<path d="M95.2526 492.581C95.1963 492.581 95.1962 492.581 95.1399 492.581C94.8583 492.525 94.633 492.243 94.6893 491.905L95.4779 487.176C95.5343 486.894 95.8159 486.669 96.1538 486.725C96.4355 486.782 96.6608 487.063 96.6045 487.401L95.8159 492.131C95.7596 492.412 95.5342 492.581 95.2526 492.581Z" fill="white"/>
<path d="M90.2393 492.581C90.183 492.581 90.183 492.581 90.1267 492.581C89.845 492.525 89.6197 492.243 89.676 491.905L90.4646 487.964C90.521 487.682 90.8026 487.457 91.1406 487.514C91.4222 487.57 91.6475 487.851 91.5912 488.189L90.8026 492.131C90.7463 492.412 90.521 492.581 90.2393 492.581Z" fill="white"/>
<path d="M85.2824 492.581C85.2261 492.581 85.2261 492.581 85.1698 492.581C84.8881 492.525 84.6628 492.187 84.7191 491.905L85.5077 488.471C85.5641 488.189 85.902 487.964 86.1837 488.02C86.4653 488.076 86.6906 488.414 86.6343 488.696L85.8457 492.131C85.7331 492.412 85.5077 492.581 85.2824 492.581Z" fill="white"/>
<path d="M121.051 97.1982C119.643 97.1982 118.798 96.241 117.277 94.3828C117.052 94.1576 117.108 93.7635 117.333 93.5945C117.559 93.3693 117.953 93.4256 118.122 93.6509C119.586 95.3964 120.206 96.072 121.051 96.072C121.389 96.072 121.614 96.2973 121.614 96.6351C121.614 96.9166 121.389 97.1982 121.051 97.1982Z" fill="white"/>
<path d="M97.7874 141.511C86.9723 141.511 74.6927 139.709 72.1016 126.984C72.0453 126.703 72.2142 126.365 72.5522 126.309C72.8339 126.252 73.1718 126.421 73.2282 126.759C76.1572 141.286 92.5488 140.667 104.49 140.216C105.842 140.16 107.138 140.104 108.377 140.104C108.715 140.104 108.94 140.329 108.94 140.667C108.94 141.004 108.715 141.23 108.377 141.23C107.194 141.23 105.899 141.286 104.547 141.342C102.463 141.399 100.153 141.511 97.7874 141.511Z" fill="white"/>
<path d="M96.7734 222.029C96.5481 222.029 96.3791 221.917 96.2664 221.691C93.2247 215.385 90.8589 211.106 80.9451 203.899C80.7198 203.73 80.6635 203.335 80.8325 203.11C81.0015 202.885 81.3958 202.829 81.6211 202.998C91.7039 210.374 94.126 214.709 97.2804 221.185C97.393 221.466 97.2804 221.804 96.9987 221.917C96.9424 222.029 96.8861 222.029 96.7734 222.029Z" fill="white"/>
<path d="M116.545 262.908C112.602 262.626 111.982 257.953 110.574 246.691C110.461 245.791 110.349 244.777 110.18 243.763C110.123 243.482 110.349 243.2 110.687 243.144C110.968 243.088 111.25 243.313 111.306 243.651C111.419 244.664 111.531 245.622 111.7 246.579C113.052 257.221 113.616 261.613 116.601 261.838C116.939 261.838 117.164 262.119 117.108 262.457C117.108 262.682 116.883 262.908 116.545 262.908Z" fill="white"/>
<path d="M104.378 92.8626C102.068 92.8626 97.9 92.4685 91.3096 90.3851C87.7046 89.259 80.3255 87.6261 76.9458 87.6261C76.6079 87.6261 76.3826 87.4009 76.3826 87.0631C76.3826 86.7252 76.6079 86.5 76.9458 86.5C80.4382 86.5 87.9862 88.1892 91.6475 89.3153C102.125 92.5811 106.293 91.5676 106.349 91.5676C106.631 91.5113 106.969 91.6802 107.025 91.9617C107.082 92.2432 106.913 92.5811 106.631 92.6374C106.575 92.6937 105.842 92.8626 104.378 92.8626Z" fill="white"/>
<path d="M117.671 94.5517C117.502 94.5517 117.333 94.4954 117.221 94.3265C114.179 90.2724 106.068 76.59 105.11 68.2567C105.054 67.9751 105.279 67.6936 105.617 67.6373C105.899 67.581 106.18 67.8062 106.237 68.144C107.138 76.2521 115.08 89.6531 118.122 93.6508C118.291 93.876 118.235 94.2702 118.009 94.4391C117.953 94.5517 117.84 94.5517 117.671 94.5517Z" fill="white"/>
<path d="M95.9285 359.585C95.3652 359.585 94.8019 359.529 94.2949 359.473C90.9716 358.91 88.8311 356.714 88.2678 353.223C88.2115 352.941 88.4368 352.603 88.7184 352.603C89.0001 352.547 89.3381 352.772 89.3381 353.054C89.9577 356.826 92.4361 358.009 94.464 358.347C98.0126 358.966 101.899 357.221 102.97 355.25C103.139 354.968 103.476 354.856 103.758 355.025C104.04 355.193 104.152 355.531 103.983 355.813C102.744 358.009 99.2519 359.585 95.9285 359.585Z" fill="white"/>
<path d="M74.6364 145.002C74.3547 145.002 74.1294 144.833 74.0731 144.552C72.0452 133.91 71.5946 123.662 72.6649 114.203C72.7212 113.921 73.0029 113.696 73.2845 113.696C73.5661 113.752 73.7914 114.034 73.7914 114.315C72.6649 123.662 73.1155 133.741 75.1433 144.326C75.1997 144.608 74.9743 144.946 74.6927 145.002C74.749 145.002 74.6927 145.002 74.6364 145.002Z" fill="white"/>
<path d="M120.882 198.043C119.361 198.043 118.122 196.804 118.122 195.284C118.122 193.763 119.361 192.525 120.882 192.525C122.403 192.525 123.642 193.763 123.642 195.284C123.642 196.804 122.403 198.043 120.882 198.043ZM120.882 193.651C119.981 193.651 119.248 194.383 119.248 195.284C119.248 196.185 119.981 196.917 120.882 196.917C121.783 196.917 122.516 196.185 122.516 195.284C122.516 194.383 121.783 193.651 120.882 193.651Z" fill="white"/>
</svg>
