<svg viewBox="0 0 109 16" fill="none" xmlns="http://www.w3.org/2000/svg">
<path d="M1.70898 3.04688H3.24023L6.11816 10.7236L8.98926 3.04688H10.5205L6.71973 13H5.50293L1.70898 3.04688ZM1.01172 3.04688H2.46777L2.7207 9.69141V13H1.01172V3.04688ZM9.76172 3.04688H11.2246V13H9.50879V9.69141L9.76172 3.04688ZM15.2441 12.1934L17.2539 5.60352H19.0176L16.0508 14.1279C15.9824 14.3102 15.8936 14.5085 15.7842 14.7227C15.6748 14.9368 15.5312 15.1396 15.3535 15.3311C15.1803 15.527 14.9639 15.6842 14.7041 15.8027C14.4443 15.9258 14.1299 15.9873 13.7607 15.9873C13.6149 15.9873 13.4736 15.9736 13.3369 15.9463C13.2048 15.9235 13.0794 15.8984 12.9609 15.8711L12.9541 14.6133C12.9997 14.6178 13.0544 14.6224 13.1182 14.627C13.1865 14.6315 13.2412 14.6338 13.2822 14.6338C13.5557 14.6338 13.7835 14.5996 13.9658 14.5312C14.1481 14.4674 14.2962 14.3626 14.4102 14.2168C14.5286 14.071 14.6289 13.875 14.7109 13.6289L15.2441 12.1934ZM14.1094 5.60352L15.8662 11.1406L16.1602 12.877L15.0186 13.1709L12.332 5.60352H14.1094ZM27.3779 3.04688V13H25.6758V3.04688H27.3779ZM30.502 3.04688V4.41406H22.5791V3.04688H30.502ZM33.2773 2.5V13H31.6367V2.5H33.2773ZM32.9902 9.02832L32.457 9.02148C32.4616 8.51107 32.5322 8.03939 32.6689 7.60645C32.8102 7.1735 33.0062 6.79753 33.2568 6.47852C33.512 6.15495 33.8174 5.90658 34.1729 5.7334C34.5283 5.55566 34.9225 5.4668 35.3555 5.4668C35.7201 5.4668 36.0482 5.51693 36.3398 5.61719C36.6361 5.71745 36.8913 5.87923 37.1055 6.10254C37.3197 6.32129 37.4814 6.6084 37.5908 6.96387C37.7048 7.31478 37.7617 7.74316 37.7617 8.24902V13H36.1074V8.23535C36.1074 7.87988 36.055 7.59733 35.9502 7.3877C35.8499 7.17806 35.7018 7.02767 35.5059 6.93652C35.3099 6.84082 35.0706 6.79297 34.7881 6.79297C34.4919 6.79297 34.2298 6.85221 34.002 6.9707C33.7786 7.08919 33.5918 7.25098 33.4414 7.45605C33.291 7.66113 33.1771 7.89811 33.0996 8.16699C33.0267 8.43587 32.9902 8.72298 32.9902 9.02832ZM42.6904 13.1367C42.1436 13.1367 41.6491 13.0479 41.207 12.8701C40.7695 12.6878 40.3958 12.4349 40.0859 12.1113C39.7806 11.7878 39.5459 11.4072 39.3818 10.9697C39.2178 10.5322 39.1357 10.0605 39.1357 9.55469V9.28125C39.1357 8.70247 39.2201 8.17839 39.3887 7.70898C39.5573 7.23958 39.792 6.83854 40.0928 6.50586C40.3936 6.16862 40.749 5.91113 41.1592 5.7334C41.5693 5.55566 42.0137 5.4668 42.4922 5.4668C43.0208 5.4668 43.4834 5.55566 43.8799 5.7334C44.2764 5.91113 44.6045 6.16178 44.8643 6.48535C45.1286 6.80436 45.3245 7.1849 45.4521 7.62695C45.5843 8.06901 45.6504 8.55664 45.6504 9.08984V9.79395H39.9355V8.61133H44.0234V8.48145C44.0143 8.18522 43.9551 7.90723 43.8457 7.64746C43.7409 7.3877 43.5791 7.17806 43.3604 7.01855C43.1416 6.85905 42.8499 6.7793 42.4854 6.7793C42.2119 6.7793 41.9681 6.83854 41.7539 6.95703C41.5443 7.07096 41.3688 7.2373 41.2275 7.45605C41.0863 7.6748 40.9769 7.93913 40.8994 8.24902C40.8265 8.55436 40.79 8.89844 40.79 9.28125V9.55469C40.79 9.87826 40.8333 10.179 40.9199 10.457C41.0111 10.7305 41.1432 10.9697 41.3164 11.1748C41.4896 11.3799 41.6992 11.5417 41.9453 11.6602C42.1914 11.7741 42.4717 11.8311 42.7861 11.8311C43.1826 11.8311 43.5358 11.7513 43.8457 11.5918C44.1556 11.4323 44.4245 11.2067 44.6523 10.915L45.5205 11.7559C45.361 11.9883 45.1536 12.2116 44.8984 12.4258C44.6432 12.6354 44.3311 12.8063 43.9619 12.9385C43.5973 13.0706 43.1735 13.1367 42.6904 13.1367ZM48.5898 7.01172V13H46.9424V5.60352H48.5146L48.5898 7.01172ZM50.8525 5.55566L50.8389 7.08691C50.7386 7.06868 50.6292 7.05501 50.5107 7.0459C50.3968 7.03678 50.2829 7.03223 50.1689 7.03223C49.8864 7.03223 49.638 7.07324 49.4238 7.15527C49.2096 7.23275 49.0296 7.34668 48.8838 7.49707C48.7425 7.6429 48.6331 7.82064 48.5557 8.03027C48.4782 8.23991 48.4326 8.47461 48.4189 8.73438L48.043 8.76172C48.043 8.29688 48.0885 7.86621 48.1797 7.46973C48.2708 7.07324 48.4076 6.72461 48.5898 6.42383C48.7767 6.12305 49.0091 5.88835 49.2871 5.71973C49.5697 5.55111 49.8955 5.4668 50.2646 5.4668C50.3649 5.4668 50.472 5.47591 50.5859 5.49414C50.7044 5.51237 50.7933 5.53288 50.8525 5.55566ZM53.5322 7.10742V13H51.8848V5.60352H53.4365L53.5322 7.10742ZM53.2656 9.02832L52.7051 9.02148C52.7051 8.51107 52.7689 8.03939 52.8965 7.60645C53.0241 7.1735 53.2109 6.79753 53.457 6.47852C53.7031 6.15495 54.0085 5.90658 54.373 5.7334C54.7422 5.55566 55.1683 5.4668 55.6514 5.4668C55.9886 5.4668 56.2962 5.51693 56.5742 5.61719C56.8568 5.71289 57.1006 5.86556 57.3057 6.0752C57.5153 6.28483 57.6748 6.55371 57.7842 6.88184C57.8981 7.20996 57.9551 7.60645 57.9551 8.07129V13H56.3076V8.21484C56.3076 7.85482 56.2529 7.57227 56.1436 7.36719C56.0387 7.16211 55.8861 7.01628 55.6855 6.92969C55.4896 6.83854 55.2549 6.79297 54.9814 6.79297C54.6715 6.79297 54.4072 6.85221 54.1885 6.9707C53.9743 7.08919 53.7988 7.25098 53.6621 7.45605C53.5254 7.66113 53.4251 7.89811 53.3613 8.16699C53.2975 8.43587 53.2656 8.72298 53.2656 9.02832ZM57.8525 8.59082L57.0801 8.76172C57.0801 8.3151 57.1416 7.89355 57.2646 7.49707C57.3923 7.09603 57.5768 6.74512 57.8184 6.44434C58.0645 6.139 58.3675 5.89974 58.7275 5.72656C59.0876 5.55339 59.5 5.4668 59.9648 5.4668C60.3431 5.4668 60.6803 5.51921 60.9766 5.62402C61.2773 5.72428 61.5326 5.88379 61.7422 6.10254C61.9518 6.32129 62.1113 6.60612 62.2207 6.95703C62.3301 7.30339 62.3848 7.72266 62.3848 8.21484V13H60.7305V8.20801C60.7305 7.83431 60.6758 7.54492 60.5664 7.33984C60.4616 7.13477 60.3112 6.99349 60.1152 6.91602C59.9193 6.83398 59.6846 6.79297 59.4111 6.79297C59.1559 6.79297 58.9303 6.84082 58.7344 6.93652C58.543 7.02767 58.3812 7.15755 58.249 7.32617C58.1169 7.49023 58.0166 7.67936 57.9482 7.89355C57.8844 8.10775 57.8525 8.34017 57.8525 8.59082ZM63.7656 9.38379V9.22656C63.7656 8.69336 63.8431 8.19889 63.998 7.74316C64.153 7.28288 64.3763 6.88411 64.668 6.54688C64.9642 6.20508 65.3242 5.94076 65.748 5.75391C66.1764 5.5625 66.6595 5.4668 67.1973 5.4668C67.7396 5.4668 68.2227 5.5625 68.6465 5.75391C69.0749 5.94076 69.4372 6.20508 69.7334 6.54688C70.0296 6.88411 70.2552 7.28288 70.4102 7.74316C70.5651 8.19889 70.6426 8.69336 70.6426 9.22656V9.38379C70.6426 9.91699 70.5651 10.4115 70.4102 10.8672C70.2552 11.3229 70.0296 11.7217 69.7334 12.0635C69.4372 12.4007 69.0771 12.665 68.6533 12.8564C68.2295 13.0433 67.7487 13.1367 67.2109 13.1367C66.6686 13.1367 66.1833 13.0433 65.7549 12.8564C65.3311 12.665 64.971 12.4007 64.6748 12.0635C64.3786 11.7217 64.153 11.3229 63.998 10.8672C63.8431 10.4115 63.7656 9.91699 63.7656 9.38379ZM65.4131 9.22656V9.38379C65.4131 9.71647 65.4473 10.0309 65.5156 10.3271C65.584 10.6234 65.6911 10.8831 65.8369 11.1064C65.9827 11.3298 66.1696 11.5052 66.3975 11.6328C66.6253 11.7604 66.8965 11.8242 67.2109 11.8242C67.5163 11.8242 67.7806 11.7604 68.0039 11.6328C68.2318 11.5052 68.4186 11.3298 68.5645 11.1064C68.7103 10.8831 68.8174 10.6234 68.8857 10.3271C68.9587 10.0309 68.9951 9.71647 68.9951 9.38379V9.22656C68.9951 8.89844 68.9587 8.58854 68.8857 8.29688C68.8174 8.00065 68.708 7.73861 68.5576 7.51074C68.4118 7.28288 68.2249 7.10514 67.9971 6.97754C67.7738 6.84538 67.5072 6.7793 67.1973 6.7793C66.8874 6.7793 66.6185 6.84538 66.3906 6.97754C66.1673 7.10514 65.9827 7.28288 65.8369 7.51074C65.6911 7.73861 65.584 8.00065 65.5156 8.29688C65.4473 8.58854 65.4131 8.89844 65.4131 9.22656ZM74.3203 11.6943L76.1318 5.60352H77.8408L75.2705 13H74.2041L74.3203 11.6943ZM72.9326 5.60352L74.7783 11.7217L74.8672 13H73.8008L71.2168 5.60352H72.9326ZM80.623 5.60352V13H78.9688V5.60352H80.623ZM78.8594 3.66211C78.8594 3.41146 78.9414 3.2041 79.1055 3.04004C79.2741 2.87142 79.5065 2.78711 79.8027 2.78711C80.0944 2.78711 80.3245 2.87142 80.4932 3.04004C80.6618 3.2041 80.7461 3.41146 80.7461 3.66211C80.7461 3.9082 80.6618 4.11328 80.4932 4.27734C80.3245 4.44141 80.0944 4.52344 79.8027 4.52344C79.5065 4.52344 79.2741 4.44141 79.1055 4.27734C78.9414 4.11328 78.8594 3.9082 78.8594 3.66211ZM86.5771 10.9971C86.5771 10.833 86.5361 10.6849 86.4541 10.5527C86.3721 10.416 86.2148 10.293 85.9824 10.1836C85.7546 10.0742 85.4173 9.97396 84.9707 9.88281C84.5788 9.79622 84.2188 9.69368 83.8906 9.5752C83.5671 9.45215 83.2891 9.30404 83.0566 9.13086C82.8242 8.95768 82.6442 8.7526 82.5166 8.51562C82.389 8.27865 82.3252 8.00521 82.3252 7.69531C82.3252 7.39453 82.3913 7.1097 82.5234 6.84082C82.6556 6.57194 82.8447 6.33496 83.0908 6.12988C83.3369 5.9248 83.6354 5.76302 83.9863 5.64453C84.3418 5.52604 84.7383 5.4668 85.1758 5.4668C85.7956 5.4668 86.3265 5.57161 86.7686 5.78125C87.2152 5.98633 87.557 6.2666 87.7939 6.62207C88.0309 6.97298 88.1494 7.36947 88.1494 7.81152H86.502C86.502 7.61556 86.4518 7.43327 86.3516 7.26465C86.2559 7.09147 86.11 6.95247 85.9141 6.84766C85.7181 6.73828 85.472 6.68359 85.1758 6.68359C84.8932 6.68359 84.6585 6.72917 84.4717 6.82031C84.2894 6.9069 84.1527 7.02083 84.0615 7.16211C83.9749 7.30339 83.9316 7.45833 83.9316 7.62695C83.9316 7.75 83.9544 7.86165 84 7.96191C84.0501 8.05762 84.1322 8.14648 84.2461 8.22852C84.36 8.30599 84.515 8.37891 84.7109 8.44727C84.9115 8.51562 85.1621 8.58171 85.4629 8.64551C86.028 8.764 86.5133 8.91667 86.9189 9.10352C87.3291 9.28581 87.6436 9.52279 87.8623 9.81445C88.0811 10.1016 88.1904 10.4661 88.1904 10.9082C88.1904 11.2363 88.1198 11.5371 87.9785 11.8105C87.8418 12.0794 87.6413 12.3141 87.377 12.5146C87.1126 12.7106 86.7959 12.8633 86.4268 12.9727C86.0622 13.082 85.652 13.1367 85.1963 13.1367C84.5264 13.1367 83.959 13.0182 83.4941 12.7812C83.0293 12.5397 82.6761 12.2321 82.4346 11.8584C82.1976 11.4801 82.0791 11.0882 82.0791 10.6826H83.6719C83.6901 10.988 83.7744 11.2318 83.9248 11.4141C84.0798 11.5918 84.2712 11.7217 84.499 11.8037C84.7314 11.8812 84.9707 11.9199 85.2168 11.9199C85.513 11.9199 85.7614 11.8812 85.9619 11.8037C86.1624 11.7217 86.3151 11.6123 86.4199 11.4756C86.5247 11.3343 86.5771 11.1748 86.5771 10.9971ZM91.3965 5.60352V13H89.7422V5.60352H91.3965ZM89.6328 3.66211C89.6328 3.41146 89.7148 3.2041 89.8789 3.04004C90.0475 2.87142 90.2799 2.78711 90.5762 2.78711C90.8678 2.78711 91.098 2.87142 91.2666 3.04004C91.4352 3.2041 91.5195 3.41146 91.5195 3.66211C91.5195 3.9082 91.4352 4.11328 91.2666 4.27734C91.098 4.44141 90.8678 4.52344 90.5762 4.52344C90.2799 4.52344 90.0475 4.44141 89.8789 4.27734C89.7148 4.11328 89.6328 3.9082 89.6328 3.66211ZM92.8867 9.38379V9.22656C92.8867 8.69336 92.9642 8.19889 93.1191 7.74316C93.2741 7.28288 93.4974 6.88411 93.7891 6.54688C94.0853 6.20508 94.4453 5.94076 94.8691 5.75391C95.2975 5.5625 95.7806 5.4668 96.3184 5.4668C96.8607 5.4668 97.3438 5.5625 97.7676 5.75391C98.196 5.94076 98.5583 6.20508 98.8545 6.54688C99.1507 6.88411 99.3763 7.28288 99.5312 7.74316C99.6862 8.19889 99.7637 8.69336 99.7637 9.22656V9.38379C99.7637 9.91699 99.6862 10.4115 99.5312 10.8672C99.3763 11.3229 99.1507 11.7217 98.8545 12.0635C98.5583 12.4007 98.1982 12.665 97.7744 12.8564C97.3506 13.0433 96.8698 13.1367 96.332 13.1367C95.7897 13.1367 95.3044 13.0433 94.876 12.8564C94.4521 12.665 94.0921 12.4007 93.7959 12.0635C93.4997 11.7217 93.2741 11.3229 93.1191 10.8672C92.9642 10.4115 92.8867 9.91699 92.8867 9.38379ZM94.5342 9.22656V9.38379C94.5342 9.71647 94.5684 10.0309 94.6367 10.3271C94.7051 10.6234 94.8122 10.8831 94.958 11.1064C95.1038 11.3298 95.2907 11.5052 95.5186 11.6328C95.7464 11.7604 96.0176 11.8242 96.332 11.8242C96.6374 11.8242 96.9017 11.7604 97.125 11.6328C97.3529 11.5052 97.5397 11.3298 97.6855 11.1064C97.8314 10.8831 97.9385 10.6234 98.0068 10.3271C98.0798 10.0309 98.1162 9.71647 98.1162 9.38379V9.22656C98.1162 8.89844 98.0798 8.58854 98.0068 8.29688C97.9385 8.00065 97.8291 7.73861 97.6787 7.51074C97.5329 7.28288 97.346 7.10514 97.1182 6.97754C96.8949 6.84538 96.6283 6.7793 96.3184 6.7793C96.0085 6.7793 95.7396 6.84538 95.5117 6.97754C95.2884 7.10514 95.1038 7.28288 94.958 7.51074C94.8122 7.73861 94.7051 8.00065 94.6367 8.29688C94.5684 8.58854 94.5342 8.89844 94.5342 9.22656ZM102.778 7.18262V13H101.131V5.60352H102.683L102.778 7.18262ZM102.484 9.02832L101.951 9.02148C101.956 8.4974 102.029 8.0166 102.17 7.5791C102.316 7.1416 102.516 6.76562 102.771 6.45117C103.031 6.13672 103.341 5.89518 103.701 5.72656C104.061 5.55339 104.462 5.4668 104.904 5.4668C105.26 5.4668 105.581 5.51693 105.868 5.61719C106.16 5.71289 106.408 5.87012 106.613 6.08887C106.823 6.30762 106.982 6.59245 107.092 6.94336C107.201 7.28971 107.256 7.71582 107.256 8.22168V13H105.602V8.21484C105.602 7.85938 105.549 7.5791 105.444 7.37402C105.344 7.16439 105.196 7.01628 105 6.92969C104.809 6.83854 104.569 6.79297 104.282 6.79297C104 6.79297 103.747 6.85221 103.523 6.9707C103.3 7.08919 103.111 7.25098 102.956 7.45605C102.806 7.66113 102.689 7.89811 102.607 8.16699C102.525 8.43587 102.484 8.72298 102.484 9.02832Z" fill="url(#paint0_linear_6532_528)"/>
<defs>
<linearGradient id="paint0_linear_6532_528" x1="2" y1="0.999997" x2="95.5" y2="0.499997" gradientUnits="userSpaceOnUse">
<stop stop-color="#0AE4BC"/>
<stop offset="0.333333" stop-color="#06BDF3"/>
<stop offset="0.666667" stop-color="#7C47BE"/>
<stop offset="1" stop-color="#EE3E1C"/>
</linearGradient>
</defs>
</svg>
