<svg width="205" height="496" viewBox="0 0 205 496" fill="none" xmlns="http://www.w3.org/2000/svg">
<path d="M63.2429 288.637C63.2429 288.637 63.2429 288.525 63.2429 288.412C63.2429 288.299 63.1866 288.243 63.1866 288.13C63.2429 288.468 63.2429 288.637 63.2429 288.637Z" fill="#F8E0D8"/>
<path d="M62.6796 288.694V288.187L63.8062 288.018L63.8625 288.356L63.8062 288.694H62.6796Z" fill="white"/>
<path d="M203.501 250.856C203.388 249.786 201.022 249.166 199.22 247.196C197.473 245.281 194.995 242.748 192.573 238.694C191.615 237.061 189.249 234.808 186.996 233.908C184.743 233.007 182.039 232.5 181.701 231.993C181.364 231.486 179.561 226.025 178.829 223.716C178.153 221.351 176.181 213.243 175.393 209.414C174.379 204.685 167.507 164.932 166.549 163.525C166.38 163.243 165.817 161.047 165.254 158.57C163.282 137.398 161.198 122.703 161.198 122.703C161.198 122.703 158.72 111.667 157.875 107.106C155.34 93.2544 150.101 85.1462 138.554 83.4571L121.43 80.0787C116.248 79.0652 112.474 74.5044 112.474 69.2116V47.1958H92.759V69.3242C92.759 74.617 88.985 79.1778 83.8027 80.1913L66.6226 83.5697C55.3569 85.2589 49.8367 93.367 47.302 107.218C46.457 111.779 43.9786 122.815 43.9786 122.815C43.9786 122.815 38.8527 147.252 37.1065 169.437C36.9375 170.169 30.5161 201.926 29.5022 206.655C28.6572 210.428 26.7421 218.592 26.0661 220.957C25.3902 223.322 23.5314 228.727 23.1934 229.234C22.8554 229.741 20.208 230.248 17.8985 231.148C15.6454 232.049 13.2796 234.302 12.322 235.935C9.89989 239.932 7.42143 242.466 5.67525 244.437C3.92907 246.351 1.5633 247.027 1.39431 248.097C1.28165 249.167 1.95759 249.448 2.46455 249.561C3.25314 249.786 4.99932 249.392 6.06956 248.998C7.87207 248.266 9.33661 247.027 9.78724 246.576C11.4771 244.944 12.5473 243.029 13.1106 243.367C13.6739 243.705 13.8992 247.759 13.8992 248.885C14.0119 251.362 13.8992 252.714 13.7866 256.824C13.7302 259.414 13.7302 260.259 13.5612 262.962C13.5049 264.031 13.3923 266.847 13.2233 268.874C13.1106 270.901 12.8853 275.067 12.8853 275.968C12.8853 276.926 13.1669 277.77 13.8992 277.883C14.6315 277.995 14.8005 277.714 15.0258 276.926C15.1948 276.306 15.6454 274.673 15.927 272.703C16.4903 269.043 16.7156 266.565 16.8283 265.889C16.9409 265.214 17.5042 260.09 18.3491 260.315C19.1941 260.54 19.0814 260.709 19.1378 261.498C19.1378 262.286 18.7434 264.707 18.4618 266.959C18.3492 268.029 17.8985 270.563 17.7859 271.633C17.6732 272.703 16.5466 277.263 16.434 278.052C16.3213 278.84 16.2087 279.685 17.3916 279.966C18.5181 280.248 18.8561 278.727 19.1941 277.32C19.532 275.856 21.0529 270 21.3909 268.536C21.7289 267.072 22.4611 261.554 23.4187 261.61C23.982 261.61 23.813 262.624 23.813 263.412C23.813 264.2 23.0807 268.874 22.6301 270.563C22.1795 272.252 20.4333 277.714 20.4333 278.784C20.4333 279.853 21.4472 279.91 21.8978 279.628C22.7991 279.065 23.0807 277.939 23.9257 276.137C24.7706 274.335 25.6718 271.182 26.1225 269.493C26.7421 267.241 27.8687 262.117 28.3756 261.892C29.1642 261.498 29.4458 262.061 29.5022 262.511C29.5585 262.905 29.1642 266.171 28.4319 270C28.094 271.858 27.3617 275.236 27.3054 275.799C27.249 276.306 27.0237 277.432 28.3756 277.432C29.2769 277.432 29.8401 275.462 30.0091 274.504C30.5161 272.027 31.023 270.169 31.2484 269.38C31.4737 268.592 32.9382 263.299 32.9382 263.299C32.9382 263.299 34.6281 257.669 35.1913 254.516C35.9799 250.574 36.7685 246.013 37.1065 241.621C37.2192 240.552 37.2755 238.412 37.3881 237.567C38.0641 232.5 40.3735 228.84 41.7818 225.968C45.2741 218.986 47.4146 214.031 49.2171 210.259C51.4139 205.642 53.2727 195.056 54.2867 190.101C55.6949 183.401 57.441 180.473 58.0607 174.279C61.4967 154.459 68.3124 119.099 68.3124 119.099L76.987 181.824C76.987 181.824 64.9327 191.959 59.8069 215.833C60.0322 216.058 53.667 245.45 61.722 280.473C62.5106 284.865 63.3555 287.23 63.2992 288.468C63.8061 291.227 64.3131 293.874 64.8201 296.464H64.8764C69.7207 320.056 73.4383 337.061 73.551 342.579C73.7763 351.194 65.9466 363.919 66.7916 381.993C67.6365 400.067 79.9161 439.932 81.4369 453.389C81.6059 454.797 81.7186 456.148 81.8876 457.387C82.0565 458.851 82.6199 469.606 82.0566 474.898C81.0427 483.795 74.5086 483.57 72.3681 488.694C72.0301 489.482 72.0301 494.493 73.9453 494.493C77.0433 494.493 84.7603 494.493 89.8862 494.437C96.7583 494.324 97.7722 489.932 97.9975 486.498C98.1102 484.527 95.4627 476.362 97.6595 468.705C99.969 460.709 92.1957 455.754 96.9836 422.928C102.447 385.709 99.631 383.007 97.6032 362.905C94.6741 334.414 98.9551 343.254 100.476 313.018C100.927 303.953 101.321 295.788 101.603 288.468H101.546C102.56 262.624 102.616 248.153 102.616 248.153V247.477V248.153C102.616 248.153 102.673 262.624 103.687 288.468H103.63C103.912 295.788 104.25 303.953 104.757 313.018C106.278 343.254 110.559 334.414 107.63 362.905C105.602 383.007 102.785 385.766 108.249 422.928C113.094 455.754 105.264 460.709 107.573 468.705C109.826 476.362 107.123 484.527 107.235 486.498C107.461 489.932 108.475 494.38 115.347 494.437C120.473 494.493 128.19 494.493 131.288 494.493C133.203 494.493 133.203 489.482 132.865 488.694C130.724 483.57 124.528 483.964 123.176 474.898C122.388 469.662 123.176 458.851 123.345 457.387C123.458 456.148 123.627 454.797 123.796 453.389C125.373 439.932 137.596 400.067 138.441 381.993C139.286 363.919 131.457 351.194 131.682 342.579C131.795 337.061 135.512 320.056 140.356 296.464H140.413C140.582 295.788 141.258 290.608 141.877 288.75C141.877 288.581 148.299 238.806 148.468 238.637C148.693 229.459 145.482 217.016 145.651 216.79C140.694 192.241 128.302 181.88 128.302 181.88L136.977 119.155C136.977 119.155 143.68 145.338 147.285 166.34C147.623 168.705 148.13 171.971 148.693 175.574C148.975 177.77 149.2 179.797 149.369 181.655C149.482 181.655 149.932 189.538 150.665 192.917C151.678 197.871 153.537 208.457 155.734 213.074C157.537 216.847 159.677 221.858 163.169 228.784C164.634 231.655 166.887 235.315 167.563 240.383C167.676 241.171 167.732 243.311 167.845 244.38C168.183 248.772 169.028 253.333 169.76 257.275C170.379 260.428 172.013 266.058 172.013 266.058C172.013 266.058 173.478 271.351 173.703 272.139C173.928 272.928 174.435 274.842 174.942 277.263C175.167 278.277 175.674 280.191 176.576 280.191C177.984 280.248 177.758 279.121 177.646 278.558C177.59 278.052 176.857 274.617 176.519 272.759C175.787 268.986 175.393 265.721 175.449 265.27C175.505 264.876 175.731 264.257 176.576 264.651C177.026 264.876 178.153 270 178.829 272.252C179.336 273.941 180.181 277.094 181.026 278.896C181.87 280.698 182.152 281.824 183.053 282.387C183.504 282.669 184.518 282.612 184.518 281.543C184.518 280.473 182.772 275.011 182.321 273.322C181.87 271.633 181.138 266.959 181.138 266.171C181.138 265.383 180.969 264.369 181.533 264.369C182.434 264.369 183.222 269.831 183.56 271.295C183.898 272.759 185.419 278.615 185.757 280.079C186.095 281.543 186.433 283.063 187.56 282.725C188.686 282.444 188.63 281.599 188.517 280.811C188.405 280.022 187.334 275.462 187.165 274.392C187.053 273.322 186.602 270.788 186.489 269.718C186.208 267.466 185.813 265.045 185.813 264.257C185.813 263.468 185.757 263.243 186.602 263.074C187.447 262.849 188.067 267.973 188.123 268.648C188.236 269.324 188.461 271.802 189.024 275.462C189.306 277.489 189.756 279.065 189.925 279.685C190.151 280.473 190.32 280.698 191.052 280.642C191.784 280.529 192.066 279.685 192.066 278.727C192.066 277.77 191.897 273.603 191.728 271.633C191.615 269.606 191.446 266.79 191.39 265.721C191.221 263.074 191.277 262.173 191.165 259.583C191.052 255.473 190.939 254.121 191.052 251.644C191.108 250.518 191.277 246.464 191.841 246.126C192.404 245.788 193.474 247.759 195.164 249.335C195.671 249.786 197.079 251.025 198.882 251.757C199.952 252.151 201.698 252.545 202.487 252.32C202.937 252.207 203.613 251.926 203.501 250.856Z" fill="#F8E0D8"/>
<path d="M128.133 495.056C124.528 495.056 119.233 495.056 115.29 495C107.968 494.887 106.841 490.101 106.616 486.498C106.559 485.878 106.728 484.921 106.954 483.626C107.573 480.135 108.531 474.336 106.954 468.818C106.052 465.721 106.616 463.074 107.348 459.358C108.644 453.052 110.615 443.536 107.573 422.928C103.123 392.748 104.137 385.203 105.771 372.703C106.165 369.831 106.559 366.565 106.954 362.736C108.644 346.182 107.911 342.297 106.728 335.935C105.827 331.318 104.757 325.518 104.081 312.905C103.63 304.572 103.292 296.295 102.954 288.356V287.793H103.011C102.842 283.007 102.673 278.558 102.56 274.561C102.447 278.558 102.278 282.95 102.109 287.793V288.356C101.772 296.295 101.434 304.572 100.983 312.905C100.363 325.518 99.2367 331.261 98.3355 335.935C97.0962 342.297 96.364 346.126 98.1102 362.736C98.5045 366.565 98.8988 369.831 99.2931 372.703C100.927 385.203 101.884 392.748 97.4905 422.928C94.4488 443.536 96.4203 453.052 97.7159 459.358C98.4481 463.074 99.0114 465.721 98.1102 468.818C96.533 474.336 97.4906 480.135 98.1102 483.626C98.3355 484.977 98.5045 485.935 98.4481 486.498C98.2228 490.101 97.0962 494.887 89.7735 495C84.366 495.056 76.4237 495.056 73.8326 495.056C73.4383 495.056 72.8751 494.887 72.3681 494.212C71.3542 492.691 71.4105 489.313 71.6921 488.468C72.5934 486.272 74.2269 485.034 75.8605 483.739C78.2826 481.881 80.761 479.91 81.3243 474.786C81.9439 469.55 81.3243 458.851 81.1553 457.387C81.0427 456.149 80.8737 454.797 80.7047 453.39C80.0851 447.872 77.663 438.131 74.9029 426.869C70.9599 410.822 66.5099 392.635 66.0593 381.937C65.5524 371.013 68.1998 362.004 70.3403 354.741C71.7485 349.955 72.9314 345.845 72.875 342.522C72.7624 337.962 70.115 325.18 66.4536 307.5C65.7777 304.178 65.0454 300.631 64.2568 296.971L64.1441 296.52C63.6372 294.043 63.1302 291.34 62.6233 288.525V288.468V288.412C62.6233 287.793 62.398 286.836 62.1163 285.484C61.8347 284.189 61.4404 282.613 61.1024 280.529C57.8917 266.509 54.9063 244.155 59.0183 217.128C59.0746 216.678 59.1309 216.284 59.1872 216.002L59.1309 215.946L59.1872 215.664C63.1866 196.971 71.9738 185.372 76.3111 181.599L68.1435 122.534C66.341 131.824 61.3277 158.345 58.5676 174.392C58.2297 178.052 57.4411 180.586 56.5961 183.457C55.9765 185.428 55.3569 187.511 54.7936 190.214C54.6246 191.058 54.3993 192.072 54.174 193.198C53.1038 198.547 51.5266 206.599 49.6678 210.484C49.1045 211.667 48.4849 212.962 47.8652 214.426C46.457 217.579 44.6545 221.464 42.2324 226.25C42.0071 226.7 41.7254 227.207 41.5001 227.714C40.1482 230.304 38.4584 233.513 37.8951 237.68C37.8388 238.131 37.7825 239.088 37.7261 240.045C37.6698 240.664 37.6698 241.284 37.6135 241.678C37.2755 246.126 36.4306 250.743 35.6983 254.628C35.0787 257.781 33.5015 263.243 33.3888 263.468C33.3325 263.694 31.9243 268.761 31.699 269.549C31.4173 270.507 30.9104 272.421 30.4598 274.673C30.0091 276.869 29.2769 278.052 28.263 278.052C27.6433 278.052 27.1927 277.883 26.9111 277.545C26.4604 277.038 26.5168 276.306 26.5731 275.856V275.799C26.6294 275.518 26.7984 274.617 27.0801 273.097C27.3054 272.027 27.5307 270.788 27.6997 269.944C28.4883 265.833 28.8262 263.018 28.7699 262.68C28.7136 262.455 28.6573 262.399 28.6573 262.399C28.6573 262.399 28.6009 262.399 28.5446 262.455C28.263 263.018 27.587 265.608 27.1927 267.241C26.9674 268.198 26.7421 269.099 26.5168 269.718L26.4041 270.113C25.8972 271.971 25.1086 274.73 24.2636 276.419C24.0383 276.869 23.8693 277.263 23.7003 277.658C23.1934 278.784 22.7991 279.628 22.0105 280.135C21.6162 280.36 20.9403 280.473 20.377 280.191C20.0953 280.022 19.6447 279.685 19.6447 278.84C19.6447 277.995 20.4333 275.349 21.3346 272.196C21.5599 271.464 21.7289 270.845 21.8415 270.45C22.2921 268.761 23.0244 264.2 23.0244 263.468C23.0244 263.299 23.0244 263.074 23.0244 262.905C23.0244 262.849 23.0244 262.793 23.0244 262.736C22.5738 263.919 22.1232 266.396 21.9542 267.466C21.8415 267.973 21.7852 268.423 21.7289 268.705C21.5599 269.437 21.1092 271.182 20.6586 273.097C20.208 274.899 19.701 276.757 19.5884 277.489C19.3067 278.671 19.0814 279.966 18.2365 280.417C17.8985 280.642 17.5042 280.698 17.0536 280.586C15.4201 280.135 15.5891 278.84 15.7017 278.052C15.7581 277.658 15.9834 276.531 16.3213 275.18C16.6593 273.772 16.9973 272.196 17.0536 271.633C17.1099 271.07 17.2789 270.113 17.3916 269.212C17.5042 268.311 17.6732 267.466 17.7296 266.959C17.8422 266.284 17.8985 265.552 18.0112 264.932C18.2365 263.468 18.4055 262.117 18.4055 261.61V261.441C18.4055 261.329 18.4055 261.16 18.4055 261.047C18.4055 261.047 18.3492 261.047 18.2928 260.991C18.1239 261.272 17.7295 262.342 17.2789 265.89V266.058C17.2789 266.227 17.2226 266.453 17.1663 266.847C17.0536 267.973 16.772 270.113 16.3777 272.872C16.0397 275.067 15.5891 276.757 15.4764 277.207C15.2511 278.052 14.9131 278.727 13.7302 278.558C12.7727 278.446 12.2094 277.545 12.2094 276.137C12.2094 275.18 12.3783 271.07 12.5473 268.986C12.6037 267.748 12.7163 266.284 12.7726 265.045C12.829 264.257 12.829 263.525 12.8853 263.131C12.998 261.441 12.998 260.428 13.0543 259.302C13.0543 258.682 13.0543 257.95 13.1106 257.049L13.1669 255.079C13.2796 252.376 13.2796 251.194 13.2233 249.167C13.1106 246.182 12.8853 244.775 12.7163 244.268C12.491 244.493 12.0967 244.944 11.7587 245.338C11.3081 245.901 10.6885 246.633 10.0126 247.252C9.61826 247.646 8.09739 248.998 6.06957 249.786C5.05566 250.18 3.08416 250.687 2.07025 250.349C1.67595 250.236 0.380395 249.842 0.605708 248.266C0.718365 247.421 1.50698 246.914 2.52089 246.295C3.30948 245.788 4.21074 245.169 5.05566 244.324L5.61895 243.705C7.36513 241.847 9.5056 239.482 11.6461 235.935C12.66 234.245 15.0821 231.881 17.5042 230.923C18.5181 230.529 19.5884 230.191 20.546 229.91C21.3909 229.685 22.4048 229.347 22.5738 229.178C22.8554 228.727 24.6016 223.491 25.3339 221.07C26.0662 218.649 27.9813 210.484 28.7699 206.824C29.5585 203.221 33.4452 184.02 35.3603 174.786C35.9236 171.914 36.3179 169.944 36.4306 169.662C38.1767 147.703 43.2463 123.266 43.3026 122.984C43.3026 122.872 45.7811 111.892 46.626 107.387C49.3861 92.3535 55.4696 84.9211 66.4536 83.2882L83.6338 79.9098C88.5343 78.9526 92.1393 74.617 92.1393 69.6058V46.6328H112.981V69.3243C112.981 74.3355 116.53 78.6711 121.486 79.6283L138.61 83.0067C149.707 84.5833 155.621 91.7905 158.438 107.106C159.283 111.61 161.761 122.59 161.761 122.703C161.818 122.872 163.845 137.68 165.817 158.57C166.436 161.441 166.887 163.074 167 163.299C167.563 164.144 169.535 174.392 173.365 195.563C174.548 202.095 175.562 207.781 175.956 209.358C176.745 213.018 178.716 221.182 179.392 223.604C180.124 226.194 181.927 231.317 182.152 231.768C182.321 231.881 183.335 232.218 184.124 232.444C185.081 232.725 186.151 233.063 187.165 233.457C189.587 234.471 192.01 236.779 193.024 238.468C195.164 242.016 197.304 244.324 199.051 246.239L199.614 246.858C200.403 247.703 201.304 248.322 202.149 248.829C203.163 249.504 203.951 250.011 204.064 250.799C204.289 252.376 202.994 252.77 202.599 252.883C201.585 253.221 199.614 252.714 198.6 252.32C196.572 251.531 195.108 250.18 194.657 249.786C193.981 249.167 193.418 248.435 192.911 247.872C192.573 247.477 192.235 247.027 191.953 246.802C191.784 247.308 191.559 248.716 191.446 251.7C191.39 253.727 191.39 254.966 191.503 257.613L191.559 259.583C191.615 260.484 191.615 261.216 191.615 261.836C191.615 262.962 191.672 263.975 191.784 265.664C191.784 266.115 191.841 266.79 191.897 267.579C191.953 268.818 192.01 270.338 192.122 271.52C192.235 273.604 192.46 277.714 192.46 278.671C192.46 280.079 191.897 280.98 190.939 281.092C189.756 281.261 189.418 280.586 189.193 279.741C189.08 279.29 188.63 277.658 188.292 275.405C187.898 272.59 187.616 270.507 187.503 269.381C187.447 269.043 187.447 268.761 187.391 268.592V268.423C186.94 264.876 186.546 263.806 186.377 263.525C186.32 263.525 186.264 263.581 186.264 263.581C186.264 263.637 186.264 263.806 186.264 263.975V264.144C186.264 264.651 186.433 266.058 186.658 267.466C186.771 268.142 186.827 268.817 186.94 269.493C186.996 270 187.165 270.845 187.278 271.745C187.447 272.703 187.56 273.66 187.616 274.167C187.672 274.73 188.067 276.306 188.348 277.714C188.63 279.065 188.912 280.191 188.968 280.586C189.081 281.374 189.249 282.725 187.616 283.119C187.222 283.232 186.771 283.176 186.433 282.95C185.644 282.444 185.363 281.205 185.081 280.022C184.912 279.29 184.462 277.432 184.011 275.631C183.56 273.772 183.11 271.971 182.941 271.239C182.884 270.957 182.828 270.507 182.715 270C182.546 268.93 182.096 266.453 181.645 265.27C181.645 265.327 181.645 265.383 181.645 265.439C181.645 265.608 181.645 265.833 181.645 266.002C181.645 266.734 182.321 271.295 182.828 272.984C182.941 273.378 183.11 273.998 183.335 274.73C184.293 277.883 185.025 280.529 185.025 281.374C185.025 282.218 184.574 282.613 184.293 282.725C183.729 283.007 183.053 282.95 182.659 282.669C181.87 282.162 181.476 281.317 180.969 280.191C180.8 279.797 180.631 279.403 180.406 278.953C179.561 277.263 178.772 274.448 178.265 272.646L178.153 272.252C177.984 271.577 177.758 270.676 177.477 269.775C177.083 268.198 176.407 265.552 176.125 264.989C176.069 264.932 176.012 264.932 175.956 264.932C175.956 264.932 175.9 264.989 175.9 265.214C175.843 265.552 176.181 268.367 176.97 272.477C177.139 273.322 177.364 274.561 177.59 275.631C177.871 277.095 178.096 277.995 178.096 278.277V278.333C178.153 278.784 178.265 279.516 177.758 280.022C177.477 280.36 177.026 280.529 176.407 280.529C175.393 280.529 174.66 279.347 174.21 277.151C173.759 274.955 173.252 273.04 172.971 272.027C172.745 271.239 171.337 266.171 171.281 265.946C171.224 265.721 169.591 260.259 168.971 257.106C168.239 253.221 167.394 248.604 167.056 244.155C167 243.705 167 243.142 166.943 242.522C166.887 241.622 166.831 240.664 166.774 240.158C166.211 235.991 164.521 232.781 163.169 230.191C162.888 229.685 162.662 229.178 162.437 228.727C160.015 223.941 158.269 220.056 156.804 216.903C156.128 215.439 155.565 214.144 155.002 212.962C153.143 209.077 151.566 201.025 150.496 195.676C150.27 194.549 150.045 193.536 149.876 192.691C149.425 190.439 149.031 186.441 148.806 183.739C148.749 183.007 148.693 182.275 148.637 181.881H148.58L148.524 181.374C148.411 179.628 148.186 177.545 147.848 175.349C147.229 171.408 146.722 168.311 146.44 166.115C143.567 149.336 138.667 129.122 136.808 121.802L128.528 181.374C132.977 185.259 141.99 197.196 145.877 216.453L145.933 216.678V216.734C145.989 217.016 146.102 217.579 146.215 218.254C147.003 222.14 148.918 231.261 148.749 238.468V238.637L148.693 238.694C148.299 240.89 144.356 271.802 142.835 283.57C142.215 288.299 142.159 288.637 142.159 288.694V288.75C141.708 290.101 141.201 293.367 140.92 295.169C140.807 295.788 140.751 296.182 140.694 296.351L140.582 296.802H140.525C139.793 300.462 139.061 304.009 138.329 307.331C134.667 325.011 132.02 337.793 131.907 342.41C131.851 345.788 133.034 349.899 134.442 354.628C136.582 361.892 139.174 370.901 138.723 381.824C138.216 392.522 133.766 410.709 129.879 426.757C127.119 438.018 124.753 447.815 124.078 453.277C123.909 454.685 123.796 456.036 123.627 457.275C123.458 458.739 122.726 469.55 123.458 474.673C124.247 479.91 126.669 481.824 129.034 483.682C130.668 484.977 132.189 486.16 133.09 488.356C133.428 489.144 133.484 492.522 132.414 494.099C131.964 494.831 131.344 494.944 130.95 494.944C130.555 495.056 129.485 495.056 128.133 495.056ZM104.137 288.975C104.419 296.745 104.813 304.797 105.208 312.962C105.827 325.518 106.954 331.205 107.799 335.822C109.038 342.297 109.77 346.182 108.08 362.905C107.686 366.734 107.235 370 106.897 372.872C105.264 385.259 104.306 392.748 108.7 422.759C111.742 443.592 109.77 453.164 108.475 459.527C107.742 463.187 107.235 465.608 108.024 468.423C109.714 474.167 108.7 480.135 108.08 483.739C107.855 484.977 107.686 485.935 107.742 486.385C107.968 489.989 109.038 493.761 115.29 493.818C120.698 493.874 128.64 493.874 131.231 493.874C131.288 493.874 131.513 493.874 131.738 493.536C132.527 492.354 132.47 489.313 132.301 488.863C131.513 486.948 130.105 485.822 128.584 484.64C126.162 482.725 123.458 480.586 122.613 474.899C121.824 469.662 122.557 459.02 122.726 457.218C122.838 455.98 123.007 454.628 123.176 453.221C123.796 447.646 126.218 437.849 128.978 426.531C132.921 410.54 137.315 392.41 137.822 381.824C138.329 371.07 135.681 362.173 133.597 355.022C132.189 350.18 130.95 345.957 131.062 342.41C131.175 337.736 133.822 324.899 137.484 307.162C138.216 303.671 138.948 300.011 139.737 296.182L139.85 295.732C139.906 295.563 139.906 295.281 139.962 295.056C140.244 293.142 140.751 289.932 141.258 288.525C141.314 288.243 141.539 286.385 141.934 283.513C146.722 246.408 147.623 239.82 147.848 238.525C148.017 231.43 146.158 222.421 145.37 218.592C145.144 217.466 145.032 217.016 145.032 216.734C141.145 197.534 132.076 185.766 127.852 182.218L127.626 181.993L127.683 181.712L136.751 116.171L137.484 118.93C137.54 119.212 144.243 145.338 147.792 166.171C148.073 168.367 148.58 171.52 149.2 175.405C149.482 177.658 149.707 179.741 149.876 181.543C149.932 181.937 150.045 182.669 150.101 183.908C150.327 186.554 150.665 190.552 151.115 192.691C151.284 193.536 151.509 194.549 151.735 195.676C152.805 200.968 154.382 208.964 156.185 212.736C156.748 213.919 157.368 215.214 157.987 216.678C159.395 219.775 161.198 223.66 163.564 228.446C163.789 228.896 164.071 229.403 164.296 229.854C165.704 232.5 167.45 235.822 168.014 240.214C168.07 240.721 168.126 241.678 168.183 242.635C168.239 243.254 168.239 243.818 168.295 244.268C168.633 248.66 169.478 253.221 170.211 257.106C170.83 260.203 172.464 265.777 172.464 265.833C172.464 265.89 173.928 271.126 174.153 271.914C174.435 272.872 174.942 274.842 175.393 277.095C175.787 278.953 176.294 279.572 176.519 279.572C176.745 279.572 176.914 279.516 177.026 279.459C177.139 279.29 177.083 278.896 177.083 278.671V278.558C177.026 278.277 176.801 277.151 176.576 275.968C176.35 274.899 176.125 273.66 175.956 272.815C175.336 269.606 174.773 265.777 174.886 265.158C174.998 264.482 175.336 264.2 175.562 264.031C175.787 263.919 176.238 263.806 176.801 264.144C177.252 264.369 177.59 265.27 178.66 269.606C178.885 270.563 179.11 271.408 179.279 272.083L179.392 272.477C179.899 274.167 180.688 277.038 181.476 278.615C181.702 279.065 181.87 279.516 182.039 279.854C182.49 280.867 182.772 281.543 183.335 281.881C183.448 281.937 183.673 281.993 183.786 281.881C183.842 281.881 183.898 281.824 183.898 281.486C183.898 280.754 182.828 277.263 182.208 275.18C181.983 274.448 181.814 273.829 181.701 273.378C181.195 271.633 180.462 266.959 180.519 266.058C180.519 265.89 180.519 265.721 180.519 265.552C180.519 264.932 180.462 264.369 180.857 263.975C181.026 263.806 181.251 263.694 181.476 263.694C182.49 263.637 183.053 265.495 183.842 269.887C183.955 270.394 184.011 270.788 184.067 271.07C184.236 271.802 184.687 273.604 185.138 275.405C185.588 277.207 186.095 279.122 186.208 279.854C186.377 280.698 186.658 281.824 187.053 282.106C187.109 282.162 187.165 282.162 187.334 282.106C187.954 281.937 188.01 281.712 187.898 280.754C187.841 280.417 187.56 279.178 187.334 277.995C186.996 276.475 186.658 274.955 186.602 274.392C186.546 273.829 186.377 272.928 186.264 271.971C186.151 271.07 185.982 270.225 185.926 269.718C185.813 269.043 185.757 268.367 185.644 267.691C185.419 266.115 185.25 264.763 185.25 264.144V263.975C185.25 263.131 185.363 262.68 186.433 262.455C186.658 262.399 186.884 262.455 187.053 262.568C187.503 262.849 188.01 263.806 188.63 268.367V268.536C188.63 268.705 188.686 268.93 188.743 269.324C188.855 270.45 189.137 272.59 189.531 275.349C189.869 277.489 190.263 279.065 190.432 279.516C190.545 279.91 190.601 280.022 190.658 280.079C190.658 280.079 190.714 280.079 190.996 280.079C191.503 280.022 191.503 278.953 191.503 278.727C191.503 277.77 191.334 273.66 191.165 271.633C191.108 270.394 190.996 268.874 190.939 267.635C190.883 266.847 190.883 266.115 190.827 265.721C190.714 263.975 190.714 262.962 190.658 261.836C190.658 261.216 190.658 260.484 190.601 259.583L190.545 257.613C190.432 254.966 190.432 253.671 190.489 251.588C190.714 246.126 191.221 245.788 191.559 245.619C192.348 245.169 193.023 245.957 193.925 247.083C194.375 247.646 194.939 248.322 195.558 248.885C195.84 249.167 197.248 250.462 199.107 251.194C200.29 251.644 201.811 251.926 202.374 251.757C202.937 251.588 203.106 251.419 203.05 250.856C202.994 250.574 202.318 250.124 201.642 249.673C200.797 249.167 199.783 248.491 198.938 247.534L198.375 246.914C196.685 245.113 194.432 242.635 192.235 238.975C191.277 237.399 189.024 235.259 186.884 234.414C185.926 234.02 184.856 233.682 183.955 233.457C182.321 232.95 181.589 232.725 181.364 232.275C180.969 231.655 179.054 225.912 178.434 223.829C177.702 221.408 175.787 213.187 174.942 209.527C174.604 207.95 173.59 202.545 172.351 195.676C170.154 183.457 166.774 164.989 166.155 163.806C165.817 163.356 165.085 160.09 164.803 158.682V158.626C162.831 137.736 160.747 122.928 160.747 122.815C160.747 122.759 158.269 111.723 157.424 107.218C154.72 92.5225 149.087 85.5405 138.554 84.0202L121.374 80.6418C115.91 79.572 111.967 74.786 111.967 69.2116V47.7589H93.3786V69.3243C93.3786 74.8986 89.4356 79.6846 83.9717 80.7544L66.7916 84.1328C56.3708 85.7094 50.569 92.8603 47.9216 107.331C47.0766 111.836 44.5982 122.872 44.5982 122.984C44.5419 123.209 39.4723 147.646 37.7261 169.549V169.606C37.6698 169.775 37.2755 171.802 36.6559 174.786C34.797 184.02 30.8541 203.221 30.0655 206.824C29.2769 210.484 27.3054 218.705 26.5731 221.126C25.9535 223.209 24.0383 228.953 23.644 229.572C23.3624 230.022 22.6301 230.248 20.9966 230.754C20.0953 231.036 19.0251 231.374 18.0675 231.712C15.927 232.556 13.6739 234.696 12.7163 236.272C10.5195 239.932 8.21004 242.41 6.57652 244.212L6.01324 244.831C5.11198 245.788 4.09808 246.464 3.30948 246.971C2.63354 247.421 1.9576 247.872 1.90127 248.153C1.84494 248.716 2.01392 248.829 2.5772 249.054C3.14049 249.223 4.60503 248.941 5.84426 248.491C7.7031 247.759 9.1113 246.464 9.39294 246.182C10.0126 245.563 10.5758 244.944 11.0265 244.381C11.9277 243.254 12.6037 242.466 13.3923 242.917C13.7302 243.086 14.2372 243.423 14.4625 248.885C14.5188 250.968 14.5188 252.263 14.4062 254.91L14.3498 256.881C14.2935 257.781 14.2935 258.513 14.2935 259.133C14.2935 260.315 14.2372 261.272 14.1245 263.018C14.1245 263.412 14.0682 264.144 14.0119 264.932C13.9555 266.171 13.8992 267.691 13.7866 268.93C13.6739 270.957 13.4486 275.068 13.4486 276.025C13.4486 276.25 13.5049 277.32 13.9555 277.376C14.1809 277.432 14.2935 277.376 14.2935 277.376C14.3498 277.376 14.4062 277.207 14.5188 276.813C14.6315 276.363 15.0821 274.786 15.4201 272.646C15.8144 269.887 16.096 267.748 16.2087 266.622C16.265 266.284 16.265 266.002 16.3213 265.833V265.664C16.8846 261.104 17.4479 260.203 17.8985 259.865C18.1238 259.752 18.3492 259.696 18.5181 259.752C19.5884 260.034 19.701 260.428 19.701 261.272V261.441C19.701 262.061 19.5321 263.412 19.3067 264.989C19.1941 265.664 19.1378 266.34 19.0251 267.016C18.9688 267.522 18.7998 268.423 18.6871 269.268C18.5181 270.169 18.4055 271.126 18.3492 271.689C18.2928 272.308 17.9549 273.829 17.6169 275.349C17.3352 276.531 17.0536 277.77 17.0536 278.108C16.9409 279.009 16.9973 279.29 17.6169 279.459C17.7859 279.516 17.8422 279.459 17.8985 279.459C18.2928 279.234 18.5181 278.052 18.7435 277.207C18.9124 276.475 19.3631 274.617 19.8137 272.759C20.2643 270.957 20.7149 269.155 20.8839 268.423C20.9403 268.142 20.9966 267.748 21.1093 267.241C21.8979 262.905 22.4048 261.047 23.4187 261.047C23.644 261.047 23.8693 261.16 24.0383 261.329C24.3763 261.723 24.3763 262.286 24.3763 262.905C24.3763 263.074 24.3763 263.243 24.3763 263.412C24.3763 264.313 23.644 268.986 23.1934 270.732C23.0807 271.126 22.9118 271.745 22.6864 272.534C22.0668 274.617 21.0529 278.108 20.9966 278.84C20.9966 279.122 21.1093 279.178 21.1093 279.234C21.2219 279.29 21.5035 279.29 21.5599 279.234C22.0668 278.896 22.4048 278.221 22.8554 277.207C23.0244 276.813 23.1934 276.419 23.4187 275.968C24.2073 274.392 24.9959 271.52 25.5029 269.831L25.6155 269.437C25.7845 268.817 26.0098 267.917 26.2351 266.959C27.3617 262.624 27.6433 261.723 28.094 261.498C28.6573 261.216 29.1079 261.272 29.3332 261.385C29.6148 261.498 29.8965 261.836 30.0091 262.511C30.1218 263.131 29.5585 266.959 28.9389 270.169C28.7699 271.013 28.5446 272.252 28.3193 273.322C28.094 274.504 27.8687 275.631 27.8123 275.912V276.025C27.756 276.25 27.6997 276.644 27.8687 276.813C27.925 276.869 28.094 276.926 28.3756 276.926C28.5446 276.926 29.1079 276.306 29.5022 274.448C29.9528 272.196 30.4598 270.225 30.7414 269.268C30.9667 268.48 32.4312 263.243 32.4312 263.187C32.4312 263.131 34.1211 257.556 34.6844 254.459C35.4167 250.574 36.2616 246.07 36.5996 241.622C36.6559 241.171 36.6559 240.608 36.7122 239.989C36.7685 239.031 36.8249 238.074 36.8812 237.568C37.4445 233.176 39.1907 229.854 40.5989 227.207C40.8805 226.7 41.1058 226.25 41.3311 225.799C43.6969 221.013 45.4994 217.128 46.9077 214.031C47.5836 212.567 48.1469 211.272 48.7102 210.09C50.5127 206.317 52.0899 198.322 53.1601 193.029C53.3854 191.903 53.6107 190.89 53.7797 190.045C54.343 187.286 54.9626 185.203 55.5822 183.176C56.4272 180.36 57.1594 177.883 57.5537 174.279C60.9334 154.628 67.7491 119.381 67.8055 119.043L68.4251 115.721L77.6066 182.106L77.3813 182.331C73.2693 185.822 64.4258 197.252 60.4265 215.89C60.4265 216.115 60.3701 216.565 60.2575 217.354C56.1455 244.212 59.1309 266.453 62.3416 280.36C62.6796 282.444 63.0739 284.02 63.3556 285.259C63.6935 286.723 63.9188 287.68 63.9188 288.468C64.3695 291.115 64.8764 293.592 65.327 295.957L65.4397 296.408C66.2283 300.236 66.9606 303.953 67.6928 307.387C71.3542 325.124 74.0016 337.962 74.1143 342.635C74.1706 346.182 72.9877 350.349 71.5795 355.248C69.4953 362.399 66.9042 371.351 67.3549 382.049C67.8618 392.635 72.2554 410.766 76.1984 426.757C78.9585 438.074 81.3806 447.872 82.0002 453.446C82.1692 454.854 82.2819 456.205 82.4509 457.444C82.6198 458.908 83.1831 469.775 82.5635 475.068C81.8876 480.698 79.1275 482.838 76.649 484.752C75.0718 485.935 73.6073 487.117 72.8187 488.975C72.6497 489.426 72.5371 492.41 73.382 493.649C73.6073 493.986 73.8326 493.986 73.889 493.986C76.4801 493.986 84.4224 493.986 89.8299 493.93C96.0823 493.874 97.1526 490.158 97.3779 486.498C97.4342 486.047 97.2652 485.09 97.0399 483.851C96.4203 480.304 95.4064 474.336 97.0962 468.536C97.9412 465.721 97.4342 463.299 96.6456 459.64C95.3501 453.277 93.3786 443.649 96.4203 422.872C100.814 392.86 99.8563 385.372 98.2228 372.984C97.8285 370.113 97.4342 366.847 97.0399 363.018C95.3501 346.295 96.0823 342.354 97.3216 335.935C98.2228 331.318 99.293 325.631 99.9127 313.074C100.307 304.966 100.701 296.914 100.983 289.088V288.525C101.997 263.018 102.053 248.378 102.053 248.209V246.971H103.18V248.209C103.18 248.378 103.236 262.962 104.25 288.525L104.137 288.975Z" fill="white"/>
<path d="M134.949 55.4167C124.416 57.5564 113.6 58.6825 102.56 58.6825C91.5197 58.6825 80.7047 57.5564 70.1713 55.4167L70.2276 55.1352L73.7763 37.9055L76.4237 23.4347V23.3784C76.7054 22.0834 77.0433 20.7883 77.494 19.5496C81.2116 8.79509 90.5058 1.08113 101.434 0.518066H101.715C101.997 0.518066 102.278 0.518066 102.56 0.518066H102.616C102.898 0.518066 103.18 0.518066 103.461 0.518066L105.602 0.686985C115.741 1.98203 124.19 9.41446 127.683 19.5496C128.133 20.7883 128.471 22.0271 128.753 23.3784V23.4347L131.795 39.9325L134.949 55.4167Z" fill="#F8E0D8"/>
<path d="M102.56 59.2455C91.6887 59.2455 80.761 58.1193 70.0586 55.9797C69.7769 55.9234 69.5516 55.6419 69.608 55.304L69.6643 55.0225L73.213 37.7928L75.8604 23.3783C76.1421 21.9707 76.5364 20.6756 76.9307 19.4369C80.8173 8.23195 90.3368 0.6306 101.265 0.0112305C101.321 0.0112305 101.377 0.0112305 101.434 0.0112305H101.715C101.94 0.0112305 102.222 0.0112305 102.504 0.0112305H102.616C102.898 0.0112305 103.18 0.0112305 103.461 0.0112305L105.602 0.18015C115.91 1.47519 124.528 8.85132 128.189 19.4369C128.64 20.6756 128.978 21.9707 129.26 23.322V23.3783L132.301 39.8761L135.456 55.3603C135.512 55.6419 135.343 55.9797 135.005 56.036C124.359 58.1756 113.431 59.2455 102.56 59.2455ZM70.8472 54.9662C91.6324 59.1329 113.431 59.1329 134.273 54.9662L131.231 40.045L128.189 23.5473C127.908 22.2522 127.57 20.9572 127.119 19.7747C123.627 9.63961 115.29 2.54501 105.489 1.24997L103.405 1.08105C103.18 1.08105 102.898 1.08105 102.616 1.08105C102.335 1.08105 102.053 1.08105 101.771 1.08105H101.602C101.546 1.08105 101.546 1.08105 101.49 1.08105C90.9564 1.64411 81.7749 8.96393 78.0009 19.7184C77.6066 20.9009 77.2123 22.1396 76.987 23.4347L74.3396 37.9054L70.8472 54.9662Z" fill="white"/>
<path d="M168.69 183.063C165.761 181.486 164.69 181.205 161.254 180.417Z" fill="#F8E0D8"/>
<path d="M168.69 183.626C168.577 183.626 168.521 183.626 168.408 183.57C165.592 182.049 164.465 181.768 161.142 180.98C160.86 180.923 160.635 180.585 160.747 180.304C160.804 180.022 161.142 179.797 161.423 179.91C164.916 180.698 166.042 181.036 168.971 182.612C169.253 182.781 169.366 183.119 169.197 183.401C169.084 183.513 168.859 183.626 168.69 183.626Z" fill="white"/>
<path d="M36.4306 183.063C39.3596 181.486 40.4299 181.205 43.8659 180.417Z" fill="#F8E0D8"/>
<path d="M36.4306 183.626C36.2052 183.626 36.0363 183.513 35.9236 183.345C35.7546 183.063 35.8673 182.725 36.1489 182.556C39.078 180.98 40.2609 180.698 43.6969 179.854C43.9786 179.797 44.3165 179.966 44.3729 180.248C44.4292 180.529 44.2602 180.867 43.9786 180.923C40.5989 181.712 39.5286 181.993 36.7122 183.513C36.5995 183.626 36.5432 183.626 36.4306 183.626Z" fill="white"/>
<path d="M132.02 347.196C130.499 342.86 123.289 342.241 118.445 342.86Z" fill="#F8E0D8"/>
<path d="M132.02 347.759C131.795 347.759 131.569 347.59 131.513 347.365C130.217 343.648 123.852 342.691 118.501 343.423C118.219 343.48 117.938 343.254 117.881 342.916C117.825 342.635 118.05 342.353 118.388 342.297C122.838 341.734 130.893 342.072 132.583 346.971C132.696 347.252 132.527 347.59 132.245 347.702C132.189 347.759 132.076 347.759 132.02 347.759Z" fill="white"/>
<path d="M73.044 347.196C74.5649 342.86 81.7749 342.241 86.6192 342.86Z" fill="#F8E0D8"/>
<path d="M73.0441 347.759C72.9877 347.759 72.9314 347.759 72.875 347.703C72.5934 347.59 72.4244 347.252 72.5371 346.971C74.2833 342.016 82.2819 341.678 86.7319 342.297C87.0135 342.353 87.2388 342.635 87.2388 342.917C87.2388 343.198 86.9008 343.423 86.6192 343.423C81.268 342.748 74.9029 343.649 73.6073 347.365C73.4947 347.59 73.2694 347.759 73.0441 347.759Z" fill="white"/>
<path d="M102.56 247.984C102.222 247.984 101.997 247.759 101.997 247.421V226.362C101.997 226.025 102.222 225.799 102.56 225.799C102.898 225.799 103.123 226.025 103.123 226.362V247.421C103.123 247.759 102.842 247.984 102.56 247.984Z" fill="white"/>
<path d="M102.56 237.342C102.842 252.939 78.1136 250.067 71.3542 247.477Z" fill="#F8E0D8"/>
<path d="M84.8167 250.067C79.0712 250.067 73.6073 248.941 71.1289 247.984C70.8472 247.871 70.6782 247.534 70.7909 247.252C70.9036 246.97 71.2415 246.802 71.5232 246.914C76.0294 248.66 90.5622 250.912 97.8285 245.788C100.645 243.817 101.997 241.002 101.94 237.342C101.94 237.004 102.166 236.779 102.504 236.779C102.842 236.779 103.067 237.004 103.067 237.342C103.123 241.396 101.603 244.549 98.4481 246.745C94.9558 249.223 89.8299 250.067 84.8167 250.067Z" fill="white"/>
<path d="M102.56 237.342C102.278 252.939 127.007 250.067 133.766 247.477Z" fill="#F8E0D8"/>
<path d="M120.247 250.067C115.29 250.067 110.108 249.223 106.559 246.745C103.461 244.549 101.884 241.396 101.941 237.342C101.941 237.004 102.222 236.779 102.504 236.779C102.842 236.779 103.067 237.061 103.067 237.342C103.011 241.002 104.363 243.817 107.179 245.788C114.502 250.912 128.978 248.66 133.484 246.914C133.766 246.802 134.104 246.97 134.217 247.252C134.329 247.534 134.16 247.871 133.879 247.984C131.457 248.941 125.993 250.067 120.247 250.067Z" fill="white"/>
<path d="M118.163 101.869C108.475 107.5 112.981 121.013 114.671 125.687Z" fill="#F8E0D8"/>
<path d="M114.671 126.306C114.445 126.306 114.22 126.137 114.164 125.912C109.826 113.637 111.066 105.36 117.938 101.419C118.219 101.25 118.557 101.362 118.726 101.644C118.895 101.925 118.783 102.263 118.501 102.432C112.192 106.092 111.122 113.919 115.234 125.574C115.347 125.856 115.178 126.194 114.896 126.306C114.783 126.306 114.727 126.306 114.671 126.306Z" fill="white"/>
<path d="M86.9571 101.869C96.6456 107.5 92.1393 121.013 90.4495 125.687Z" fill="#F8E0D8"/>
<path d="M90.4495 126.306C90.3932 126.306 90.3369 126.306 90.2805 126.25C89.9989 126.137 89.8299 125.799 89.9426 125.518C94.0545 113.806 92.9843 106.036 86.6755 102.376C86.3939 102.207 86.3375 101.869 86.4502 101.588C86.6192 101.306 86.9571 101.25 87.2388 101.362C94.0545 105.36 95.3501 113.581 91.0128 125.856C90.9001 126.137 90.6748 126.306 90.4495 126.306Z" fill="white"/>
<path d="M86.6191 464.82C87.802 473.378 86.2249 477.264 85.1546 480.191Z" fill="#F8E0D8"/>
<path d="M85.1546 480.754C85.0983 480.754 85.042 480.754 84.9856 480.698C84.704 480.586 84.535 480.248 84.6477 479.966L84.7603 479.628C85.7742 476.813 87.1824 472.928 86.0559 464.876C85.9996 464.595 86.2249 464.257 86.5628 464.257C86.8445 464.2 87.1824 464.426 87.1824 464.763C88.309 473.097 86.9008 477.095 85.8306 480.022L85.7179 480.36C85.6053 480.586 85.38 480.754 85.1546 480.754Z" fill="white"/>
<path d="M91.8014 457.162C90.5621 470.338 92.252 475.968 92.252 480.135Z" fill="#F8E0D8"/>
<path d="M92.252 480.698C91.914 480.698 91.6887 480.473 91.6887 480.135C91.6887 478.953 91.5761 477.658 91.3507 476.025C90.9001 471.971 90.3368 466.453 91.1817 457.106C91.2381 456.824 91.4634 456.543 91.8014 456.599C92.083 456.655 92.3646 456.881 92.3083 457.218C91.4634 466.509 92.0267 471.914 92.4773 475.912C92.6463 477.489 92.8153 478.896 92.8153 480.135C92.8153 480.417 92.5336 480.698 92.252 480.698Z" fill="white"/>
<path d="M79.0148 487.005C79.8597 495.282 86.9571 494.493 89.6609 494.493Z" fill="#F8E0D8"/>
<path d="M88.14 495.056C84.9293 495.056 79.1838 494.493 78.4515 487.061C78.3952 486.779 78.6205 486.498 78.9585 486.441C79.2965 486.385 79.5218 486.61 79.5781 486.948C80.3104 494.099 85.9432 493.987 88.9849 493.93C89.2103 493.93 89.4356 493.93 89.6609 493.93C89.9989 493.93 90.2242 494.155 90.2242 494.493C90.2242 494.831 89.9989 495.056 89.6609 495.056C89.4919 495.056 89.2666 495.056 89.0413 495.056C88.7596 495.056 88.478 495.056 88.14 495.056Z" fill="white"/>
<path d="M118.67 464.82C117.487 473.378 119.064 477.263 120.135 480.191Z" fill="#F8E0D8"/>
<path d="M120.135 480.754C119.909 480.754 119.684 480.585 119.628 480.36L119.515 480.022C118.445 477.094 117.036 473.097 118.163 464.763C118.219 464.482 118.501 464.257 118.783 464.257C119.064 464.313 119.29 464.594 119.29 464.876C118.163 472.928 119.571 476.813 120.585 479.628L120.698 479.966C120.81 480.248 120.642 480.585 120.36 480.698C120.304 480.754 120.191 480.754 120.135 480.754Z" fill="white"/>
<path d="M113.544 457.162C114.783 470.338 113.094 475.968 113.094 480.135Z" fill="#F8E0D8"/>
<path d="M113.037 480.698C112.699 480.698 112.474 480.473 112.474 480.135C112.474 478.896 112.643 477.489 112.812 475.912C113.262 471.914 113.826 466.453 112.981 457.218C112.925 456.937 113.206 456.655 113.488 456.599C113.769 456.543 114.051 456.824 114.107 457.106C115.009 466.509 114.389 472.027 113.938 476.025C113.769 477.658 113.6 478.953 113.6 480.135C113.6 480.417 113.375 480.698 113.037 480.698Z" fill="white"/>
<path d="M126.274 487.004C125.429 495.281 118.332 494.493 115.628 494.493Z" fill="#F8E0D8"/>
<path d="M117.149 495.056C116.811 495.056 116.53 495.056 116.304 495.056C116.079 495.056 115.854 495.056 115.685 495.056C115.347 495.056 115.121 494.831 115.121 494.493C115.121 494.155 115.347 493.93 115.685 493.93C115.91 493.93 116.079 493.93 116.361 493.93C119.402 493.986 125.035 494.099 125.767 486.948C125.824 486.667 126.049 486.441 126.387 486.441C126.669 486.498 126.95 486.723 126.894 487.061C126.105 494.493 120.36 495.056 117.149 495.056Z" fill="white"/>
<path d="M128.246 181.824C124.866 180.586 122.613 180.023 119.064 179.516Z" fill="#F8E0D8"/>
<path d="M128.246 182.387C128.19 182.387 128.133 182.387 128.077 182.331C124.81 181.149 122.613 180.586 119.008 180.023C118.726 179.966 118.501 179.685 118.557 179.403C118.614 179.122 118.895 178.896 119.177 178.953C122.895 179.46 125.148 180.079 128.471 181.318C128.753 181.43 128.922 181.768 128.809 182.05C128.696 182.219 128.471 182.387 128.246 182.387Z" fill="white"/>
<path d="M76.8744 181.824C80.2541 180.585 82.5072 180.022 86.0559 179.516Z" fill="#F8E0D8"/>
<path d="M76.8744 182.387C76.6491 182.387 76.4237 182.275 76.3674 181.993C76.2548 181.712 76.4238 181.374 76.7054 181.261C80.0288 180.023 82.2819 179.459 85.9996 178.896C86.2812 178.84 86.6192 179.065 86.6192 179.347C86.6192 179.628 86.4502 179.966 86.1686 179.966C82.5635 180.473 80.3667 181.036 77.0997 182.275C76.987 182.331 76.9307 182.387 76.8744 182.387Z" fill="white"/>
<path d="M102.56 180.079C102.222 180.079 101.997 179.853 101.997 179.516V125.743C101.997 125.405 102.222 125.18 102.56 125.18C102.898 125.18 103.123 125.405 103.123 125.743V179.516C103.123 179.797 102.842 180.079 102.56 180.079Z" fill="white"/>
<path d="M76.987 181.824C76.987 181.824 53.1601 201.757 58.3423 251.644C59.6942 264.932 61.553 277.432 63.4682 288.694" fill="#F8E0D8"/>
<path d="M63.4119 289.2C63.1302 289.2 62.9049 289.031 62.8486 288.75C60.6518 275.687 58.9619 263.581 57.7227 251.644C55.0753 225.743 60.3138 208.063 65.1581 197.759C70.4529 186.554 76.3111 181.599 76.5927 181.374C76.818 181.149 77.2123 181.205 77.3813 181.43C77.6066 181.655 77.5503 182.05 77.325 182.218C77.2686 182.275 71.3542 187.286 66.172 198.266C61.384 208.401 56.2018 225.912 58.8493 251.475C60.0885 263.356 61.722 275.462 63.9751 288.525C64.0315 288.806 63.8062 289.144 63.5245 289.2C63.4682 289.2 63.4682 289.2 63.4119 289.2Z" fill="white"/>
<path d="M128.133 181.824C128.133 181.824 151.96 201.757 146.778 251.644C145.426 264.932 143.567 277.432 141.652 288.694" fill="#F8E0D8"/>
<path d="M141.708 289.2C141.652 289.2 141.652 289.2 141.596 289.2C141.314 289.144 141.089 288.863 141.145 288.525C143.342 275.518 145.032 263.412 146.271 251.475C148.918 225.856 143.736 208.401 138.948 198.266C133.766 187.286 127.852 182.218 127.795 182.218C127.57 181.993 127.514 181.655 127.739 181.43C127.964 181.205 128.302 181.149 128.528 181.374C128.753 181.599 134.611 186.554 139.962 197.759C144.863 208.063 150.101 225.743 147.398 251.644C146.158 263.581 144.468 275.687 142.272 288.75C142.215 289.031 141.934 289.2 141.708 289.2Z" fill="white"/>
</svg>
