<svg width="201" height="496" viewBox="0 0 201 496" fill="none" xmlns="http://www.w3.org/2000/svg">
<path d="M100.096 64.7073C90.5198 64.5384 82.8028 51.3627 82.8028 35.1465C82.8028 32.5564 83.0281 29.9663 83.3661 27.5452H98.969H100.039H100.096H103.025H116.769C117.163 29.9663 117.332 32.5001 117.332 35.1465C117.332 44.8312 114.572 53.3898 110.347 58.7952L109.897 59.3019H109.953C107.137 62.624 103.757 64.651 100.096 64.7073Z" fill="#F8E0D8"/>
<path d="M100.096 65.2703C90.2381 65.1014 82.2395 51.5879 82.2395 35.1464C82.2395 32.5563 82.4648 29.9663 82.8028 27.4888C82.8591 27.2072 83.0844 27.0383 83.3661 27.0383H116.769C117.05 27.0383 117.276 27.2636 117.332 27.4888C117.726 29.9663 117.895 32.5563 117.895 35.1464C117.895 44.6622 115.304 53.3897 110.798 59.1329L110.46 59.5271C110.46 59.5834 110.404 59.6397 110.404 59.6397C107.362 63.2433 103.813 65.214 100.096 65.2703ZM83.873 28.1082C83.5351 30.4167 83.3661 32.7816 83.3661 35.1464C83.3661 50.9685 90.8577 63.9753 100.039 64.1442L100.096 64.7072V64.1442C103.419 64.0879 106.63 62.3424 109.39 59.0766C109.39 59.0203 109.446 58.964 109.502 58.9077L109.953 58.4009C114.29 52.8829 116.769 44.3807 116.769 35.1464C116.769 32.7816 116.6 30.4167 116.262 28.1082H83.873Z" fill="white"/>
<path d="M129.443 185.935C126.852 183.063 126.007 179.065 126.514 175.293L134.287 119.099C134.287 119.099 143.468 155.079 146.172 176.588C146.116 176.588 146.06 176.644 146.003 176.644C146.116 176.869 146.172 177.151 146.285 177.376C146.623 180.36 146.848 183.063 146.905 185.315H146.961C146.961 185.935 146.961 186.498 146.961 187.061C146.961 187.061 147.017 187.061 147.017 187.117C147.017 189.538 147.242 192.354 148.087 195.957C149.158 200.518 152.312 208.457 154.453 212.68C156.199 216.115 158.283 220.676 161.663 227.095C163.071 229.741 165.268 233.063 166 237.736C166.112 238.468 166.225 240.439 166.338 241.453C166.732 245.507 167.577 249.673 168.366 253.333C168.985 256.261 170.675 261.385 170.675 261.385C170.675 261.385 172.14 266.227 172.365 266.959C172.59 267.691 173.097 269.437 173.66 271.689C173.886 272.59 174.393 274.335 175.238 274.335C176.533 274.335 176.308 273.322 176.195 272.815C176.139 272.308 175.35 269.212 175.012 267.466C174.28 263.975 173.773 260.991 173.886 260.597C173.942 260.203 174.167 259.64 174.9 260.034C175.35 260.259 176.477 264.932 177.097 267.016C177.603 268.592 178.448 271.464 179.293 273.097C180.138 274.73 180.42 275.799 181.265 276.306C181.659 276.531 182.617 276.475 182.617 275.518C182.56 274.504 180.871 269.493 180.42 267.917C179.969 266.34 179.181 262.061 179.181 261.329C179.181 260.597 179.012 259.696 179.519 259.64C180.364 259.583 181.208 264.707 181.546 266.002C181.884 267.354 183.405 272.703 183.743 274.054C184.081 275.405 184.419 276.813 185.489 276.475C186.56 276.194 186.447 275.405 186.334 274.673C186.222 273.941 185.095 269.775 184.982 268.761C184.814 267.804 184.419 265.439 184.25 264.426C183.912 262.342 183.518 260.146 183.518 259.414C183.518 258.682 183.462 258.513 184.194 258.288C184.983 258.063 185.602 262.793 185.715 263.412C185.827 264.031 186.109 266.34 186.672 269.662C187.01 271.52 187.405 272.984 187.574 273.547C187.799 274.279 187.968 274.504 188.644 274.392C189.32 274.279 189.545 273.491 189.545 272.646C189.545 271.745 189.263 267.917 189.094 266.058C188.925 264.2 188.756 261.61 188.644 260.597C188.419 258.119 188.475 257.331 188.306 254.966C188.081 251.137 187.968 249.955 188.024 247.646C188.024 246.633 188.137 242.86 188.644 242.522C189.207 242.185 190.221 243.986 191.798 245.45C192.249 245.845 193.601 246.971 195.291 247.59C196.305 247.928 197.938 248.266 198.67 248.04C199.121 247.872 199.797 247.646 199.628 246.633C199.459 245.676 197.262 245.113 195.572 243.367C193.882 241.622 191.573 239.313 189.207 235.653C188.25 234.189 186.053 232.162 183.912 231.317C181.772 230.529 179.293 230.079 179.012 229.628C178.73 229.178 176.871 224.167 176.195 222.027C175.519 219.887 173.548 212.399 172.703 208.908C171.633 204.516 170.675 198.998 170.619 195.225C170.506 191.453 169.943 185.54 169.436 182.218C168.929 178.896 168.14 176.137 166.901 172.703C166.845 172.534 165.38 164.538 165.324 164.369C165.268 164.369 165.155 164.369 165.099 164.426C163.014 143.761 158.677 122.872 158.677 122.872C158.677 122.872 156.199 111.835 155.354 107.275C152.819 93.4233 147.58 85.3152 136.033 83.626L118.909 80.2476C113.727 79.2341 109.953 74.6733 109.953 69.3805V59.4143C109.953 59.4143 110.009 59.4143 110.066 59.4143L132.484 55.5855L129.274 40.1012L126.232 23.6035V23.5472C125.95 22.2521 125.612 20.9571 125.162 19.7184C121.669 9.47062 113.22 2.03818 103.081 0.743138L100.941 0.574219C100.659 0.574219 100.377 0.574219 100.096 0.574219H100.039C99.7576 0.574219 99.476 0.574219 99.1944 0.574219H98.9127C87.9287 1.13728 78.6908 8.90755 74.9731 19.6058C74.5225 20.8445 74.1845 22.0832 73.9029 23.4346V23.4909L71.2555 37.9616L67.6505 55.5292L90.1818 59.4143V69.3805C90.1818 74.6733 86.4078 79.2341 81.2256 80.2476L64.0454 83.626C52.7798 85.3152 47.2596 93.4233 44.7248 107.275C43.8799 111.835 41.4014 122.872 41.4014 122.872C41.4014 122.872 37.2331 150.799 34.473 170.281C34.0224 171.126 33.6281 171.971 33.2901 172.872C32.0509 176.306 31.2623 179.122 30.7554 182.387C30.2484 185.709 29.6851 191.622 29.5725 195.394C29.4598 199.167 28.5022 204.685 27.4883 209.076C26.6434 212.567 24.6719 220.056 23.9959 222.196C23.32 224.335 21.5175 229.347 21.1795 229.797C20.8979 230.248 18.3631 230.642 16.279 231.486C14.1385 232.275 11.9417 234.302 10.9841 235.822C8.67463 239.482 6.30883 241.79 4.61898 243.536C2.92913 245.281 0.732324 245.845 0.563339 246.802C0.394354 247.759 1.07029 248.04 1.52092 248.209C2.25319 248.435 3.88671 248.097 4.90063 247.759C6.59048 247.14 7.94236 246.013 8.39299 245.619C9.97018 244.155 10.9841 242.354 11.5474 242.691C12.1107 243.029 12.167 246.802 12.167 247.815C12.2233 250.124 12.1107 251.363 11.8853 255.135C11.7727 257.5 11.7727 258.345 11.5474 260.766C11.4347 261.779 11.2657 264.369 11.0967 266.227C10.9278 268.086 10.6461 271.914 10.6461 272.815C10.6461 273.716 10.8714 274.504 11.5474 274.561C12.2233 274.673 12.3923 274.448 12.6176 273.716C12.7866 273.153 13.2372 271.689 13.5189 269.831C14.0822 266.453 14.3638 264.144 14.4765 263.581C14.5891 262.962 15.2087 258.232 15.9973 258.457C16.7859 258.682 16.6733 258.851 16.6733 259.583C16.6733 260.315 16.2226 262.567 15.941 264.595C15.772 265.552 15.3777 267.917 15.2087 268.93C15.0397 269.887 13.9695 274.11 13.8568 274.842C13.7442 275.574 13.6315 276.363 14.7018 276.644C15.772 276.926 16.11 275.574 16.4479 274.223C16.7859 272.872 18.3068 267.522 18.6448 266.171C18.9827 264.82 19.8276 259.752 20.6726 259.808C21.1795 259.808 21.0105 260.709 21.0105 261.498C21.0105 262.23 20.2219 266.509 19.7713 268.085C19.3207 269.662 17.5745 274.673 17.5745 275.687C17.5182 276.7 18.4758 276.757 18.9264 276.475C19.7713 275.968 20.053 274.899 20.8979 273.266C21.7428 271.633 22.5877 268.705 23.0947 267.185C23.7143 265.101 24.8972 260.428 25.2915 260.203C26.0801 259.808 26.2491 260.428 26.3054 260.766C26.3617 261.16 25.9111 264.144 25.1788 267.635C24.8409 269.324 24.0523 272.477 23.9959 272.984C23.9396 273.491 23.7143 274.504 24.9535 274.504C25.7985 274.504 26.3054 272.759 26.5307 271.858C27.0377 269.606 27.601 267.86 27.8263 267.128C28.0516 266.396 29.5161 261.554 29.5161 261.554C29.5161 261.554 31.1497 256.43 31.8256 253.502C32.6142 249.899 33.4591 245.676 33.8534 241.622C33.9661 240.608 34.0787 238.637 34.1914 237.905C34.9237 233.232 37.1205 229.91 38.5287 227.263C41.9084 220.901 43.9925 216.34 45.7387 212.849C47.8792 208.626 51.0336 200.687 52.1038 196.126C52.9487 192.522 53.1741 189.707 53.1741 187.286C53.1741 187.286 53.2304 187.286 53.2304 187.23C53.1177 184.808 53.343 181.655 53.7937 177.995C54.019 177.32 54.2443 176.644 54.5259 175.968C55.7088 172.646 57.0044 160.878 57.117 157.781C60.8347 138.806 65.8479 119.155 65.8479 119.155L73.6213 175.349C74.1282 179.122 73.1143 183.007 70.6922 185.991C65.7916 192.072 57.6803 205.248 55.5962 227.151C53.343 245.507 60.9474 288.694 60.9474 288.694C60.9474 288.694 60.9474 288.637 60.891 288.525C65.6226 316.227 70.8612 336.441 70.9738 342.579C71.1991 351.194 63.3695 363.919 64.2144 381.993C65.0593 400.067 77.3389 439.932 78.8598 453.39C82.1832 482.387 77.7896 479.628 71.8188 484.977C69.3403 487.173 65.4536 494.437 70.7485 494.493C75.0295 494.549 79.1414 494.606 87.2527 494.493C94.1248 494.381 96.04 493.311 96.2653 489.876C96.3779 487.905 96.0963 483.851 95.5893 481.937C93.6742 475.067 94.4628 474.955 95.0824 468.705C95.8146 460.822 90.8578 454.685 94.4064 422.928C98.6311 385.54 97.0539 383.007 95.026 362.905C92.097 334.414 96.3779 343.254 97.8988 313.018C99.983 271.971 100.039 248.153 100.039 248.153V247.477V248.153C100.039 248.153 100.096 271.971 102.18 313.018C103.701 343.254 107.982 334.414 105.053 362.905C103.025 383.007 101.447 385.597 105.672 422.928C109.277 454.685 104.264 460.822 104.996 468.705C105.616 474.955 106.404 475.067 104.489 481.937C103.926 483.851 103.644 487.905 103.813 489.876C104.039 493.311 105.897 494.381 112.826 494.493C120.937 494.606 125.105 494.549 129.33 494.493C134.625 494.437 130.738 487.173 128.26 484.977C122.289 479.628 117.895 482.387 121.219 453.39C122.796 439.932 135.019 400.067 135.864 381.993C136.709 363.919 128.879 351.194 129.105 342.579C129.274 336.554 134.287 316.903 138.962 289.932C138.681 289.538 159.353 219.099 129.443 185.935ZM100.039 64.7071C90.5198 64.5382 82.8028 51.3625 82.8028 35.1463C82.8028 32.5562 83.0281 29.9661 83.3661 27.5449H116.769C117.163 29.9661 117.332 32.4999 117.332 35.1463C117.332 44.831 114.572 53.3895 110.347 58.7949L109.897 59.3017H109.953C107.137 62.6238 103.757 64.6508 100.039 64.7071Z" fill="#F8E0D8"/>
<path d="M121.838 495.056C119.36 495.056 116.544 495.056 112.882 495C106.63 494.944 103.588 494.155 103.363 489.876C103.25 487.793 103.532 483.739 104.095 481.768C105.559 476.532 105.39 475.349 104.996 472.14C104.884 471.182 104.715 470.113 104.602 468.705C104.377 466.059 104.715 463.637 105.222 460.484C106.179 454.009 107.7 444.268 105.278 422.928C101.616 390.383 102.292 384.358 103.87 369.831C104.095 367.691 104.377 365.383 104.658 362.736C106.348 346.182 105.616 342.297 104.433 335.935C103.532 331.318 102.461 325.518 101.785 312.905C100.997 297.646 100.49 284.696 100.208 274.504C99.8703 284.696 99.4197 297.646 98.6311 312.905C98.0115 325.518 96.8849 331.261 95.9836 335.935C94.7444 342.297 94.0121 346.126 95.7583 362.736C96.04 365.383 96.2653 367.691 96.5469 369.831C98.1804 384.358 98.8564 390.383 95.1387 422.928C92.7166 444.268 94.2375 454.065 95.195 460.484C95.6457 463.581 96.04 466.059 95.8147 468.705C95.702 470.113 95.533 471.182 95.4204 472.14C94.9697 475.349 94.8571 476.532 96.3216 481.768C96.8849 483.739 97.1665 487.793 97.0539 489.876C96.7722 494.155 93.7868 494.944 87.5344 495C79.6484 495.113 75.5364 495.056 70.9738 495C69.0023 495 68.2701 494.043 67.9884 493.254C67.0308 490.721 69.8473 486.16 71.7061 484.471C72.6637 483.626 73.6213 482.95 74.4099 482.331C78.6908 479.291 81.2819 477.432 78.5218 453.333C77.9022 447.815 75.4801 438.074 72.72 426.813C68.777 410.766 64.3271 392.579 63.8765 381.881C63.3695 370.957 66.0169 361.948 68.1574 354.685C69.5656 349.899 70.7485 345.788 70.6922 342.466C70.6359 339.369 69.1713 332.444 67.1998 322.872C65.2847 313.581 62.9189 302.095 60.6094 288.694C60.5531 288.243 53.0051 245.169 55.2582 226.982C57.3424 204.741 65.679 191.509 70.4669 185.541C72.7763 182.669 73.7903 178.953 73.2833 175.349L65.9043 122.027C64.3834 128.108 60.7221 143.254 57.9056 157.782C57.793 160.766 56.5538 172.646 55.3145 176.081L55.0892 176.7C54.9202 177.151 54.7513 177.601 54.5823 178.052C54.1316 181.824 53.9627 184.921 54.0753 187.173V187.511L54.019 187.568C53.9627 190.439 53.6247 193.142 52.9487 196.182C51.8785 200.687 48.7241 208.682 46.5273 213.018C45.964 214.088 45.4007 215.27 44.7811 216.622C43.3729 219.493 41.6831 223.041 39.3173 227.432C39.092 227.883 38.8666 228.277 38.585 228.784C37.2895 231.149 35.6559 234.077 35.0363 237.905C34.98 238.3 34.9237 239.2 34.811 240.045C34.7547 240.608 34.6983 241.171 34.6983 241.565C34.2477 245.676 33.4028 249.899 32.6142 253.502C31.9946 256.43 30.3611 261.385 30.3047 261.61C30.2484 261.779 28.8402 266.453 28.6149 267.185C28.3332 268.086 27.8263 269.831 27.3757 271.858C26.8687 273.941 26.1928 274.955 25.2352 274.955C24.6719 274.955 24.2213 274.786 23.9396 274.448C23.489 273.941 23.6017 273.209 23.658 272.872V272.815C23.7143 272.534 23.8833 271.689 24.2213 270.338C24.4466 269.324 24.7282 268.254 24.8972 267.466C25.6858 263.694 26.0801 261.104 26.0238 260.766C26.0238 260.653 25.9674 260.597 25.9674 260.541H25.9111C25.6295 261.047 24.9535 263.468 24.5592 264.932C24.3339 265.833 24.1086 266.622 23.8833 267.241L23.7706 267.635C23.2637 269.324 22.4751 271.914 21.6865 273.435C21.4612 273.829 21.2922 274.223 21.1232 274.561C20.6163 275.631 20.2783 276.363 19.4897 276.869C19.0954 277.095 18.4758 277.207 17.9688 276.869C17.6872 276.7 17.2929 276.363 17.2929 275.574C17.2929 274.786 18.0815 272.365 19.0391 269.493C19.2644 268.818 19.4334 268.254 19.546 267.86C19.9966 266.284 20.7852 262.117 20.7852 261.441C20.7852 261.329 20.7852 261.16 20.7852 261.047C20.3909 262.173 19.9966 264.2 19.7713 265.158C19.6587 265.608 19.6023 266.002 19.546 266.284C19.377 266.959 18.9264 268.592 18.4758 270.282C18.0251 271.914 17.5182 273.66 17.3492 274.336C17.0676 275.462 16.7859 276.588 16.0537 277.038C15.7157 277.207 15.3214 277.264 14.9271 277.151C13.4062 276.7 13.5752 275.405 13.6879 274.73C13.7442 274.336 14.0258 273.322 14.3075 272.083C14.6454 270.788 14.9834 269.324 15.0397 268.818C15.0961 268.311 15.2651 267.41 15.434 266.565C15.603 265.777 15.7157 264.989 15.772 264.482C15.8847 263.863 15.9973 263.187 16.0537 262.624C16.279 261.273 16.5043 260.034 16.5043 259.583V259.414C16.5043 259.302 16.5043 259.189 16.5043 259.077H16.4479C16.279 259.358 15.8847 260.372 15.434 263.525V263.694C15.434 263.863 15.3777 264.088 15.3214 264.369C15.1524 265.439 14.9271 267.354 14.4765 269.944C14.1385 271.971 13.6879 273.491 13.5189 273.941C13.2936 274.673 12.9556 275.349 11.829 275.18C11.3784 275.124 10.4208 274.73 10.4208 272.815C10.4208 271.914 10.7025 268.086 10.8714 266.227C10.9841 265.101 11.0968 263.75 11.1531 262.568C11.2094 261.836 11.2657 261.16 11.2657 260.766C11.3784 259.189 11.4347 258.288 11.4911 257.218C11.4911 256.599 11.5474 255.98 11.6037 255.135L11.7164 253.333C11.8853 250.856 11.9417 249.73 11.8853 247.872C11.829 245.225 11.66 243.93 11.5474 243.423C11.3221 243.649 10.9841 244.043 10.7025 244.324C10.2518 244.831 9.68854 245.507 9.06893 246.07C8.67463 246.408 7.26642 247.646 5.35126 248.322C4.39367 248.66 2.53484 249.11 1.63358 248.773C1.23928 248.66 0.0563875 248.266 0.281701 246.745C0.394358 245.957 1.12663 245.507 2.08421 244.944C2.81648 244.493 3.71773 243.93 4.45 243.198L5.01329 242.635C6.64681 240.946 8.67463 238.806 10.7588 235.597C11.7164 234.02 14.0258 231.937 16.3353 231.036C17.2929 230.698 18.2505 230.417 19.1517 230.135C19.884 229.91 20.7852 229.685 21.0105 229.516C21.2922 228.953 22.982 224.392 23.7143 222.083C24.3903 219.887 26.3617 212.342 27.2067 208.964C28.3896 204.122 29.1782 198.772 29.2908 195.394C29.4035 191.453 30.0231 185.541 30.4737 182.331C30.9243 179.178 31.7129 176.419 33.0085 172.703C33.2901 171.914 33.6844 171.013 34.1914 170.113C36.9515 150.856 41.0635 123.097 41.1198 122.815C41.1761 122.646 43.6546 111.667 44.4432 107.162C47.2033 92.1284 53.2867 84.6959 64.2708 83.063L81.4509 79.6847C86.3515 78.7274 89.9565 74.3919 89.9565 69.3806V59.8085L67.3125 55.9234L71.0302 37.7928L73.6776 23.3783C73.9592 21.9707 74.3535 20.6756 74.7478 19.4369C78.5782 8.40087 87.9287 0.855825 98.6874 0.0675365V0.0112305H99.5323C99.814 0.0112305 100.096 0.0112305 100.377 0.0112305H100.434C100.715 0.0112305 100.997 0.0112305 101.279 0.0112305L103.419 0.18015C113.727 1.47519 122.345 8.85132 126.007 19.4369C126.457 20.6756 126.795 21.9707 127.077 23.322V23.3783L130.119 39.8761L133.442 55.9234L110.854 59.8085V69.3243C110.854 74.3356 114.403 78.6711 119.36 79.6283L136.484 83.0067C147.524 84.6396 153.495 91.7905 156.255 107.106C157.1 111.61 159.578 122.59 159.578 122.703C159.635 122.928 163.859 143.48 165.944 163.75H166L166.169 164.144C166.225 164.257 166.225 164.257 167.014 168.705C167.352 170.394 167.69 172.365 167.746 172.534C169.042 176.194 169.774 179.009 170.281 182.162C170.788 185.372 171.351 191.284 171.464 195.225C171.576 198.604 172.365 203.953 173.548 208.795C174.336 212.173 176.308 219.662 177.04 221.914C177.772 224.223 179.462 228.784 179.744 229.347C179.969 229.516 180.871 229.741 181.603 229.966C182.504 230.191 183.462 230.473 184.419 230.867C186.729 231.768 188.982 233.851 189.996 235.428C192.024 238.637 194.108 240.777 195.741 242.466L196.304 243.029C197.037 243.818 197.882 244.324 198.67 244.775C199.628 245.338 200.36 245.845 200.473 246.577C200.698 248.097 199.515 248.491 199.121 248.604C198.163 248.941 196.361 248.491 195.403 248.153C193.544 247.477 192.08 246.239 191.742 245.901C191.122 245.338 190.559 244.662 190.108 244.155C189.827 243.818 189.489 243.423 189.263 243.254C189.151 243.761 188.982 245.113 188.925 247.703C188.925 249.561 188.982 250.687 189.094 253.164L189.207 254.966C189.263 255.811 189.263 256.486 189.32 257.05C189.376 258.119 189.376 259.02 189.545 260.597C189.601 260.991 189.601 261.667 189.658 262.399C189.714 263.525 189.827 264.932 189.939 266.059C190.108 267.917 190.39 271.802 190.39 272.646C190.446 274.561 189.432 274.899 188.982 275.011C187.855 275.18 187.517 274.504 187.292 273.773C187.179 273.378 186.729 271.858 186.334 269.775C185.884 267.185 185.602 265.27 185.489 264.2C185.433 263.863 185.433 263.637 185.377 263.525V263.356C184.926 260.203 184.532 259.189 184.363 258.908H184.307C184.307 258.964 184.307 259.133 184.307 259.245V259.414C184.307 259.865 184.532 261.16 184.757 262.455C184.87 263.074 184.982 263.694 185.039 264.369C185.095 264.82 185.264 265.664 185.377 266.453C185.546 267.297 185.658 268.198 185.771 268.705C185.827 269.212 186.222 270.676 186.503 271.971C186.785 273.209 187.067 274.223 187.123 274.617C187.236 275.293 187.405 276.588 185.884 277.038C185.489 277.151 185.095 277.095 184.757 276.926C183.969 276.475 183.687 275.293 183.462 274.223C183.293 273.547 182.842 271.858 182.335 270.169C181.828 268.423 181.377 266.847 181.265 266.171C181.208 265.89 181.096 265.495 181.04 265.045C180.871 264.144 180.42 262.117 180.026 260.935C180.026 261.047 180.026 261.216 180.026 261.329C180.026 262.004 180.758 266.171 181.265 267.748C181.377 268.142 181.546 268.705 181.772 269.381C182.673 272.252 183.462 274.73 183.518 275.462C183.574 276.25 183.124 276.644 182.842 276.757C182.335 277.095 181.659 276.982 181.321 276.757C180.533 276.306 180.195 275.518 179.688 274.448C179.519 274.11 179.35 273.716 179.124 273.322C178.336 271.745 177.547 269.212 177.04 267.523L176.928 267.128C176.759 266.509 176.533 265.721 176.252 264.82C175.857 263.356 175.181 260.991 174.9 260.428C174.843 260.428 174.843 260.428 174.787 260.428C174.787 260.428 174.787 260.484 174.731 260.653C174.731 260.991 175.069 263.581 175.857 267.354C176.026 268.142 176.252 269.268 176.533 270.225C176.815 271.577 177.04 272.421 177.097 272.703V272.759C177.153 273.153 177.265 273.829 176.815 274.336C176.533 274.673 176.083 274.842 175.519 274.842C174.562 274.842 173.886 273.773 173.379 271.745C172.872 269.718 172.421 267.917 172.14 267.072C171.914 266.34 170.506 261.667 170.45 261.498C170.393 261.273 168.76 256.318 168.14 253.39C167.352 249.786 166.507 245.563 166.056 241.453C166 241.059 166 240.495 165.944 239.932C165.887 239.088 165.831 238.187 165.718 237.793C165.099 233.964 163.465 231.036 162.169 228.671C161.888 228.221 161.663 227.77 161.437 227.32C159.128 222.928 157.382 219.381 155.973 216.509C155.354 215.158 154.734 213.975 154.227 212.905C152.03 208.57 148.876 200.574 147.806 196.07C147.073 193.029 146.736 190.327 146.736 187.455L146.679 187.399V187.061C146.679 186.723 146.679 186.385 146.679 185.991L146.567 185.428C146.51 183.345 146.341 180.698 145.947 177.601L145.891 177.489C145.834 177.32 145.778 177.095 145.665 176.926L145.44 176.363L145.722 176.25C143.468 158.457 136.822 130.923 134.625 122.14L127.246 175.462C126.683 179.403 127.697 183.119 130.006 185.653C141.553 198.491 147.017 218.198 146.285 244.268C145.722 264.707 141.441 282.5 140.032 288.356C139.863 288.975 139.751 289.538 139.694 289.82L139.638 290.101C137.441 302.995 135.132 314.088 133.273 323.041C131.302 332.613 129.893 339.538 129.781 342.635C129.724 346.013 130.907 350.124 132.315 354.854C134.456 362.117 137.047 371.126 136.596 382.05C136.089 392.748 131.64 410.935 127.753 426.982C124.993 438.243 122.627 448.041 121.951 453.502C119.191 477.601 121.782 479.403 126.063 482.5C126.908 483.063 127.809 483.739 128.767 484.64C130.626 486.273 133.442 490.89 132.484 493.423C132.203 494.212 131.414 495.113 129.499 495.169C126.964 495.056 124.655 495.056 121.838 495.056ZM99.476 246.858H100.603V248.097C100.603 248.322 100.715 272.365 102.743 312.962C103.363 325.518 104.489 331.205 105.334 335.822C106.573 342.297 107.306 346.182 105.616 362.905C105.334 365.552 105.109 367.86 104.827 370C103.194 384.414 102.574 390.383 106.235 422.815C108.658 444.324 107.137 454.178 106.179 460.653C105.672 463.806 105.334 466.115 105.616 468.592C105.728 469.944 105.897 471.014 106.01 471.971C106.461 475.236 106.63 476.588 105.109 482.05C104.602 483.851 104.32 487.849 104.433 489.763C104.602 492.579 105.841 493.761 112.882 493.818C120.712 493.93 124.824 493.874 129.386 493.818C130.964 493.818 131.245 493.086 131.358 492.804C132.034 491.002 129.781 486.892 127.978 485.259C127.077 484.414 126.176 483.795 125.331 483.232C120.712 479.91 117.895 477.939 120.768 453.221C121.388 447.646 123.81 437.849 126.57 426.532C130.513 410.541 134.907 392.41 135.414 381.824C135.92 371.07 133.273 362.173 131.189 355.023C129.781 350.18 128.541 345.957 128.654 342.41C128.71 339.2 130.175 332.218 132.146 322.59C134.005 313.637 136.258 302.545 138.512 289.707C138.568 289.426 138.681 288.919 138.906 287.905C140.314 282.106 144.539 264.369 145.102 244.043C145.834 218.254 140.483 198.829 129.105 186.216C126.57 183.401 125.443 179.347 126.063 175.124L134.231 116.059L134.963 118.818C135.076 119.155 144.201 155.079 146.848 176.363L146.904 176.813H146.848V176.869L146.904 177.151C147.242 180.023 147.468 182.5 147.524 184.527H147.58L147.637 185.146C147.637 185.653 147.637 186.104 147.637 186.498H147.693V186.836C147.693 189.707 148.031 192.523 148.763 195.563C149.777 199.955 152.932 207.838 155.072 212.117C155.635 213.187 156.199 214.426 156.875 215.721C158.283 218.592 159.973 222.14 162.282 226.475C162.507 226.869 162.733 227.32 163.014 227.77C164.366 230.191 166.056 233.232 166.676 237.286C166.732 237.736 166.845 238.637 166.901 239.538C166.957 240.101 167.014 240.664 167.014 241.059C167.408 245.113 168.309 249.336 169.042 252.883C169.661 255.754 171.295 260.822 171.295 260.878C171.295 260.935 172.759 265.777 172.985 266.453C173.266 267.354 173.773 269.155 174.28 271.239C174.674 272.928 175.181 273.491 175.294 273.491C175.519 273.491 175.688 273.435 175.688 273.378C175.801 273.266 175.745 272.872 175.688 272.703V272.646C175.632 272.421 175.407 271.351 175.181 270.282C174.956 269.268 174.674 268.142 174.505 267.354C173.886 264.426 173.266 260.878 173.323 260.259C173.435 259.64 173.717 259.302 173.942 259.189C174.167 259.077 174.562 258.964 175.125 259.245C175.576 259.471 175.857 260.203 176.984 264.313C177.209 265.158 177.434 266.002 177.66 266.565L177.772 266.959C178.223 268.536 179.068 271.126 179.8 272.59C180.026 273.041 180.195 273.378 180.364 273.773C180.814 274.673 181.096 275.293 181.546 275.574C181.603 275.631 181.828 275.631 181.941 275.574C181.941 275.574 182.053 275.518 182.053 275.293C182.053 274.617 180.983 271.295 180.364 269.493C180.138 268.818 179.969 268.254 179.857 267.86C179.35 266.284 178.561 261.948 178.561 261.104C178.561 260.935 178.561 260.766 178.561 260.653C178.505 260.09 178.505 259.527 178.843 259.133C179.012 258.964 179.237 258.851 179.462 258.851C180.476 258.795 180.983 260.484 181.828 264.538C181.941 264.989 181.997 265.383 182.053 265.608C182.222 266.284 182.673 267.973 183.124 269.606C183.574 271.295 184.081 272.984 184.25 273.66C184.419 274.448 184.701 275.462 185.039 275.687C185.039 275.687 185.095 275.743 185.264 275.687C185.827 275.518 185.827 275.349 185.715 274.504C185.658 274.167 185.377 273.041 185.095 271.971C184.757 270.619 184.419 269.155 184.307 268.649C184.25 268.142 184.081 267.297 183.912 266.453C183.743 265.664 183.631 264.82 183.574 264.369C183.462 263.75 183.349 263.131 183.293 262.511C183.067 261.047 182.842 259.809 182.842 259.245V259.077C182.842 258.345 182.898 257.838 183.969 257.556C184.194 257.5 184.419 257.556 184.588 257.669C185.039 257.95 185.546 258.795 186.165 263.018V263.187C186.165 263.356 186.222 263.581 186.278 263.919C186.447 264.989 186.672 266.903 187.123 269.493C187.461 271.464 187.912 272.928 188.024 273.322C188.137 273.66 188.193 273.773 188.193 273.773C188.193 273.773 188.193 273.773 188.25 273.773C188.306 273.773 188.362 273.773 188.475 273.773C188.925 273.716 188.925 272.759 188.925 272.59C188.925 271.745 188.644 267.917 188.475 266.059C188.362 264.932 188.25 263.525 188.193 262.399C188.137 261.667 188.081 260.991 188.081 260.597C187.968 258.964 187.912 258.063 187.855 256.993C187.855 256.43 187.799 255.754 187.743 254.91L187.63 253.108C187.517 250.687 187.405 249.448 187.461 247.534C187.517 242.466 188.024 242.128 188.362 241.959C189.094 241.509 189.77 242.241 190.615 243.311C191.066 243.818 191.573 244.437 192.136 244.944C192.362 245.169 193.713 246.351 195.46 246.971C196.53 247.365 197.938 247.59 198.445 247.421C198.952 247.252 199.121 247.14 199.008 246.633C198.952 246.351 198.276 245.957 197.713 245.619C196.924 245.169 195.967 244.55 195.122 243.649L194.558 243.086C192.981 241.453 190.784 239.2 188.7 235.878C187.799 234.471 185.715 232.556 183.687 231.768C182.786 231.43 181.828 231.149 180.983 230.923C179.462 230.529 178.786 230.304 178.505 229.91C178.11 229.347 176.252 224.054 175.632 222.14C174.9 219.887 172.928 212.342 172.14 208.964C170.957 204.065 170.112 198.66 169.999 195.169C169.886 191.396 169.323 185.428 168.816 182.275C168.366 179.234 167.633 176.475 166.338 172.815C166.281 172.703 166.281 172.534 165.606 168.874C165.324 167.466 165.042 165.777 164.873 164.989L164.592 165.045L164.535 164.426C162.507 144.043 158.17 123.097 158.114 122.928C158.114 122.815 155.635 111.836 154.79 107.275C152.087 92.5788 146.454 85.5968 135.92 84.0766L118.74 80.6982C113.276 79.6284 109.333 74.8423 109.333 69.268V60.7094C106.573 63.5811 103.363 65.1576 100.039 65.2139H99.983C96.6033 65.1576 93.3925 63.4684 90.6888 60.6531V69.2117C90.6888 74.786 86.7458 79.572 81.2819 80.6419L64.1018 84.0202C53.681 85.5968 47.8792 92.7477 45.2318 107.218C44.3868 111.723 41.9084 122.759 41.9084 122.872C41.8521 123.097 37.7401 150.968 34.98 170.225V170.338L34.9237 170.45C34.4167 171.351 34.0787 172.196 33.7971 172.984C32.5015 176.644 31.7693 179.347 31.3186 182.444C30.8117 185.653 30.2484 191.565 30.1357 195.338C30.0231 198.773 29.2345 204.234 27.9953 209.133C27.1503 212.511 25.1789 220.056 24.5029 222.309C23.8833 224.223 22.0245 229.459 21.6302 230.079C21.3485 230.473 20.6726 230.698 19.1517 231.092C18.3068 231.318 17.3492 231.599 16.4479 231.937C14.4765 232.669 12.336 234.64 11.4347 236.047C9.35057 239.369 7.15376 241.622 5.57657 243.254L5.01329 243.818C4.16836 244.718 3.21078 245.282 2.42218 245.788C1.8589 246.126 1.18296 246.577 1.12663 246.802C1.0703 247.252 1.18296 247.421 1.68991 247.59C2.19687 247.759 3.60508 247.534 4.67532 247.14C6.4215 246.52 7.71705 245.338 7.99869 245.113C8.56197 244.55 9.06893 243.986 9.51956 243.48C10.4208 242.466 11.0404 241.678 11.7727 242.128C12.0543 242.297 12.5613 242.635 12.6739 247.703C12.6739 249.617 12.6176 250.856 12.505 253.277L12.3923 255.079C12.336 255.923 12.336 256.543 12.2796 257.162C12.2233 258.232 12.2233 259.133 12.0543 260.766C11.998 261.16 11.998 261.779 11.9417 262.568C11.8854 263.694 11.7727 265.101 11.66 266.227C11.4911 268.086 11.2094 271.914 11.2094 272.759C11.2094 272.928 11.2094 273.885 11.66 273.941C11.8854 273.998 11.9417 273.941 11.9417 273.941C11.9417 273.941 11.998 273.829 12.1107 273.491C12.2233 273.097 12.6739 271.633 13.0119 269.662C13.4625 267.128 13.7442 265.158 13.8568 264.088C13.9132 263.75 13.9132 263.525 13.9695 263.356V263.187C14.5891 258.964 15.0961 258.119 15.5467 257.838C15.7157 257.725 15.941 257.669 16.1663 257.725C17.2365 258.007 17.2929 258.457 17.2929 259.245V259.414C17.2929 259.977 17.0676 261.216 16.8422 262.68C16.7296 263.3 16.6169 263.919 16.5606 264.538C16.5043 264.989 16.3353 265.833 16.2226 266.622C16.0537 267.466 15.941 268.367 15.8283 268.874C15.7157 269.437 15.3777 270.845 15.0397 272.252C14.7581 273.322 14.4765 274.504 14.4201 274.786C14.3075 275.631 14.3075 275.8 14.8708 275.968C15.0397 276.025 15.0961 275.968 15.0961 275.968C15.434 275.743 15.7157 274.73 15.8847 273.941C16.0537 273.266 16.5043 271.52 17.0112 269.887C17.4619 268.254 17.9125 266.565 18.0815 265.89C18.1378 265.664 18.1941 265.27 18.3068 264.82C19.1517 260.766 19.6587 259.077 20.6726 259.133C20.8979 259.133 21.1232 259.245 21.2922 259.414C21.6302 259.752 21.5738 260.315 21.5738 260.935C21.5738 261.104 21.5738 261.273 21.5738 261.385C21.5738 262.23 20.7852 266.565 20.2783 268.142C20.1656 268.536 19.9966 269.099 19.7713 269.775C19.208 271.577 18.1378 274.899 18.0815 275.574C18.0815 275.8 18.1378 275.856 18.1941 275.856C18.3068 275.912 18.4758 275.912 18.5884 275.856C19.0954 275.574 19.377 274.955 19.7713 274.054C19.9403 273.716 20.1093 273.322 20.3346 272.872C21.0669 271.408 21.9118 268.818 22.3624 267.241L22.4751 266.847C22.6441 266.227 22.8694 265.439 23.151 264.595C24.2776 260.541 24.5592 259.752 25.0099 259.527C25.5732 259.245 25.9674 259.358 26.1928 259.471C26.4181 259.583 26.756 259.865 26.8124 260.541C26.925 261.104 26.3054 264.651 25.6295 267.635C25.4605 268.423 25.1789 269.55 24.9535 270.563C24.7282 271.689 24.4466 272.703 24.4466 272.928V272.984C24.3903 273.153 24.3339 273.547 24.4466 273.66C24.5029 273.716 24.6156 273.773 24.8409 273.773C24.9535 273.773 25.4605 273.266 25.8548 271.52C26.3617 269.437 26.8687 267.635 27.1503 266.734C27.3757 266.002 28.8402 261.216 28.8402 261.16C28.8402 261.104 30.4737 255.98 31.1497 253.108C31.9383 249.561 32.7832 245.394 33.1775 241.284C33.2338 240.89 33.2338 240.327 33.2901 239.764C33.3465 238.919 33.4028 238.018 33.5155 237.511C34.1351 233.457 35.8249 230.417 37.1768 227.995C37.4584 227.545 37.6838 227.095 37.9091 226.7C40.2185 222.365 41.9647 218.818 43.3166 215.946C43.9362 214.595 44.5558 213.412 45.1191 212.342C47.2596 208.063 50.414 200.18 51.4279 195.788C52.1602 192.748 52.4981 189.989 52.4981 187.061V186.723H52.5544C52.4981 184.471 52.6671 181.43 53.1177 177.77V177.658C53.2867 177.151 53.4557 176.7 53.6247 176.194L53.85 175.631C55.0329 172.421 56.2721 160.597 56.3848 157.613V157.5C60.0461 138.75 65.0593 119.043 65.1157 118.818L65.8479 116.059L74.0156 175.124C74.5788 179.065 73.4523 183.119 70.9738 186.216C66.2986 192.072 58.131 205.135 56.0468 227.095C53.9063 244.606 60.8347 285.315 61.3417 288.356C63.6511 301.813 66.0169 313.412 67.9321 322.703C69.9036 332.331 71.3681 339.313 71.4245 342.522C71.4808 346.07 70.2979 350.236 68.8897 355.135C66.8055 362.286 64.2144 371.239 64.6651 381.937C65.172 392.522 69.5656 410.653 73.5086 426.644C76.2687 437.962 78.6908 447.759 79.3104 453.333C82.1832 478.052 79.3668 480.079 74.7478 483.345C73.9029 483.964 73.058 484.583 72.1004 485.372C70.2979 487.004 67.9884 491.059 68.7207 492.917C68.8334 493.142 69.0587 493.874 70.6922 493.93C75.2548 493.986 79.3668 494.043 87.1964 493.93C94.2375 493.818 95.4767 492.635 95.6457 489.876C95.7583 487.905 95.4767 483.964 94.9697 482.162C93.4489 476.7 93.6178 475.349 94.0685 472.083C94.1811 471.126 94.3501 470.113 94.4628 468.705C94.6881 466.227 94.3501 463.919 93.8995 460.766C92.8856 454.234 91.421 444.437 93.8432 422.928C97.5045 390.496 96.8286 384.527 95.2514 370.113C95.0261 367.973 94.7444 365.664 94.4628 363.018C92.7729 346.295 93.5052 342.354 94.7444 335.935C95.6457 331.318 96.7159 325.631 97.3355 313.074C99.4197 272.477 99.476 248.491 99.476 248.209V246.858V246.858ZM100.039 64.1441C103.137 64.0878 106.066 62.6238 108.658 59.9211L109.39 59.0765V58.9076L109.615 58.8513L109.953 58.4572C114.29 52.9392 116.769 44.4369 116.769 35.2027C116.769 32.8378 116.6 30.4729 116.262 28.1644H83.8167C83.4787 30.4729 83.3098 32.8378 83.3098 35.2027C83.3098 44.9437 86.1262 53.6148 90.4635 58.8513L90.6888 58.9076V59.1892C93.4489 62.2297 96.6033 64.0878 100.039 64.1441ZM68.3264 54.9662L88.9426 58.5135C84.8869 52.9955 82.2395 44.5495 82.2395 35.1464C82.2395 32.5563 82.4648 29.9662 82.8028 27.4887L82.8591 27.0383H117.219L117.276 27.4887C117.67 29.9662 117.839 32.5563 117.839 35.1464C117.839 44.3243 115.417 52.7702 111.192 58.5135L131.696 54.9662L128.598 40.045L125.556 23.5473C125.274 22.2522 124.936 20.9572 124.486 19.7747C120.993 9.63961 112.657 2.54501 102.856 1.24997L100.772 1.08105C100.546 1.08105 100.265 1.08105 99.983 1.08105C99.645 1.08105 99.4197 1.08105 99.138 1.08105H98.8564C88.323 1.64411 79.1414 8.96393 75.4238 19.7184C75.0295 20.9009 74.6352 22.1396 74.4099 23.4347L71.7624 37.9054L68.3264 54.9662Z" fill="white"/>
<path d="M110.742 241.002L100.039 247.421L89.3932 241.002" fill="#F8E0D8"/>
<path d="M100.039 247.984C99.9266 247.984 99.814 247.984 99.7577 247.928L89.0553 241.509C88.7736 241.34 88.7173 241.002 88.8863 240.721C89.0553 240.439 89.3932 240.383 89.6749 240.552L100.039 246.802L110.404 240.552C110.685 240.383 111.023 240.495 111.192 240.721C111.361 241.002 111.249 241.34 111.023 241.509L100.321 247.928C100.265 247.984 100.152 247.984 100.039 247.984Z" fill="white"/>
<path d="M94.9698 492.691C95.1388 487.286 86.6332 485.597 85.9572 494.38Z" fill="#F8E0D8"/>
<path d="M85.9009 494.944C85.5629 494.944 85.3376 494.662 85.3376 494.324C85.7319 489.2 88.6047 487.511 90.9705 487.68C93.2799 487.793 95.5894 489.707 95.4767 492.748C95.4767 493.085 95.1951 493.311 94.9134 493.311C94.5755 493.311 94.3502 493.029 94.3502 492.748C94.4065 490.326 92.604 488.919 90.9141 488.862C89.0553 488.75 86.8022 490.158 86.4642 494.493C86.4642 494.718 86.2389 494.944 85.9009 494.944Z" fill="white"/>
<path d="M85.9009 494.381C86.3515 490.101 81.282 488.863 80.5497 494.381Z" fill="#F8E0D8"/>
<path d="M80.606 494.944H80.5497C80.2681 494.888 80.0428 494.606 80.0428 494.324C80.4371 491.171 82.2396 489.989 83.7604 490.158C85.2813 490.327 86.7458 491.903 86.4642 494.437C86.4079 494.719 86.1262 494.944 85.8446 494.944C85.5629 494.888 85.3376 494.606 85.3376 494.324C85.5066 492.523 84.6053 491.397 83.5914 491.284C82.5775 491.171 81.3946 492.072 81.113 494.437C81.113 494.719 80.8877 494.944 80.606 494.944Z" fill="white"/>
<path d="M80.5497 494.381C80.944 490.777 76.5504 490.101 76.0434 494.381Z" fill="#F8E0D8"/>
<path d="M76.0434 494.944H75.9871C75.7054 494.887 75.4801 494.606 75.4801 494.324C75.7618 491.734 77.3953 490.721 78.7472 490.89C80.0991 491.058 81.3383 492.297 81.113 494.437C81.0566 494.718 80.8313 494.944 80.4934 494.944C80.2117 494.887 79.9864 494.662 79.9864 494.324C80.1554 492.86 79.3668 492.072 78.6345 492.016C77.8459 491.903 76.832 492.635 76.6067 494.493C76.5504 494.718 76.3251 494.944 76.0434 494.944Z" fill="white"/>
<path d="M76.0434 494.381C76.4377 491.002 72.2131 490.326 71.7625 494.381Z" fill="#F8E0D8"/>
<path d="M76.0434 494.944H75.9871C75.7055 494.887 75.4801 494.606 75.4801 494.324C75.5928 493.48 75.3675 492.748 74.8605 492.41C74.4662 492.128 74.0156 492.072 73.565 492.241C72.889 492.523 72.4384 493.311 72.3258 494.437C72.2694 494.719 71.9878 494.944 71.7061 494.944C71.4245 494.887 71.1992 494.606 71.1992 494.324C71.3682 492.804 72.0441 491.678 73.1144 491.228C73.903 490.89 74.8042 491.002 75.4801 491.509C76.3251 492.128 76.7194 493.198 76.5504 494.493C76.5504 494.719 76.3251 494.944 76.0434 494.944Z" fill="white"/>
<path d="M71.7061 494.381C71.9878 491.565 69.2277 490.721 67.8758 492.579Z" fill="#F8E0D8"/>
<path d="M71.7061 494.944H71.6498C71.3682 494.887 71.1429 494.606 71.1429 494.324C71.2555 493.086 70.7486 492.466 70.1853 492.241C69.5093 492.016 68.8334 492.241 68.3264 492.917C68.1575 493.142 67.8195 493.255 67.5378 493.029C67.3125 492.86 67.1999 492.523 67.4252 492.241C68.2138 491.171 69.453 490.721 70.5796 491.171C71.5372 491.509 72.4384 492.579 72.2694 494.437C72.2694 494.718 72.0441 494.944 71.7061 494.944Z" fill="white"/>
<path d="M86.0135 492.973C85.9572 492.973 85.9572 492.973 86.0135 492.973C85.6756 492.917 85.4503 492.691 85.4503 492.354L85.8446 487.68C85.8446 487.342 86.1262 487.117 86.4642 487.173C86.8021 487.173 87.0274 487.455 86.9711 487.793L86.5768 492.466C86.5205 492.804 86.2952 492.973 86.0135 492.973Z" fill="white"/>
<path d="M80.5497 493.198C80.4934 493.198 80.4934 493.198 80.437 493.198C80.1554 493.142 79.9301 492.86 79.9864 492.579L80.7187 488.018C80.775 487.736 81.0566 487.511 81.3383 487.568C81.6199 487.624 81.8452 487.905 81.7889 488.187L81.0566 492.748C81.0566 493.029 80.8313 493.198 80.5497 493.198Z" fill="white"/>
<path d="M76.0998 493.198C76.0434 493.198 76.0434 493.198 75.9871 493.198C75.7055 493.142 75.4802 492.86 75.5365 492.523L76.2124 488.694C76.2688 488.412 76.5504 488.187 76.8884 488.243C77.17 488.3 77.3953 488.581 77.339 488.919L76.6631 492.748C76.6067 493.029 76.3251 493.198 76.0998 493.198Z" fill="white"/>
<path d="M71.7061 493.198C71.6498 493.198 71.6498 493.198 71.5935 493.198C71.3118 493.142 71.0865 492.86 71.1428 492.523L71.8188 489.144C71.8751 488.863 72.1568 488.637 72.4947 488.694C72.7764 488.75 73.0017 489.032 72.9454 489.369L72.2694 492.748C72.1568 493.029 71.9314 493.198 71.7061 493.198Z" fill="white"/>
<path d="M104.996 492.691C104.827 487.286 113.333 485.597 114.009 494.381Z" fill="#F8E0D8"/>
<path d="M114.009 494.944C113.727 494.944 113.445 494.718 113.445 494.437C113.107 490.101 110.854 488.694 108.996 488.806C107.249 488.919 105.447 490.327 105.559 492.691C105.559 493.029 105.334 493.254 104.996 493.254C104.658 493.254 104.433 493.029 104.433 492.691C104.32 489.707 106.63 487.736 108.939 487.624C111.305 487.511 114.178 489.144 114.572 494.268C114.572 494.606 114.347 494.887 114.009 494.944C114.009 494.944 114.065 494.944 114.009 494.944Z" fill="white"/>
<path d="M114.009 494.38C113.558 490.101 118.628 488.862 119.36 494.38Z" fill="#F8E0D8"/>
<path d="M119.36 494.944C119.078 494.944 118.853 494.718 118.797 494.437C118.515 492.072 117.332 491.115 116.318 491.284C115.361 491.396 114.403 492.522 114.572 494.324C114.628 494.606 114.403 494.887 114.065 494.944C113.783 495 113.502 494.775 113.445 494.437C113.164 491.903 114.628 490.326 116.149 490.158C117.726 489.989 119.473 491.171 119.867 494.324C119.923 494.606 119.698 494.887 119.36 494.944C119.36 494.944 119.416 494.944 119.36 494.944Z" fill="white"/>
<path d="M119.416 494.38C119.022 490.777 123.416 490.101 123.923 494.38Z" fill="#F8E0D8"/>
<path d="M123.866 494.943C123.585 494.943 123.359 494.718 123.303 494.437C123.078 492.635 122.12 491.903 121.275 491.959C120.543 492.016 119.754 492.804 119.923 494.268C119.98 494.549 119.754 494.831 119.416 494.887C119.135 494.944 118.853 494.718 118.797 494.38C118.571 492.241 119.811 490.946 121.162 490.833C122.514 490.664 124.148 491.678 124.43 494.268C124.486 494.549 124.261 494.831 123.923 494.887C123.923 494.944 123.923 494.943 123.866 494.943Z" fill="white"/>
<path d="M123.923 494.38C123.528 491.002 127.753 490.326 128.204 494.38Z" fill="#F8E0D8"/>
<path d="M123.923 494.943C123.641 494.943 123.416 494.718 123.359 494.437C123.19 493.198 123.585 492.072 124.43 491.452C125.105 490.946 126.007 490.833 126.795 491.171C127.866 491.621 128.541 492.747 128.71 494.268C128.767 494.549 128.541 494.831 128.204 494.887C127.866 494.943 127.64 494.718 127.584 494.38C127.471 493.254 127.021 492.466 126.345 492.184C125.894 492.016 125.443 492.072 125.049 492.353C124.542 492.747 124.317 493.423 124.43 494.268C124.486 494.549 124.261 494.831 123.923 494.887C123.979 494.943 123.923 494.943 123.923 494.943Z" fill="white"/>
<path d="M128.203 494.38C127.922 491.565 130.682 490.72 132.034 492.578Z" fill="#F8E0D8"/>
<path d="M128.204 494.943C127.922 494.943 127.697 494.718 127.64 494.437C127.415 492.579 128.372 491.565 129.33 491.171C130.457 490.72 131.752 491.171 132.484 492.241C132.653 492.466 132.597 492.86 132.372 493.029C132.09 493.198 131.752 493.142 131.583 492.916C131.076 492.241 130.4 491.959 129.724 492.241C129.161 492.466 128.654 493.085 128.767 494.324C128.823 494.606 128.598 494.887 128.26 494.943H128.204Z" fill="white"/>
<path d="M113.952 492.973C113.671 492.973 113.389 492.748 113.389 492.466L112.995 487.793C112.995 487.455 113.22 487.23 113.502 487.173C113.84 487.117 114.065 487.399 114.121 487.68L114.516 492.353C114.516 492.691 114.29 492.973 113.952 492.973C113.952 492.973 114.009 492.973 113.952 492.973Z" fill="white"/>
<path d="M119.36 493.198C119.078 493.198 118.853 492.973 118.797 492.748L118.064 488.187C118.008 487.905 118.233 487.568 118.515 487.568C118.797 487.511 119.135 487.736 119.135 488.018L119.867 492.579C119.923 492.86 119.698 493.198 119.416 493.198C119.416 493.198 119.416 493.198 119.36 493.198Z" fill="white"/>
<path d="M123.866 493.198C123.585 493.198 123.359 493.029 123.303 492.748L122.627 488.919C122.571 488.637 122.796 488.299 123.078 488.243C123.359 488.187 123.697 488.412 123.754 488.694L124.429 492.522C124.486 492.804 124.261 493.142 123.979 493.198C123.923 493.198 123.866 493.198 123.866 493.198Z" fill="white"/>
<path d="M128.26 493.198C127.978 493.198 127.753 493.029 127.697 492.748L127.021 489.369C126.964 489.088 127.133 488.75 127.471 488.694C127.753 488.637 128.091 488.806 128.147 489.144L128.823 492.522C128.879 492.804 128.71 493.142 128.372 493.198C128.316 493.198 128.316 493.198 128.26 493.198Z" fill="white"/>
<path d="M67.8758 134.189C69.284 139.876 74.3536 144.155 80.437 144.38C87.8724 144.662 94.1248 139.482 94.3501 132.049" fill="#F8E0D8"/>
<path d="M81.0003 144.944C80.8313 144.944 80.606 144.944 80.437 144.944C74.2409 144.718 68.8334 140.383 67.3125 134.358C67.2562 134.076 67.4251 133.739 67.7068 133.682C67.9884 133.626 68.3264 133.795 68.3827 134.076C69.7909 139.594 74.7478 143.648 80.437 143.817C87.816 144.099 93.5615 139.031 93.7868 132.049C93.7868 131.712 94.0685 131.486 94.3501 131.486C94.6881 131.486 94.9134 131.768 94.9134 132.049C94.6881 139.482 88.7173 144.944 81.0003 144.944Z" fill="white"/>
<path d="M96.8286 91.2838C97.1666 92.6914 98.4058 93.7612 99.983 93.8175C101.616 93.8738 103.025 92.7477 103.363 91.1711" fill="#F8E0D8"/>
<path d="M100.039 94.3806C99.983 94.3806 99.9266 94.3806 99.8703 94.3806C98.1241 94.3243 96.6596 93.0855 96.209 91.4526C96.1526 91.1711 96.3216 90.8333 96.6033 90.777C96.8849 90.7207 97.2229 90.8896 97.2792 91.1711C97.5609 92.3535 98.6311 93.2544 99.8703 93.2544C101.222 93.3108 102.405 92.4099 102.687 91.0585C102.743 90.777 103.025 90.5517 103.363 90.6081C103.644 90.6644 103.87 90.9459 103.813 91.2837C103.475 93.0855 101.898 94.3806 100.039 94.3806Z" fill="white"/>
<path d="M105.728 132.049C106.01 139.482 112.206 144.606 119.642 144.38C125.781 144.155 130.795 139.876 132.203 134.189" fill="#F8E0D8"/>
<path d="M119.135 144.944C115.586 144.944 112.206 143.761 109.671 141.509C106.911 139.144 105.334 135.766 105.222 132.049C105.222 131.712 105.447 131.486 105.785 131.486C106.123 131.486 106.348 131.712 106.348 132.049C106.461 135.428 107.925 138.525 110.404 140.664C112.882 142.804 116.149 143.93 119.642 143.817C125.331 143.592 130.288 139.594 131.696 134.076C131.752 133.795 132.09 133.57 132.372 133.682C132.653 133.739 132.879 134.076 132.766 134.358C131.245 140.383 125.838 144.718 119.642 144.944C119.529 144.944 119.304 144.944 119.135 144.944Z" fill="white"/>
<path d="M60.9474 84.1892C73.396 85.2027 88.9989 89.1442 88.9989 89.1442Z" fill="#F8E0D8"/>
<path d="M88.9989 89.7071C88.9426 89.7071 88.8863 89.7071 88.8863 89.7071C88.7173 89.6508 73.1707 85.7657 60.8911 84.7522C60.5531 84.7522 60.3278 84.4706 60.3841 84.1328C60.3841 83.795 60.6658 83.5697 61.0037 83.6261C73.3396 84.6396 88.9989 88.5247 89.1679 88.581C89.4496 88.6373 89.6749 88.9752 89.5622 89.2567C89.5059 89.5382 89.2243 89.7071 88.9989 89.7071Z" fill="white"/>
<path d="M138.624 84.189C126.176 85.2025 110.573 89.1439 110.573 89.1439Z" fill="#F8E0D8"/>
<path d="M110.516 89.7071C110.291 89.7071 110.009 89.5381 109.953 89.2566C109.897 88.9751 110.066 88.6372 110.347 88.5809C110.516 88.5246 126.176 84.5832 138.512 83.626C138.793 83.626 139.075 83.8512 139.131 84.1327C139.131 84.4706 138.906 84.6958 138.624 84.7521C126.401 85.7093 110.798 89.6508 110.629 89.7071C110.629 89.7071 110.573 89.7071 110.516 89.7071Z" fill="white"/>
<path d="M129.217 341.171C127.697 348.041 120.487 348.998 115.642 347.984Z" fill="#F8E0D8"/>
<path d="M118.909 348.941C117.783 348.941 116.6 348.829 115.473 348.604C115.192 348.547 114.966 348.266 115.023 347.928C115.079 347.59 115.361 347.421 115.699 347.477C119.811 348.322 127.133 347.928 128.654 341.058C128.71 340.777 129.048 340.552 129.33 340.608C129.612 340.664 129.837 341.002 129.781 341.284C128.598 346.745 123.81 348.941 118.909 348.941Z" fill="white"/>
<path d="M70.9175 341.171C72.4384 348.041 79.6484 348.998 84.4927 347.984Z" fill="#F8E0D8"/>
<path d="M81.1693 348.942C76.325 348.942 71.5371 346.746 70.2979 341.34C70.2416 341.059 70.4106 340.721 70.7485 340.664C71.0302 340.608 71.3681 340.777 71.4245 341.115C72.9453 347.984 80.268 348.378 84.38 347.534C84.6616 347.478 84.9996 347.646 85.0559 347.984C85.1123 348.266 84.9433 348.604 84.6053 348.66C83.4787 348.829 82.3522 348.942 81.1693 348.942Z" fill="white"/>
<path d="M100.039 181.092C100.941 181.092 101.673 180.361 101.673 179.459C101.673 178.557 100.941 177.826 100.039 177.826C99.1372 177.826 98.4058 178.557 98.4058 179.459C98.4058 180.361 99.1372 181.092 100.039 181.092Z" fill="#F8E0D8"/>
<path d="M100.039 181.655C98.8564 181.655 97.8425 180.698 97.8425 179.459C97.8425 178.221 98.8001 177.263 100.039 177.263C101.279 177.263 102.236 178.221 102.236 179.459C102.236 180.698 101.279 181.655 100.039 181.655ZM100.039 178.446C99.476 178.446 98.9691 178.896 98.9691 179.516C98.9691 180.135 99.4197 180.585 100.039 180.585C100.659 180.585 101.11 180.135 101.11 179.516C101.11 178.896 100.659 178.446 100.039 178.446Z" fill="white"/>
<path d="M60.9474 288.637C60.891 288.412 60.891 288.187 60.8347 287.962C60.8347 287.905 60.8347 287.905 60.8347 287.849C60.8347 287.736 60.7784 287.624 60.7784 287.567C60.7221 287.23 60.6657 286.835 60.6094 286.498C60.5531 286.16 60.4967 285.766 60.4404 285.428C60.3841 285.034 60.3278 284.696 60.2714 284.302C60.1588 283.795 60.1024 283.232 59.9898 282.725C59.8771 282.106 59.8208 281.543 59.7081 280.923C59.5955 280.248 59.4828 279.516 59.3702 278.84C59.0885 276.982 58.8069 275.124 58.5252 273.266C57.5113 266.34 56.6101 259.076 55.8215 251.588C54.8639 242.41 54.9202 234.245 55.5962 227.038C55.6525 226.7 55.6525 226.362 55.7088 226.025C55.8215 224.786 55.9905 223.603 56.1594 222.421C56.2158 221.971 56.2721 221.576 56.3284 221.126C56.4974 220.169 56.6101 219.268 56.7791 218.311C56.8354 218.029 56.8917 217.691 56.948 217.41C57.117 216.621 57.286 215.777 57.455 214.989C57.455 214.876 57.5113 214.82 57.5113 214.707C57.5677 214.426 57.624 214.144 57.6803 213.862C57.793 213.299 57.962 212.793 58.0746 212.23V212.173C58.1309 211.892 58.1873 211.61 58.2999 211.329C58.3563 211.047 58.4689 210.766 58.5252 210.54C58.7506 209.752 58.9759 208.964 59.2012 208.176C59.3702 207.612 59.5392 207.049 59.7081 206.543C59.8208 206.149 59.9898 205.754 60.1024 205.36C60.1024 205.304 60.1588 205.248 60.1588 205.248C60.2151 205.022 60.3278 204.797 60.4404 204.516C60.4967 204.29 60.6094 204.065 60.7221 203.84C61.0037 203.164 61.229 202.489 61.5106 201.813C61.6233 201.588 61.6796 201.362 61.7923 201.137C61.9049 200.912 61.9613 200.687 62.0739 200.518V200.462C62.2429 200.124 62.3556 199.786 62.5246 199.448C62.5809 199.392 62.5809 199.279 62.6372 199.223C62.6935 199.054 62.8062 198.829 62.9189 198.66C63.0878 198.266 63.3132 197.871 63.4821 197.477C63.5948 197.196 63.7638 196.914 63.9328 196.633C64.0454 196.351 64.2144 196.07 64.3271 195.844C64.4397 195.676 64.4961 195.507 64.6087 195.338C64.8903 194.775 65.2283 194.212 65.51 193.649C65.6789 193.367 65.7916 193.142 65.9606 192.86C65.9606 192.804 66.0169 192.804 66.0169 192.748C66.0732 192.579 66.1859 192.466 66.2986 192.297C66.4112 192.072 66.5239 191.903 66.6365 191.678C66.8055 191.396 66.9745 191.171 67.1435 190.889C67.2561 190.721 67.3125 190.608 67.4251 190.439C67.5378 190.326 67.5941 190.158 67.7068 190.045C67.8194 189.932 67.8758 189.763 67.9884 189.651C69.0023 188.13 69.9599 186.835 70.8048 185.766" fill="#F8E0D8"/>
<path d="M60.9474 289.2C60.6657 289.2 60.4404 289.031 60.3841 288.75V288.694L60.2714 288.074C60.2714 288.018 60.2714 288.018 60.2714 287.962C60.2714 287.905 60.2714 287.849 60.2151 287.736L59.8208 285.484C59.7645 285.09 59.7082 284.752 59.6518 284.358C59.5392 283.851 59.4829 283.288 59.3702 282.781C59.2575 282.162 59.2012 281.599 59.0886 280.98L58.7506 278.896C58.4689 277.038 58.1873 275.18 57.9057 273.322C56.8354 265.946 55.9342 258.626 55.2019 251.588C54.3006 242.973 54.2443 234.696 54.9766 226.926C55.0329 226.531 55.0329 226.25 55.0892 225.912C55.2019 224.673 55.3709 223.435 55.5399 222.309C55.5962 221.858 55.6525 221.408 55.7088 221.013C55.8778 220.056 55.9905 219.099 56.1595 218.198C56.2158 217.917 56.2721 217.579 56.3285 217.297C56.4974 216.453 56.6664 215.664 56.8354 214.876L56.8917 214.595C56.9481 214.313 57.0044 214.031 57.0607 213.75C57.1734 213.187 57.3424 212.68 57.455 212.117V212.061C57.5114 211.779 57.624 211.498 57.6803 211.216C57.7367 210.935 57.8493 210.653 57.9057 210.372C58.131 209.527 58.3563 208.739 58.5816 208.007C58.7506 207.444 58.9196 206.881 59.0886 206.318C59.2012 205.923 59.3702 205.529 59.4828 205.135V205.079V205.022C59.5955 204.741 59.6518 204.516 59.7645 204.29C59.8208 204.065 59.9335 203.84 60.0461 203.615C60.3278 202.939 60.5531 202.207 60.8347 201.588C60.9474 201.363 61.0037 201.137 61.1164 200.912C61.1727 200.743 61.229 200.574 61.3417 200.405L61.398 200.293V200.236C61.567 199.899 61.6797 199.561 61.8486 199.223L61.9613 198.998C62.074 198.772 62.1303 198.604 62.2429 198.435C62.4119 198.04 62.6372 197.646 62.8062 197.252C62.9189 196.971 63.0879 196.633 63.2569 196.351C63.3695 196.126 63.4822 195.901 63.5948 195.676L63.9328 195C64.2708 194.437 64.5524 193.874 64.834 193.311C65.003 193.029 65.1157 192.804 65.2847 192.522C65.2847 192.466 65.341 192.41 65.341 192.41C65.3973 192.297 65.51 192.128 65.5663 192.016L65.9043 191.453C66.0733 191.115 66.2423 190.89 66.4112 190.608C66.5239 190.439 66.5802 190.327 66.6929 190.158C66.7492 190.045 66.8619 189.876 66.9745 189.763L67.2562 189.369C68.2138 187.962 69.1713 186.667 70.1289 185.428C70.2979 185.203 70.6922 185.146 70.9175 185.315C71.1428 185.484 71.1992 185.878 71.0302 186.104C70.0726 187.286 69.115 188.581 68.2138 189.932L67.9321 190.327C67.8195 190.439 67.7631 190.608 67.6505 190.721C67.5378 190.89 67.4815 191.002 67.3688 191.171C67.1998 191.453 67.0309 191.678 66.8619 191.959L66.5239 192.522C66.4112 192.691 66.3549 192.804 66.2986 192.973L66.2423 193.086C66.0733 193.367 65.9606 193.592 65.7916 193.874C65.51 194.381 65.172 194.944 64.8904 195.507L64.5524 196.182C64.4397 196.408 64.3271 196.633 64.2144 196.858C64.0455 197.14 63.9328 197.421 63.7638 197.703C63.5948 198.097 63.3695 198.491 63.2005 198.885C63.0879 199.054 63.0315 199.279 62.9752 199.448L62.8626 199.673C62.6936 200.011 62.5809 200.349 62.4119 200.687V200.743L62.3556 200.856C62.2993 201.025 62.2429 201.194 62.1303 201.363C62.0176 201.588 61.9613 201.813 61.8486 202.038C61.567 202.714 61.3417 203.39 61.06 204.065C60.9474 204.29 60.8911 204.516 60.8347 204.741C60.7221 204.966 60.6657 205.191 60.6094 205.417L60.5531 205.529V205.586C60.4404 205.98 60.2714 206.374 60.1588 206.768C59.9898 207.331 59.8208 207.838 59.6518 208.401C59.4265 209.133 59.2012 209.921 58.9759 210.709C58.9196 210.991 58.8069 211.216 58.7506 211.498C58.6943 211.779 58.5816 212.061 58.5253 212.342V212.399C58.4126 212.962 58.2436 213.468 58.131 214.031C58.0746 214.313 58.0183 214.595 57.962 214.876L57.9057 215.158C57.7367 215.946 57.5677 216.734 57.3987 217.522C57.3424 217.804 57.286 218.142 57.2297 218.423C57.0607 219.324 56.8917 220.281 56.7791 221.182C56.7228 221.633 56.6664 222.027 56.6101 222.477C56.4411 223.66 56.2721 224.842 56.1595 226.081C56.1031 226.419 56.1031 226.757 56.0468 227.038C55.3145 234.752 55.3709 242.973 56.2721 251.475C57.0044 258.513 57.9057 265.777 58.9759 273.153C59.2575 275.011 59.5392 276.869 59.8208 278.727L60.1588 280.811C60.2714 281.43 60.3278 281.993 60.4404 282.613C60.4968 283.119 60.6094 283.682 60.7221 284.189C60.7784 284.583 60.8347 284.921 60.8911 285.315L61.2854 287.568C61.2854 287.624 61.2854 287.68 61.3417 287.736V287.793L61.4543 288.468C61.4543 288.525 61.4543 288.581 61.4543 288.581C61.5107 288.975 61.229 289.2 60.9474 289.2Z" fill="white"/>
<path d="M139.188 288.637C139.3 287.905 139.413 287.23 139.526 286.498C139.976 283.626 140.483 280.698 140.934 277.714C140.99 277.263 141.046 276.869 141.103 276.419C141.272 275.349 141.441 274.279 141.553 273.209C142.567 266.284 143.469 259.076 144.257 251.588C145.215 242.41 145.158 234.245 144.482 227.038C144.426 226.7 144.426 226.363 144.37 226.025C144.257 225.011 144.144 223.998 144.032 223.04C143.975 222.703 143.919 222.365 143.919 222.083C143.525 219.493 143.074 217.072 142.567 214.763C142.511 214.482 142.455 214.2 142.398 213.975C142.342 213.637 142.229 213.299 142.173 212.962C142.06 212.455 141.891 211.892 141.779 211.385C141.497 210.315 141.159 209.245 140.877 208.232C140.821 207.95 140.708 207.725 140.652 207.5C140.596 207.275 140.483 206.993 140.427 206.768C140.37 206.543 140.258 206.261 140.201 206.036C139.92 205.248 139.638 204.459 139.357 203.727C139.244 203.333 139.075 202.995 138.906 202.601C138.737 202.094 138.512 201.644 138.343 201.194C138.23 200.968 138.174 200.743 138.061 200.574C138.061 200.574 138.061 200.574 138.061 200.518C138.005 200.349 137.892 200.124 137.779 199.955C137.498 199.335 137.216 198.66 136.934 198.097C136.653 197.534 136.371 196.971 136.146 196.464C135.977 196.07 135.752 195.732 135.583 195.394C135.414 195.056 135.188 194.662 135.019 194.324C134.907 194.155 134.85 193.986 134.738 193.817C134.738 193.817 134.681 193.761 134.681 193.705C134.512 193.423 134.4 193.198 134.231 192.917C134.231 192.86 134.174 192.86 134.174 192.804C134.062 192.635 134.005 192.466 133.893 192.353C133.78 192.185 133.667 191.959 133.555 191.79C133.386 191.509 133.217 191.284 133.048 191.002C132.935 190.833 132.879 190.721 132.766 190.552C132.653 190.439 132.597 190.27 132.484 190.158C132.372 190.045 132.315 189.876 132.203 189.763C132.034 189.482 131.865 189.257 131.696 189.031C131.583 188.919 131.527 188.806 131.414 188.637C131.245 188.412 131.076 188.187 130.907 187.962C130.626 187.567 130.344 187.23 130.119 186.892C130.006 186.723 129.837 186.554 129.724 186.385C129.612 186.216 129.499 186.047 129.33 185.935" fill="#F8E0D8"/>
<path d="M139.188 289.2C139.131 289.2 139.131 289.2 139.075 289.2C138.793 289.144 138.568 288.862 138.624 288.525L138.962 286.385C139.469 283.232 139.976 280.36 140.37 277.601C140.427 277.151 140.483 276.757 140.539 276.306C140.708 275.236 140.877 274.167 140.99 273.097C142.06 265.721 142.962 258.457 143.694 251.475C144.595 242.973 144.651 234.696 143.919 227.038C143.863 226.7 143.863 226.362 143.806 226.025C143.694 225.011 143.581 223.998 143.468 223.04C143.412 222.703 143.356 222.421 143.356 222.083C143.018 219.606 142.567 217.128 142.004 214.82C141.948 214.538 141.891 214.313 141.835 214.031C141.779 213.694 141.666 213.356 141.61 213.018C141.497 212.511 141.328 212.004 141.215 211.498C140.934 210.484 140.652 209.414 140.314 208.344C140.258 208.063 140.145 207.838 140.089 207.612C140.032 207.387 139.92 207.106 139.863 206.88L139.638 206.148C139.357 205.36 139.075 204.628 138.85 203.896C138.737 203.502 138.568 203.164 138.455 202.826C138.286 202.32 138.061 201.869 137.892 201.419C137.836 201.25 137.723 201.081 137.667 200.912L137.61 200.799C137.61 200.799 137.61 200.799 137.61 200.743C137.61 200.743 137.61 200.743 137.61 200.687C137.554 200.518 137.441 200.293 137.385 200.124C137.103 199.504 136.822 198.885 136.54 198.266C136.258 197.703 136.033 197.139 135.752 196.633C135.583 196.239 135.357 195.901 135.188 195.563C135.019 195.225 134.794 194.887 134.625 194.549C134.512 194.38 134.456 194.212 134.343 194.043L134.287 193.93C134.118 193.649 134.005 193.423 133.836 193.142L133.78 193.085C133.667 192.917 133.555 192.748 133.498 192.579L133.16 192.016C132.991 191.734 132.822 191.509 132.653 191.227C132.541 191.058 132.484 190.946 132.372 190.833C132.259 190.664 132.203 190.552 132.09 190.439L131.809 190.045V189.989C131.64 189.763 131.471 189.482 131.302 189.257L131.245 189.144C131.189 189.088 131.133 188.975 131.076 188.919C130.907 188.694 130.738 188.468 130.569 188.243C130.288 187.849 130.062 187.511 129.781 187.173C129.668 187.004 129.555 186.835 129.443 186.723L129.048 186.216C128.879 185.991 128.879 185.597 129.161 185.428C129.386 185.259 129.781 185.259 129.95 185.54L130.344 185.991C130.457 186.16 130.626 186.329 130.738 186.498C131.02 186.835 131.245 187.173 131.527 187.567C131.696 187.793 131.865 188.018 132.034 188.243C132.09 188.299 132.146 188.412 132.203 188.525L132.259 188.637C132.428 188.862 132.597 189.144 132.766 189.426L133.048 189.82C133.16 189.989 133.217 190.101 133.329 190.27C133.442 190.383 133.498 190.552 133.611 190.721C133.78 190.946 133.949 191.227 134.118 191.509L134.456 192.072C134.569 192.241 134.625 192.41 134.738 192.579C134.738 192.579 134.794 192.635 134.794 192.691C134.963 192.973 135.076 193.198 135.245 193.48L135.301 193.592C135.414 193.761 135.47 193.93 135.583 194.099C135.752 194.437 135.977 194.775 136.146 195.169C136.315 195.507 136.54 195.901 136.709 196.295C136.991 196.802 137.272 197.365 137.554 197.984C137.836 198.603 138.117 199.223 138.399 199.898C138.512 200.067 138.568 200.293 138.624 200.462C138.624 200.462 138.624 200.518 138.681 200.574L138.737 200.687C138.793 200.856 138.906 201.025 138.962 201.194C139.131 201.644 139.357 202.151 139.526 202.601C139.694 202.939 139.807 203.333 139.976 203.727C140.258 204.459 140.539 205.248 140.821 206.036L141.046 206.768C141.103 206.993 141.215 207.275 141.272 207.5C141.328 207.725 141.441 208.007 141.497 208.288C141.835 209.358 142.117 210.428 142.398 211.441C142.511 211.948 142.68 212.455 142.793 213.018C142.849 213.356 142.962 213.694 143.018 214.031C143.074 214.313 143.131 214.538 143.187 214.82C143.75 217.185 144.201 219.662 144.539 222.139C144.595 222.477 144.651 222.815 144.651 223.097C144.764 224.054 144.933 225.067 144.989 226.081C145.046 226.419 145.046 226.757 145.102 227.094C145.834 234.865 145.778 243.142 144.877 251.757C144.144 258.739 143.243 266.002 142.173 273.435C142.004 274.504 141.835 275.574 141.722 276.644C141.666 277.094 141.61 277.489 141.553 277.939C141.159 280.698 140.652 283.57 140.145 286.723L139.807 288.862C139.694 289.031 139.469 289.2 139.188 289.2Z" fill="white"/>
</svg>
