<svg xmlns="http://www.w3.org/2000/svg" viewbox="0 0 38 78" fill="none"><path fill="currentColor" d="m25.244 30.666.104-3.082c0-.418.052-.81.156-1.228l.778-3.395s.052 2.429.908 4.544a16.175 16.175 0 0 1 3.943-1.123c-.285-2.01-.752-4.074-.674-6.242.026-.862.052-1.515-.078-2.22-.39-2.141-1.608-3.186-3.372-3.552l-3.788-.914c-.856-.235-1.635-.757-1.712-1.828V9.615h-4.67v2.011c-.078 1.097-.856 1.62-1.712 1.828l-3.788.862c-1.764.366-3.01 1.437-3.373 3.552-.13.705-.13 1.358-.078 2.22.104 2.429-.519 4.753-.752 7 .493.026.986.026 1.479.078.389.052.752.104 1.141.157.364.052.934.104 1.35.313.025-.052.025-.104.051-.157.882-2.115.934-4.544.934-4.544l.778 3.395c.078.392.13.81.156 1.228l.104 3.082v1.41s-1.168 2.194-1.479 6.138c-.233 1.593-.233 2.376-.207 3.865.026 1.593.207 3.395.155 4.988.467 4.519 2.102 6.033 2.128 7.34.103 4.152-.649 4.1-.52 6.868.13 2.769 1.843 7.365 2.076 9.455.519 4.44-.804 4.126-1.738 4.936-.363.34-.96 1.462-.156 1.462.649 0 1.946.026 3.165 0 1.038-.026 1.35-.182 1.375-.705a4.915 4.915 0 0 0-.103-1.227c-.286-1.045-.156-1.176-.078-2.142.104-1.201-.597-1.854.181-6.921.986-6.451-.155-5.903-.493-8.75-.492-4.021.52-3.525.753-8.174.311-6.32.337-8.044.337-8.044h1.323s0 1.75.337 8.044c.234 4.649 1.246 4.126.753 8.175-.337 2.846-1.505 2.298-.493 8.749.778 5.067.078 5.72.181 6.921.104.966.208 1.07-.077 2.142-.078.287-.13.914-.104 1.227.026.523.311.705 1.375.705 1.245.026 2.516 0 3.165 0 .804 0 .207-1.123-.156-1.462-.908-.81-2.23-.496-1.738-4.936.233-2.064 1.946-6.66 2.075-9.455.13-2.768-.622-2.716-.518-6.869.026-1.253 1.556-2.716 2.075-6.947.519-2.324-.052-8.253.078-8.227-.182-4.597-1.53-7.156-1.53-7.156v-1.384h-.027Z"/><path fill="currentColor" d="M7.655 24.79c.026.26.078.522.078.704.026.21 0 .392-.078.497a5.242 5.242 0 0 0-.649 1.175c-.233.68-.389 1.201-.493 1.854a24.94 24.94 0 0 0-.233 2.508c-.026.73-.208 1.802-.415 2.638a54.126 54.126 0 0 1-.675 2.533c-.13.418-.493 1.384-.545 1.462-.051.079-.544.157-.934.314-.415.157-.83.548-1.011.836-.441.705-.908 1.149-1.22 1.488-.311.34-.752.444-.778.627-.026.183.104.235.182.261.13.053.467-.026.648-.078.338-.13.597-.34.675-.418.311-.287.493-.627.596-.575.104.053.13.784.13.993 0 .444-.026.679-.052 1.41-.026.47-.026.627-.052 1.097-.026.183-.051.705-.077 1.045a36.57 36.57 0 0 0-.078 1.28c0 .156.052.313.181.34.13.025.156-.027.208-.157.026-.105.104-.392.182-.758.103-.653.155-1.097.181-1.201.026-.13.156-1.045.285-.993.156.052.13.079.13.21 0 .156-.078.574-.13.965-.025.183-.103.653-.13.836-.025.183-.233.993-.259 1.15-.026.13-.052.287.156.339.208.052.26-.209.337-.47.052-.261.363-1.306.415-1.567.052-.261.234-1.228.39-1.228.103 0 .051.183.051.314 0 .156-.155.966-.233 1.28-.104.313-.415 1.28-.415 1.462 0 .183.181.209.26.157.155-.105.207-.314.388-.627.156-.314.338-.888.415-1.175.13-.392.338-1.306.416-1.358.155-.079.181.026.207.104 0 .078-.078.653-.233 1.332-.078.34-.208.94-.234 1.018-.026.105-.052.288.182.288.155 0 .26-.34.311-.523.104-.444.208-.783.234-.914.051-.13.31-1.07.31-1.07s.312-.993.442-1.568c.156-.705.311-1.514.389-2.298.026-.183.052-.574.052-.731.13-.914.57-1.541.83-2.063.649-1.228 1.038-2.116 1.375-2.795.415-.81 1.012-2.35 1.22-3.239.285-1.2.207-1.932.181-2.637-.026-.444.13-.836.285-1.254.234-.68.26-.47.39-1.567a4.483 4.483 0 0 0 0-.836c-1.246-.052-2.517-.235-3.788-.418ZM30.744 24.79c-.026.26-.078.522-.078.704-.026.21 0 .392.078.497.182.235.467.705.649 1.175.233.68.389 1.201.493 1.854.104.653.207 1.776.233 2.508.026.73.208 1.802.415 2.638.156.678.545 2.115.675 2.533.13.418.493 1.384.545 1.462.052.079.544.157.934.314.415.157.83.548 1.011.836.442.705.909 1.149 1.22 1.488.311.34.752.444.778.627.026.183-.104.235-.181.261-.13.053-.468-.026-.65-.078a2.17 2.17 0 0 1-.674-.418c-.311-.287-.493-.627-.596-.575-.104.053-.13.784-.13.993 0 .444.026.679.052 1.41.026.47.026.627.052 1.097.026.183.052.705.078 1.045.025.365.077 1.097.077 1.28 0 .156-.052.313-.181.34-.13.025-.156-.027-.208-.157-.026-.105-.103-.392-.181-.758-.104-.653-.156-1.097-.182-1.201-.026-.13-.156-1.045-.285-.993-.156.052-.13.079-.13.21 0 .156.078.574.13.965.026.183.103.653.13.836.025.183.233.993.259 1.15.026.13.052.287-.156.339-.207.052-.26-.209-.337-.47-.052-.261-.363-1.306-.415-1.567-.052-.261-.234-1.228-.39-1.228-.103 0-.051.183-.051.314 0 .156.155.966.233 1.28.104.313.415 1.28.415 1.462 0 .183-.181.209-.26.157-.155-.105-.207-.314-.388-.627-.156-.314-.337-.888-.415-1.175-.13-.392-.338-1.306-.415-1.358-.156-.079-.182.026-.208.104 0 .078.078.653.233 1.332.078.34.208.94.234 1.018.026.105.052.288-.182.288-.155 0-.259-.34-.31-.523-.105-.444-.209-.783-.234-.914-.052-.13-.312-1.07-.312-1.07s-.311-.993-.44-1.568a20.16 20.16 0 0 1-.39-2.298 7.47 7.47 0 0 1-.052-.731c-.13-.914-.57-1.541-.83-2.063-.648-1.228-1.038-2.116-1.375-2.795-.415-.81-1.012-2.35-1.22-3.239-.285-1.2-.207-1.932-.18-2.637.025-.444-.13-.836-.286-1.254-.234-.68-.26-.47-.39-1.567a4.466 4.466 0 0 1 0-.836c1.22-.052 2.491-.235 3.788-.418ZM23.162 6.33c.096-.599-.044-1.119-.313-1.163-.269-.044-.564.406-.66 1.004-.097.598.043 1.118.312 1.162.268.044.564-.406.66-1.004ZM15.845 7.32c.268-.044.408-.564.312-1.162-.096-.598-.392-1.048-.66-1.004-.27.044-.41.564-.313 1.162.096.598.392 1.047.66 1.004Z"/><path fill="currentColor" d="M22.494 3.817c-.155-1.776-1.582-3.16-3.32-3.16-1.739 0-3.165 1.384-3.321 3.16-.026 0 .078 2.612.104 3.16l.026 1.228c.026.418.233.757.544 1.07 0 0 1.22 1.228 1.272 1.254.415.366.882.627 1.375.627.492 0 .96-.261 1.375-.627l1.27-1.254c.338-.313.52-.652.546-1.07l.026-1.228c.026-.548.13-3.134.103-3.16ZM20.6 76.71c-.025-.861 1.453-1.122 1.557.262l-1.556-.261Z"/><path fill="currentColor" d="M22.183 76.972c-.13-.548.804-.888.934 0h-.934ZM23.117 76.972a.39.39 0 0 1 .778 0h-.778Z"/><path fill="currentColor" d="M23.895 76.972c-.052-.444.649-.653.753 0h-.753Z"/><path fill="currentColor" d="M24.622 76.972c-.052-.444.389-.627.622-.261l-.622.261ZM19.148 15.544c.181 0 .285-.131.518-.392l-.518.392ZM26.567 20.219c-.518 2.585-3.683 2.168-5.474 2.141l5.474-2.141ZM25.244 32.076c-1.53 1.123-1.893 1.776-2.386 2.794l2.386-2.794ZM20.73 38.292c-.26 2.037-.311 2.847-.882 2.873l.882-2.873ZM21.379 14.838s.648.183 2.309-.34c.596-.182 1.712-.417 2.23-.417M21.509 11.156c-.13 1.28-1.401 3.395-1.842 3.996l1.841-3.996ZM24.103 55.216c-.208 1.306-1.92.992-2.257.366l2.257-.366Z"/><path fill="currentColor" d="M26.49 18.26c.181 1.593.077 3.212-.208 4.675l.208-4.675ZM17.72 76.71c.027-.861-1.452-1.122-1.556.262l1.557-.261Z"/><path fill="currentColor" d="M16.164 76.972c.13-.548-.804-.888-.934 0h.934ZM15.23 76.972a.39.39 0 0 0-.778 0h.778Z"/><path fill="currentColor" d="M14.452 76.972c.052-.444-.649-.653-.752 0h.752ZM13.7 76.972c.052-.444-.39-.627-.623-.261l.623.261ZM19.2 15.544c-.182 0-.286-.131-.52-.392l.52.392ZM11.78 20.219c.519 2.585 3.684 2.168 5.474 2.141L11.78 20.22ZM13.077 32.076c1.53 1.123 1.894 1.776 2.387 2.794l-2.387-2.794ZM17.617 38.292c.26 2.037.311 2.847.882 2.873l-.882-2.873ZM16.968 14.838s-.648.183-2.309-.34c-.596-.182-1.712-.417-2.23-.417M16.839 11.156c.13 1.28 1.4 3.395 1.842 3.996l-1.842-3.996ZM14.244 55.216c.208 1.306 1.92.992 2.258.366l-2.258-.366Z"/><path fill="currentColor" d="M11.858 18.26c-.182 1.593-.078 3.212.207 4.675l-.207-4.675ZM19.51 30.796c0 .183-.155.34-.336.34a.345.345 0 0 1-.338-.34c0-.183.156-.34.338-.34.181 0 .337.157.337.34ZM13.077 32.076s-1.479 2.794-1.557 7.73c-.026 1.15-.13 5.172 0 6.739.39 4.91 2.154 6.503 2.18 7.861M25.244 32.076s1.48 2.794 1.557 7.73c.026 1.15.13 5.172 0 6.739-.39 4.91-2.153 6.503-2.18 7.861"/></svg>