<svg xmlns="http://www.w3.org/2000/svg" viewbox="0 0 19 33" fill="none"><path fill="currentColor" d="M8.893.47V.86c-.026 1.306-.182 4.388-.285 4.702-.104.313-1.401.94-2.439 1.75s-1.92 2.298-2.18 3.29c-.674 2.43-1.582 4.075-2.204 5.328C1.162 17.185.02 17.864.098 18.44c.078.574.493.6.753.626.44.026 1.297-.444 1.764-.81a6.596 6.596 0 0 0 1.582-1.775c.623-1.071.908-2.246 1.246-2.142.363.105 1.011 2.168 1.193 2.742.415 1.28.545 1.985 1.064 4.127.337 1.358.467 1.776.778 3.186.13.575.467 2.037.674 3.108.208 1.071.7 3.239.857 3.735.13.496.389.888.804.836.389-.052.44-.21.44-.653 0-.366 0-1.228-.155-2.325-.233-1.958-.467-3.29-.519-3.656-.052-.366-.493-3.082 0-3.108.467-.026.441.078.571.496.13.418.26 1.724.441 2.925.078.575.234 1.96.311 2.534.078.574.156 3.082.234 3.5.052.417.13.861.752.861.649 0 .597-.835.545-1.645-.052-.784-.078-4.048-.13-4.832-.052-.783-.44-3.76.052-3.865.286-.078.338.47.467.888.13.418.415 2.925.415 3.865 0 .94-.104 4.022.052 4.57.156.55.675.419.856.236.39-.418.364-1.045.545-2.116.182-1.044.182-2.82.182-3.76 0-1.254-.13-4.049.052-4.258.363-.34.57-.052.674.157.104.209.337 1.959.519 4.022.078 1.019.182 2.873.233 3.16.052.288.078.888.779.68.467-.131.467-1.202.44-1.75-.077-1.332-.103-2.403-.077-2.847v-3.396s.052-3.134-.078-4.857c-.155-2.142-.415-4.623-.856-6.948-.104-.574-.39-1.697-.441-2.115-.285-2.011-.908-5.642-.597-7.104L8.893.47Z"/></svg>