<svg xmlns="http://www.w3.org/2000/svg" viewbox="0 0 28 24" width="28" height="24" fill="none"><path fill="currentColor" d="M22.846 23.636c-.234 0-.493-.052-.753-.183a2.172 2.172 0 0 0-.908-.183c-.155 0-.311.026-.467.052a6.03 6.03 0 0 1-1.375.183c-.467 0-.674-.104-.752-.13a1.984 1.984 0 0 0-.726-.314l-6.408-1.645c-.182-.053-.364-.105-.571-.183-.7-.235-1.53-.34-2.439-.34-1.53 0-2.957.34-3.502.47-.311.079-.623.157-.934.183-.285.027-.545.053-.804.053-.623 0-1.142-.105-1.557-.34a1.917 1.917 0 0 1-.804-.836C.3 19.405.405 17.863.612 16.741c.208-1.254.571-2.246.571-2.272.441-1.385.649-3.082.623-5.041-.026-1.41-.182-2.455-.182-2.534L.846.914H9.25l.234 6.216c.182 1.776.182 2.899.467 3.813.26.783.649 1.097.856 1.201.078.052.156.078.233.13l8.276 5.511c.493.262 2.206 1.15 3.58 1.829.571.287 1.194.444 1.817.444h.259c.467-.026.7-.026.83-.026H26.011c.363.026.622.13.804.391.415.575.337 1.567.337 1.567-.026.523-.233.888-.648 1.097-.338.21-.805.314-1.375.314-.208 0-.415 0-.623-.026-.078 0-.156-.027-.233-.027-.312 0-.623.079-.908.236-.156 0-.338.052-.52.052Z"/></svg>