<svg xmlns="http://www.w3.org/2000/svg" viewbox="0 0 26 32" fill="none"><path fill="currentColor" d="M25.218 17c.284-1.766-.14-3.304-.946-3.435-.806-.131-1.69 1.193-1.973 2.959-.284 1.765.139 3.303.945 3.435.806.131 1.69-1.194 1.974-2.96ZM3.207 19.965c.806-.132 1.23-1.67.946-3.435-.284-1.766-1.168-3.09-1.974-2.959-.806.132-1.23 1.67-.946 3.435.284 1.765 1.168 3.09 1.974 2.959Z"/><path fill="currentColor" d="M23.188 9.507C22.72 4.179 18.44 0 13.226 0 8.01 0 3.73 4.179 3.263 9.507c-.052.026.234 7.835.286 9.48l.103 3.63c.078 1.254.675 2.299 1.635 3.187 0 0 3.632 3.656 3.788 3.787 1.27 1.123 2.646 1.88 4.15 1.88 1.505 0 2.88-.783 4.151-1.88.156-.13 3.788-3.787 3.788-3.787 1.012-.94 1.583-1.933 1.634-3.186l.104-3.63c.078-1.62.338-9.455.286-9.481Z"/></svg>