<svg viewBox="0 0 22 22" fill="currentColor" stroke="none" xmlns="http://www.w3.org/2000/svg"><g clip-path="url(#a)" ><path d="M11 4.813A2.406 2.406 0 1 0 11 0a2.406 2.406 0 0 0 0 4.813ZM18.777 5.5H3.223a1.16 1.16 0 1 0 0 2.32H7.6c.297 0 .645.133.842.645.23.594.117 1.742-.025 2.63l-.185 1.051a.018.018 0 0 1-.006.015L6.74 20.619a1.179 1.179 0 0 0 .951 1.364 1.162 1.162 0 0 0 1.35-.958l1.028-5.878s.33-1.396.931-1.396c.611 0 .934 1.396.934 1.396l1.027 5.883a1.171 1.171 0 1 0 2.304-.412l-1.487-8.457a.02.02 0 0 0-.004-.015l-.186-1.05c-.142-.89-.255-2.037-.025-2.631.196-.51.555-.645.829-.645h4.385a1.16 1.16 0 0 0 0-2.32V5.5Z"/></g><defs><clipPath id="a"></clipPath></defs></svg>
