<svg viewBox="0 0 26 20" fill="currentColor" stroke="none" xmlns="http://www.w3.org/2000/svg"><path d="M24.279 16.346a1.619 1.619 0 0 1-1.619 1.619H3.237a1.618 1.618 0 0 1-1.618-1.619V6.635a1.619 1.619 0 0 1 1.618-1.619h1.897a4.856 4.856 0 0 0 3.432-1.423l1.343-1.34a1.619 1.619 0 0 1 1.141-.474h3.794c.43 0 .841.17 1.144.474l1.34 1.34a4.856 4.856 0 0 0 3.435 1.423h1.897a1.619 1.619 0 0 1 1.619 1.619v9.711ZM3.237 3.398A3.237 3.237 0 0 0 0 6.635v9.711a3.237 3.237 0 0 0 3.237 3.238H22.66a3.237 3.237 0 0 0 3.237-3.238V6.635a3.237 3.237 0 0 0-3.237-3.237h-1.897a3.237 3.237 0 0 1-2.288-.949l-1.34-1.34a3.237 3.237 0 0 0-2.29-.949h-3.793c-.859 0-1.682.342-2.289.949l-1.34 1.34a3.237 3.237 0 0 1-2.289.949H3.237Z" /><path d="M12.949 14.728a4.047 4.047 0 1 1 0-8.094 4.047 4.047 0 0 1 0 8.094Zm0 1.618a5.665 5.665 0 1 0 0-11.33 5.665 5.665 0 0 0 0 11.33Z"/></svg>
