<svg fill="none" stroke="currentColor" viewBox="0 0 22 22" xmlns="http://www.w3.org/2000/svg"><path d="m20.713 9.48-2.233-.667a7.765 7.765 0 0 0-.633-1.553l1.093-2.047a.407.407 0 0 0-.073-.48l-1.594-1.6a.407.407 0 0 0-.48-.073L14.76 4.147a7.747 7.747 0 0 0-1.573-.667l-.667-2.207A.407.407 0 0 0 12.127 1H9.873a.407.407 0 0 0-.386.287l-.667 2.2a7.753 7.753 0 0 0-1.587.666l-2-1.08a.407.407 0 0 0-.48.074l-1.62 1.58a.407.407 0 0 0-.073.48l1.08 2c-.28.5-.504 1.03-.667 1.58l-2.206.666a.407.407 0 0 0-.287.387v2.253a.406.406 0 0 0 .287.387l2.22.667c.165.54.388 1.061.666 1.553L3.06 16.793a.407.407 0 0 0 .073.48l1.594 1.594a.407.407 0 0 0 .48.073l2.06-1.1a7.768 7.768 0 0 0 1.533.627l.667 2.246a.406.406 0 0 0 .386.287h2.254a.406.406 0 0 0 .386-.287l.667-2.253a7.75 7.75 0 0 0 1.52-.627l2.073 1.107a.407.407 0 0 0 .48-.073l1.594-1.594a.406.406 0 0 0 .073-.48l-1.107-2.066c.265-.485.477-.997.634-1.527l2.246-.667a.407.407 0 0 0 .287-.386V9.873a.407.407 0 0 0-.247-.393ZM11 14.667a3.667 3.667 0 1 1 0-7.334 3.667 3.667 0 0 1 0 7.334Z" stroke-width="1.2"/></svg>
