<svg fill="none" stroke="currentColor" viewBox="0 0 24 24" xmlns="http://www.w3.org/2000/svg"><path d="M9.624 13.861c-1.212 1.237-1.873 2.82-1.874 4.385-.004.254.021.507.075.754H3.253l-.021-.001a1.047 1.047 0 0 1-.383-.102.598.598 0 0 1-.238-.202c-.056-.085-.111-.22-.111-.445 0-.505.27-1.64 1.13-2.643.84-.98 2.261-1.857 4.62-1.857h.006a7.4 7.4 0 0 1 1.368.111ZM10.753 19l-.021-.001a1.045 1.045 0 0 1-.383-.102.598.598 0 0 1-.238-.202c-.056-.085-.111-.22-.111-.445 0-.505.27-1.64 1.13-2.643.84-.98 2.261-1.857 4.62-1.857s3.78.877 4.62 1.857c.86 1.003 1.13 2.138 1.13 2.643 0 .225-.055.36-.111.445a.598.598 0 0 1-.238.201 1.036 1.036 0 0 1-.404.104h-9.994Zm7.295-8.452a3.25 3.25 0 1 1-4.596-4.596 3.25 3.25 0 0 1 4.596 4.596Zm-8.567.183A2.625 2.625 0 1 1 5.77 7.018a2.625 2.625 0 0 1 3.712 3.713Z" /></svg>
