<svg fill="currentColor" viewBox="0 0 12 13" xmlns="http://www.w3.org/2000/svg"><path d="M10.615 6.987v-1.16h-.923v1.345c0 .12.049.233.136.317l1.249 1.214v.71H.923v-.71l1.25-1.214a.442.442 0 0 0 .135-.317V5.38A3.5 3.5 0 0 1 2.8 3.585c.324-.546.79-1 1.352-1.314A3.77 3.77 0 0 1 6 1.793a3.77 3.77 0 0 1 1.846.485V1.276A4.675 4.675 0 0 0 6.462.92V0h-.924v.919a4.67 4.67 0 0 0-2.96 1.455 4.417 4.417 0 0 0-1.193 3.005v1.608L.135 8.2A.442.442 0 0 0 0 8.517v1.345c0 .119.049.233.135.317a.468.468 0 0 0 .327.131h3.23v.449c0 .594.243 1.164.676 1.585.433.42 1.02.656 1.632.656.612 0 1.199-.236 1.632-.656.433-.42.676-.99.676-1.585v-.449h3.23c.123 0 .24-.047.327-.131A.441.441 0 0 0 12 9.862V8.517a.442.442 0 0 0-.135-.317l-1.25-1.213Zm-3.23 3.772c0 .356-.146.698-.406.95-.26.253-.612.394-.979.394s-.72-.141-.98-.393a1.326 1.326 0 0 1-.405-.951v-.449h2.77v.449Z" /><path d="M10 5a2 2 0 1 0 0-4 2 2 0 0 0 0 4Z" fill="#09C2EB"/></svg>
