<svg width="13" height="16" viewBox="0 0 13 16" fill="none" xmlns="http://www.w3.org/2000/svg">
<path d="M6.5 16C7.39375 16 8.125 15.2615 8.125 14.359H4.875C4.875 14.7942 5.04621 15.2116 5.35095 15.5194C5.6557 15.8271 6.06902 16 6.5 16ZM11.375 11.0769V6.97436C11.375 4.45538 10.0425 2.34667 7.71875 1.78872V1.23077C7.71875 0.549744 7.17437 0 6.5 0C5.82563 0 5.28125 0.549744 5.28125 1.23077V1.78872C2.94938 2.34667 1.625 4.44718 1.625 6.97436V11.0769L0 12.7179V13.5385H13V12.7179L11.375 11.0769Z" fill="#82869A"/>
</svg>
