<svg fill="currentColor" viewBox="0 0 16 16" xmlns="http://www.w3.org/2000/svg"><path d="M8 11a3 3 0 1 1 3-3 2.969 2.969 0 0 1-3 3Zm0-5a1.956 1.956 0 0 0-2 2 1.956 1.956 0 0 0 2 2 1.956 1.956 0 0 0 2-2 1.956 1.956 0 0 0-2-2Z" /><path d="m14.652 5.522-1.18-2.044a.999.999 0 0 0-1.186-.447l-1.217.411a5.518 5.518 0 0 0-.657-.379l-.251-1.259A1 1 0 0 0 9.18 1H6.82a1 1 0 0 0-.981.804l-.252 1.26c-.23.11-.45.235-.663.376l-1.21-.409a.999.999 0 0 0-1.186.447l-1.18 2.044a1 1 0 0 0 .206 1.251l.965.849c-.009.125-.019.25-.019.378 0 .129.005.257.014.383l-.96.844a1 1 0 0 0-.207 1.251l1.18 2.044a.999.999 0 0 0 1.188.447l1.216-.412c.21.142.43.269.657.38l.251 1.259A1 1 0 0 0 6.82 15H9v-1H6.82l-.355-1.775a4.546 4.546 0 0 1-1.348-.786l-1.723.583-1.18-2.044 1.362-1.197a4.463 4.463 0 0 1-.003-1.565L2.214 6.022l1.18-2.044 1.713.58a4.515 4.515 0 0 1 1.358-.783L6.82 2h2.36l.355 1.775c.491.182.947.448 1.348.786l1.723-.583 1.18 2.044-1.399 1.226.659.752 1.4-1.227a1 1 0 0 0 .207-1.251Z"/><path d="m11.5 13.09-1.295-1.295-.705.705 2 2L15 11l-.705-.705L11.5 13.09Z" /></svg>
