<svg width="20" height="20" fill="none" stroke="currentColor" xmlns="http://www.w3.org/2000/svg"><path fill="#F5F5F7" d="M0 0h20v20H0z"/><path d="M-112-393h1600V936H-112z"/><path d="M-32-302h1440V834H-32z"/><mask id="a"><path d="M10.136.25C4.652.176.176 4.652.25 10.136c.073 5.259 4.355 9.54 9.614 9.614 5.484.075 9.96-4.402 9.885-9.885-.072-5.26-4.354-9.542-9.613-9.615Zm-.787 9.022 2.416-2.766a.75.75 0 0 1 1.13.988l-2.416 2.765a.749.749 0 1 1-1.13-.987Zm-1.822 4.259a.75.75 0 0 1-1.06 0l-2.248-2.25a.75.75 0 0 1 1.062-1.06l2.25 2.25a.75.75 0 0 1-.004 1.06Zm8.288-6.037-5.245 6a.751.751 0 0 1-.54.256h-.024a.75.75 0 0 1-.531-.22l-2.247-2.25a.75.75 0 0 1 1.061-1.06l1.397 1.398a.374.374 0 0 0 .547-.018l4.454-5.094a.75.75 0 1 1 1.13.988h-.002Z"/></mask><path d="M10.136.25C4.652.176.176 4.652.25 10.136c.073 5.259 4.355 9.54 9.614 9.614 5.484.075 9.96-4.402 9.885-9.885-.072-5.26-4.354-9.542-9.613-9.615Zm-.787 9.022 2.416-2.766a.75.75 0 0 1 1.13.988l-2.416 2.765a.749.749 0 1 1-1.13-.987Zm-1.822 4.259a.75.75 0 0 1-1.06 0l-2.248-2.25a.75.75 0 0 1 1.062-1.06l2.25 2.25a.75.75 0 0 1-.004 1.06Zm8.288-6.037-5.245 6a.751.751 0 0 1-.54.256h-.024a.75.75 0 0 1-.531-.22l-2.247-2.25a.75.75 0 0 1 1.061-1.06l1.397 1.398a.374.374 0 0 0 .547-.018l4.454-5.094a.75.75 0 1 1 1.13.988h-.002Z" stroke-width="2" mask="url(#a)"/></svg>
