<svg fill="none" viewBox="0 0 24 24" xmlns="http://www.w3.org/2000/svg"><path fill="#F5F5F7" d="M0 0h24v24H0z"/><g clip-path="url(#dc-a)"><path fill="#fff" d="M-34-116h258v667H-34z"/><mask id="dc-b" fill="#fff"><path d="M12.136 2.25c-5.484-.074-9.96 4.402-9.886 9.886.073 5.259 4.355 9.54 9.614 9.614 5.484.075 9.96-4.402 9.885-9.885-.072-5.26-4.354-9.542-9.613-9.615Zm-.787 9.022 2.416-2.766a.75.75 0 0 1 1.13.988l-2.416 2.765a.749.749 0 1 1-1.13-.987Zm-1.822 4.259a.75.75 0 0 1-1.06 0l-2.248-2.25a.75.75 0 0 1 1.062-1.06l2.25 2.25a.75.75 0 0 1-.004 1.06Zm8.288-6.037-5.245 6a.75.75 0 0 1-.54.256h-.024a.75.75 0 0 1-.531-.22l-2.247-2.25a.75.75 0 0 1 1.061-1.06l1.397 1.398a.375.375 0 0 0 .547-.018l4.453-5.094a.75.75 0 0 1 1.13.988h-.001Z"/></mask><path d="M12.136 2.25c-5.484-.074-9.96 4.402-9.886 9.886.073 5.259 4.355 9.54 9.614 9.614 5.484.075 9.96-4.402 9.885-9.885-.072-5.26-4.354-9.542-9.613-9.615Zm-.787 9.022 2.416-2.766a.75.75 0 0 1 1.13.988l-2.416 2.765a.749.749 0 1 1-1.13-.987Zm-1.822 4.259a.75.75 0 0 1-1.06 0l-2.248-2.25a.75.75 0 0 1 1.062-1.06l2.25 2.25a.75.75 0 0 1-.004 1.06Zm8.288-6.037-5.245 6a.75.75 0 0 1-.54.256h-.024a.75.75 0 0 1-.531-.22l-2.247-2.25a.75.75 0 0 1 1.061-1.06l1.397 1.398a.375.375 0 0 0 .547-.018l4.453-5.094a.75.75 0 0 1 1.13.988h-.001Z" stroke="#82869A" stroke-width="2" mask="url(#dc-b)"/></g><defs><clipPath id="dc-a"><path fill="#fff" transform="translate(-34 -116)" d="M0 0h258v667H0z"/></clipPath></defs></svg>