<svg fill="currentColor" viewBox="0 0 16 16" xmlns="http://www.w3.org/2000/svg"><path d="M8 2.804a.444.444 0 0 0 .444-.444V.849a.444.444 0 1 0-.888 0v1.51A.444.444 0 0 0 8 2.805ZM8 13.196a.444.444 0 0 0-.444.444v1.511a.444.444 0 0 0 .888 0v-1.51A.444.444 0 0 0 8 13.195ZM3.698 4.33c.082.074.19.115.302.115a.445.445 0 0 0 .316-.76L3.258 2.63a.444.444 0 0 0-.627.627l1.067 1.071ZM12.302 11.671a.445.445 0 1 0-.63.631l1.07 1.067a.446.446 0 0 0 .316.133.444.444 0 0 0 .31-.133.444.444 0 0 0 0-.627l-1.066-1.07ZM2.804 8a.444.444 0 0 0-.444-.444H.849a.444.444 0 0 0 0 .889H2.36A.444.444 0 0 0 2.804 8ZM15.151 7.556H13.64a.445.445 0 0 0 0 .889h1.511a.445.445 0 0 0 0-.89ZM3.698 11.671 2.63 12.742a.445.445 0 0 0 .482.725.445.445 0 0 0 .145-.098l1.07-1.067a.446.446 0 1 0-.63-.63ZM12 4.445a.444.444 0 0 0 .316-.13l1.066-1.07a.444.444 0 0 0-.313-.756.444.444 0 0 0-.313.129l-1.072 1.067a.444.444 0 0 0 .316.76Z" /><path d="M8.058 3.444a4.502 4.502 0 1 0 4.444 4.502 4.48 4.48 0 0 0-4.444-4.502Zm0 8.111a3.613 3.613 0 1 1 3.555-3.609 3.59 3.59 0 0 1-3.555 3.61Z"/></svg>