<svg xmlns="http://www.w3.org/2000/svg" width="18" height="20" fill="none" viewBox="0 0 18 20"><path fill="currentColor" d="M2.858 6.427a5.002 5.002 0 1 1 9.999.23l1.417.248A6.43 6.43 0 1 0 1.978 9.03c.49-.127.992-.192 1.498-.193a4.98 4.98 0 0 1-.618-2.41Z"/><path fill="currentColor" d="M7.86 2.855a2.144 2.144 0 0 0-2.143 2.143v6.076c-.835-.282-1.777-.452-2.667-.355-.655.072-1.31.288-1.86.736-.557.453-.957 1.1-1.168 1.944a.714.714 0 0 0 .614.885c3.704.411 5.594 2.43 6.507 3.898.686 1.104 2.015 2.011 3.48 1.757l2.168-.378a3.573 3.573 0 0 0 2.741-2.285l1.405-3.816A3.573 3.573 0 0 0 14.2 8.706l-4.197-.735V4.998A2.144 2.144 0 0 0 7.86 2.855Zm-.714 2.143a.715.715 0 0 1 1.429 0v3.573a.715.715 0 0 0 .592.703l4.787.84a2.143 2.143 0 0 1 1.642 2.852l-1.406 3.816a2.143 2.143 0 0 1-1.643 1.372l-2.168.377c-.718.124-1.54-.325-2.023-1.103-1-1.612-2.992-3.745-6.644-4.428.115-.183.243-.324.38-.436.29-.236.664-.376 1.11-.424.918-.1 2.029.203 2.91.643a.714.714 0 0 0 1.034-.639V4.998Z"/></svg>