<svg viewBox="0 0 23 22" fill="currentColor" stroke="none" xmlns="http://www.w3.org/2000/svg"><path d="M2.569 15.333v4.844h4.843v1.656h-6.5v-6.5h1.657Zm20.01 0v6.5h-6.5v-1.656h4.843v-4.844h1.656ZM6.87 5.583a4.877 4.877 0 0 0 3.792 4.755v6.079h2.166l.002-6.08a4.877 4.877 0 0 0 3.79-4.754h1.625c0 1.289-.096 2.404-.765 3.505-.668 1.102-1.915 2.082-3.058 2.677l.031 6.818-5.512.064v-6.882c-1.143-.595-2.39-1.575-3.059-2.677-.668-1.102-.765-2.216-.764-3.505H6.87Zm4.875-2.166a2.708 2.708 0 1 1 0 5.416 2.708 2.708 0 0 1 0-5.416ZM7.412.167v1.657H2.569v4.843H.912v-6.5h6.5Zm15.166 0v6.5h-1.656V1.824h-4.844V.167h6.5Z" /></svg>