<svg fill="currentColor" viewBox="0 0 18 18" xmlns="http://www.w3.org/2000/svg"><path d="M9 18c-4.976 0-9-4.024-9-9s4.024-9 9-9 9 4.024 9 9-4.076 9-9 9ZM9 1.059A7.93 7.93 0 0 0 1.059 9 7.93 7.93 0 0 0 9 16.941 7.93 7.93 0 0 0 16.941 9c0-4.394-3.6-7.941-7.941-7.941Z" /><path d="M3.92 16 3 15.589c.255-.617 1.072-.976 1.94-1.387.869-.412 1.94-.874 1.94-1.44v-.77c-.306-.257-.816-.822-.918-1.644-.256-.257-.664-.72-.664-1.336 0-.36.153-.668.255-.874A8.727 8.727 0 0 1 5.35 6.34C5.349 4.336 6.728 3 8.923 3c.613 0 1.38.154 1.788.617.97.205 1.787 1.336 1.787 2.723a7.46 7.46 0 0 1-.255 1.952c.102.155.204.412.204.72 0 .668-.358 1.13-.664 1.336a2.46 2.46 0 0 1-.868 1.593v.822c0 .462.919.822 1.736 1.13.97.36 1.992.771 2.349 1.593l-.97.36c-.153-.411-.97-.72-1.736-.976-1.124-.411-2.4-.874-2.4-2.056v-1.336l.255-.154s.613-.411.613-1.233v-.36l.306-.154c.051 0 .306-.154.306-.565 0-.103-.102-.257-.153-.308l-.204-.206.102-.257s.255-.822.255-1.85c0-.976-.561-1.695-1.02-1.695h-.307l-.153-.257c0-.206-.358-.411-.97-.411-1.584 0-2.554.873-2.554 2.312 0 .668.256 1.798.256 1.798l.05.257-.204.257c-.05 0-.153.154-.153.36 0 .257.307.565.46.668l.204.154v.257c0 .77.664 1.182.664 1.233l.255.154v1.336c0 1.233-1.328 1.85-2.553 2.364-.562.205-1.328.565-1.43.822Z" /></svg>
